<svg viewBox="0 0 400 240" preserveAspectRatio="xMidYMid slice" xmlns="http://www.w3.org/2000/svg">
<style type="text/css">/* <![CDATA[ */
/* Extracted from the /lab/ tile of the same case. Colours are literal so the
   file stands alone; motion is the case's own phenomenon, not decoration. */
/* Rice: each kecamatan cycles through its OWN detected phenology, fortnight by
         fortnight over one crop year. SMIL drives the fill because the sequence is
         per-polygon real data, not a shared keyframe. The ramp closes: a calendar loops. */
      .rc { stroke: #0A1214; stroke-width: 0.25; }
@media (prefers-reduced-motion: reduce) {
  * { animation: none !important; }
  /* rice animates with SMIL, which CSS animation rules do not reach */
  animate, animateTransform, animateMotion { display: none !important; }
}
/* ]]> */</style>

            <rect width="400" height="240" fill="#0A1214"/>
            <g class="rc-map">
              <path class="rc" d="M238.1 103.5L238.3 105.2L241.3 104.6L242.1 106.0L241.6 107.4L240.6 107.8L244.8 109.4L244.4 110.8L245.0 110.8L245.5 112.4L243.4 115.6L244.2 115.9L245.7 113.5L248.6 113.7L248.7 117.2L243.6 119.2L242.9 123.4L244.7 125.6L246.1 125.8L247.4 124.6L248.5 125.1L247.7 126.1L248.6 127.9L248.3 130.3L247.4 131.6L239.1 130.7L235.8 128.6L234.8 127.3L234.4 128.7L232.5 128.8L231.1 131.1L230.3 130.8L229.3 131.3L228.0 133.2L226.4 132.1L221.9 131.4L221.5 130.4L220.3 130.5L221.2 129.8L221.6 128.2L220.9 127.0L223.2 127.6L223.1 126.4L222.0 125.3L223.2 123.1L225.6 120.1L227.1 119.9L228.4 118.4L227.3 118.2L229.7 115.4L229.2 113.9L230.2 113.9L229.9 112.3L232.7 103.8L234.6 104.4L238.1 103.5Z"><animate attributeName="fill" values="#16201F;#2F7E96;#5FA83F;#5FA83F;#5FA83F;#5FA83F;#5FA83F;#5FA83F;#A8CE3A;#E6B94F;#E6B94F;#E6B94F;#B4805A;#5FA83F;#5FA83F;#5FA83F;#5FA83F;#5FA83F;#5FA83F;#5FA83F;#A8CE3A;#E6B94F;#B4805A;#16201F;#16201F;#16201F;#16201F" dur="13s" repeatCount="indefinite"/></path>
              <path class="rc" d="M307.2 108.8L309.4 109.0L310.5 110.7L312.0 110.3L312.0 111.3L312.9 111.2L314.8 113.3L315.4 111.9L317.8 112.2L319.2 111.5L322.3 114.0L324.1 114.1L324.6 112.3L325.8 113.6L325.8 115.7L326.7 116.4L326.6 117.7L325.3 119.0L324.8 121.2L323.1 120.9L323.1 122.0L321.7 122.3L320.4 121.5L319.0 124.2L318.7 123.4L316.8 123.9L314.2 121.4L312.0 120.7L311.9 119.3L308.3 119.3L307.9 118.2L306.6 118.1L306.4 117.1L305.3 117.5L303.9 113.6L305.4 113.3L305.2 111.6L307.2 108.8Z"><animate attributeName="fill" values="#16201F;#16201F;#2F7E96;#5FA83F;#5FA83F;#5FA83F;#5FA83F;#5FA83F;#5FA83F;#A8CE3A;#E6B94F;#E6B94F;#A8CE3A;#E6B94F;#B4805A;#16201F;#2F7E96;#5FA83F;#5FA83F;#5FA83F;#5FA83F;#A8CE3A;#E6B94F;#E6B94F;#16201F;#16201F;#16201F" dur="13s" repeatCount="indefinite"/></path>
              <path class="rc" d="M349.7 109.6L352.2 114.8L353.0 114.5L353.1 115.3L354.1 115.5L358.6 122.7L356.0 125.6L354.4 126.0L352.1 125.5L351.4 129.7L352.3 132.2L351.4 132.6L351.0 134.1L349.1 133.7L348.2 132.1L346.4 131.7L346.2 127.4L344.7 127.1L344.8 124.9L344.0 124.9L343.6 122.9L340.9 122.6L341.1 121.6L340.6 121.4L341.4 119.8L343.3 119.3L346.6 112.8L346.9 112.4L347.7 112.8L349.7 109.6Z"><animate attributeName="fill" values="#16201F;#16201F;#2F7E96;#5FA83F;#5FA83F;#5FA83F;#5FA83F;#5FA83F;#A8CE3A;#A8CE3A;#E6B94F;#B4805A;#2F7E96;#5FA83F;#5FA83F;#5FA83F;#5FA83F;#A8CE3A;#A8CE3A;#E6B94F;#B4805A;#16201F;#16201F;#16201F;#16201F;#16201F;#16201F" dur="13s" repeatCount="indefinite"/></path>
              <path class="rc" d="M331.8 150.0L331.3 152.5L332.9 152.3L333.7 153.5L335.6 154.3L335.5 157.4L334.0 159.0L335.2 159.3L336.6 158.2L337.9 159.1L340.5 159.0L341.4 157.5L342.2 157.6L343.1 159.9L343.1 162.6L342.3 163.2L342.6 164.4L341.1 163.5L339.4 164.0L337.6 162.2L333.1 161.8L329.8 159.5L327.0 160.9L325.9 159.1L321.9 158.5L319.5 159.0L320.0 160.2L317.5 161.9L315.6 161.8L311.8 163.2L308.1 163.8L309.5 160.4L309.7 155.2L309.1 154.5L310.2 152.4L311.8 151.9L311.7 151.2L312.8 150.0L314.8 150.4L316.7 152.8L320.8 151.6L321.5 153.6L322.2 154.0L322.9 152.2L328.4 151.3L330.4 150.4L330.7 149.5L331.8 150.0Z"><animate attributeName="fill" values="#16201F;#2F7E96;#5FA83F;#5FA83F;#5FA83F;#5FA83F;#5FA83F;#5FA83F;#5FA83F;#A8CE3A;#E6B94F;#E6B94F;#E6B94F;#B4805A;#16201F;#2F7E96;#5FA83F;#5FA83F;#5FA83F;#5FA83F;#5FA83F;#A8CE3A;#E6B94F;#B4805A;#E6B94F;#16201F;#16201F" dur="13s" repeatCount="indefinite"/></path>
              <path class="rc" d="M125.4 93.2L127.4 92.1L129.6 92.4L133.0 93.7L136.2 94.0L136.4 95.6L139.0 95.9L139.7 96.7L140.1 98.3L138.6 99.7L138.2 101.3L138.9 101.3L138.5 101.9L139.2 102.8L138.5 103.2L137.5 107.1L136.3 107.6L136.0 108.2L136.6 108.3L135.3 109.2L135.5 109.9L136.1 109.4L136.0 110.4L134.8 111.8L130.3 110.3L128.4 107.3L124.9 106.7L123.6 107.1L124.0 105.5L123.2 104.3L123.2 102.7L118.7 103.7L120.2 101.2L118.1 100.3L116.9 100.9L116.0 104.2L113.9 105.0L114.2 101.2L115.0 99.6L114.6 98.5L113.8 98.6L112.7 97.2L113.7 95.4L117.3 95.7L118.8 94.5L120.3 91.8L125.0 92.0L125.4 93.2Z"><animate attributeName="fill" values="#E6B94F;#E6B94F;#5FA83F;#5FA83F;#5FA83F;#5FA83F;#5FA83F;#5FA83F;#5FA83F;#A8CE3A;#E6B94F;#E6B94F;#E6B94F;#E6B94F;#2F7E96;#5FA83F;#5FA83F;#5FA83F;#5FA83F;#5FA83F;#5FA83F;#5FA83F;#5FA83F;#5FA83F;#A8CE3A;#E6B94F;#E6B94F" dur="13s" repeatCount="indefinite"/></path>
              <path class="rc" d="M33.6 16.8L34.3 17.4L34.2 18.7L35.3 19.1L35.9 18.7L36.6 21.0L39.9 22.3L41.4 23.9L42.3 29.3L41.2 34.0L43.4 35.3L43.6 36.4L42.7 38.9L44.2 39.6L46.1 38.2L46.2 37.5L47.1 37.3L47.3 35.9L47.9 36.1L47.9 36.8L49.4 38.0L49.6 41.9L50.4 42.8L50.6 46.2L51.6 47.4L51.7 48.5L50.5 48.8L50.4 47.1L49.5 46.7L47.7 47.6L42.7 47.3L38.4 44.8L34.8 43.6L34.3 42.8L34.5 40.9L33.9 40.3L31.4 41.6L30.2 40.1L27.0 37.9L24.9 39.3L22.7 38.8L25.1 35.8L25.5 32.7L26.8 30.5L26.3 29.4L27.3 27.4L26.7 23.9L27.5 21.4L29.7 19.2L29.5 17.3L33.6 16.8Z"><animate attributeName="fill" values="#E6B94F;#16201F;#16201F;#16201F;#16201F;#16201F;#16201F;#16201F;#16201F;#5FA83F;#5FA83F;#A8CE3A;#A8CE3A;#16201F;#16201F;#16201F;#16201F;#16201F;#16201F;#16201F;#16201F;#16201F;#16201F;#16201F;#16201F;#16201F;#E6B94F" dur="13s" repeatCount="indefinite"/></path>
              <path class="rc" d="M192.8 114.5L195.1 114.2L197.5 116.1L201.3 116.8L202.0 120.2L202.9 120.3L202.8 121.3L203.7 122.4L204.9 122.5L205.8 126.8L208.2 128.5L208.3 129.3L206.6 130.3L206.5 133.8L204.2 138.4L201.8 138.2L202.3 137.1L201.6 134.0L201.0 133.7L200.0 134.3L197.5 133.1L197.2 131.8L193.2 134.2L191.3 132.9L186.6 135.9L186.0 134.7L184.4 134.6L183.6 133.2L184.4 133.4L185.0 131.7L186.2 132.3L188.1 131.6L187.4 130.6L189.3 128.7L188.9 127.8L190.3 122.4L191.5 122.8L191.6 121.6L190.1 120.3L190.0 118.1L188.8 117.9L188.9 115.7L191.0 115.0L191.5 114.0L192.8 114.5Z"><animate attributeName="fill" values="#5FA83F;#5FA83F;#5FA83F;#5FA83F;#5FA83F;#5FA83F;#5FA83F;#5FA83F;#5FA83F;#A8CE3A;#E6B94F;#E6B94F;#2F7E96;#5FA83F;#5FA83F;#5FA83F;#5FA83F;#5FA83F;#5FA83F;#5FA83F;#A8CE3A;#E6B94F;#E6B94F;#E6B94F;#B4805A;#E6B94F;#5FA83F" dur="13s" repeatCount="indefinite"/></path>
              <path class="rc" d="M151.8 79.4L155.4 77.0L159.5 81.2L161.8 82.1L161.8 83.4L167.1 81.7L168.9 80.4L169.2 78.6L170.8 80.5L173.4 82.2L175.9 82.9L177.6 82.4L179.2 86.2L179.0 88.1L181.3 93.7L181.6 97.8L177.0 98.0L173.4 99.8L172.1 99.5L170.7 100.7L170.5 98.3L169.0 97.1L166.1 97.1L165.2 97.9L164.1 97.1L161.1 98.1L159.1 98.0L158.1 96.3L156.0 97.1L155.6 99.0L153.8 98.9L152.9 99.4L152.6 100.6L151.9 99.6L150.8 101.2L147.2 94.9L148.4 94.3L147.5 93.0L146.5 93.6L146.5 94.6L142.3 92.7L142.1 91.4L140.6 91.2L140.5 91.7L138.6 91.0L139.6 89.0L138.7 88.0L140.5 86.7L142.7 86.6L143.7 87.1L144.5 84.3L143.9 83.9L143.9 83.1L146.1 82.4L149.7 78.9L151.8 79.4Z"><animate attributeName="fill" values="#5FA83F;#5FA83F;#5FA83F;#5FA83F;#5FA83F;#5FA83F;#5FA83F;#5FA83F;#A8CE3A;#E6B94F;#E6B94F;#E6B94F;#B4805A;#2F7E96;#5FA83F;#5FA83F;#5FA83F;#5FA83F;#5FA83F;#5FA83F;#A8CE3A;#A8CE3A;#E6B94F;#E6B94F;#16201F;#16201F;#5FA83F" dur="13s" repeatCount="indefinite"/></path>
              <path class="rc" d="M260.9 109.8L262.1 110.2L262.8 109.8L263.4 110.7L262.6 110.8L262.7 111.4L263.6 112.6L264.3 112.6L264.8 114.9L265.8 114.6L265.5 116.7L264.6 117.0L264.1 118.2L264.2 119.8L263.1 120.1L262.2 121.8L260.8 122.4L259.9 122.1L259.1 123.3L259.8 126.9L252.1 133.2L251.0 132.1L247.4 131.6L248.3 130.3L248.6 127.9L247.7 126.1L248.5 125.1L247.4 124.6L246.1 125.8L244.4 125.3L242.9 123.4L243.4 119.5L248.7 117.2L253.1 113.4L256.9 111.6L256.9 110.6L260.9 109.8Z"><animate attributeName="fill" values="#2F7E96;#2F7E96;#5FA83F;#5FA83F;#5FA83F;#5FA83F;#5FA83F;#5FA83F;#A8CE3A;#E6B94F;#E6B94F;#2F7E96;#5FA83F;#5FA83F;#5FA83F;#5FA83F;#5FA83F;#5FA83F;#A8CE3A;#E6B94F;#E6B94F;#B4805A;#E6B94F;#16201F;#16201F;#16201F;#2F7E96" dur="13s" repeatCount="indefinite"/></path>
              <path class="rc" d="M302.3 78.6L306.2 82.6L312.6 84.5L313.1 85.4L312.1 86.8L312.9 89.8L315.2 90.7L315.8 93.5L320.2 96.3L321.9 99.3L320.2 100.8L318.4 100.2L322.5 107.0L324.6 108.5L324.3 114.1L322.3 114.0L319.2 111.5L317.8 112.2L315.4 111.9L314.8 113.3L312.9 111.2L312.0 111.3L312.0 110.3L310.5 110.7L309.4 109.0L307.6 108.6L305.2 111.6L305.4 113.3L303.6 113.8L302.2 107.3L299.5 109.2L298.9 108.5L294.7 109.1L292.9 108.3L291.4 108.4L291.1 107.5L289.0 106.2L286.8 106.1L286.4 105.6L286.8 104.8L289.2 103.8L292.0 103.5L298.1 98.3L299.4 97.8L300.4 98.3L301.8 94.5L305.8 92.5L305.3 91.6L305.8 90.8L305.0 90.2L303.3 83.9L300.4 84.7L300.7 83.8L301.4 83.7L301.2 82.8L294.5 81.3L295.8 80.6L296.0 79.6L300.2 80.1L302.3 78.6Z" fill="#16201F"/>
              <path class="rc" d="M70.0 114.7L71.0 116.2L72.6 115.0L75.9 116.8L76.5 117.9L74.7 118.4L76.4 119.1L77.4 122.3L78.6 122.6L79.7 121.8L81.7 121.4L82.3 122.2L82.1 124.3L84.3 124.9L84.5 126.1L81.9 126.0L80.7 126.6L80.0 127.8L80.6 129.2L82.2 129.2L83.9 130.9L85.2 139.4L84.5 140.6L83.0 140.7L82.7 141.9L84.0 143.3L85.6 143.5L83.7 144.2L83.3 145.3L85.6 147.4L86.0 149.5L87.9 150.3L88.2 152.6L84.1 151.3L81.9 151.7L77.6 148.8L74.9 149.5L71.5 148.5L65.8 150.2L63.9 151.7L62.9 150.8L62.7 149.0L61.7 148.1L63.2 147.6L64.4 140.2L65.4 138.1L66.8 136.9L65.5 133.5L64.1 132.4L64.2 131.5L60.9 131.9L59.3 130.7L58.6 131.0L57.7 128.5L58.4 128.5L58.6 127.5L59.6 127.5L61.0 124.1L60.3 122.9L63.0 121.2L63.0 119.8L64.8 118.1L65.9 114.7L67.2 115.6L67.5 115.0L69.2 115.3L70.0 114.7Z" fill="#16201F"/>
              <path class="rc" d="M138.0 91.1L140.5 91.7L140.6 91.2L142.1 91.4L142.3 92.7L146.5 94.6L146.5 93.6L147.5 93.0L148.4 94.3L147.2 94.9L150.8 101.2L151.9 99.6L152.6 100.6L152.9 99.4L153.8 98.9L155.6 99.0L156.0 97.1L158.1 96.3L159.1 98.0L161.1 98.1L164.1 97.1L165.2 97.9L166.1 97.1L169.0 97.1L170.5 98.3L170.7 100.7L172.1 99.5L173.2 99.8L174.8 99.1L175.3 104.7L175.7 104.5L175.7 105.3L178.1 105.2L177.7 106.5L178.8 105.6L178.9 106.3L180.9 106.9L180.6 108.1L181.8 109.0L182.5 112.1L181.5 113.6L179.0 114.1L178.8 114.6L172.3 114.8L171.5 115.3L169.1 114.7L169.3 114.0L167.0 114.3L166.5 113.7L165.0 114.5L165.0 113.5L162.7 114.3L160.9 114.1L161.0 114.8L159.5 115.8L159.0 116.9L155.8 114.2L159.1 113.7L158.3 110.3L152.3 110.1L148.7 112.0L148.1 106.4L143.5 104.9L138.3 105.1L138.5 103.2L139.2 102.8L138.5 101.9L138.9 101.3L138.2 101.3L138.6 99.7L139.8 99.1L140.1 98.1L138.2 94.3L138.0 91.1Z"><animate attributeName="fill" values="#5FA83F;#5FA83F;#5FA83F;#5FA83F;#5FA83F;#5FA83F;#5FA83F;#5FA83F;#5FA83F;#E6B94F;#E6B94F;#E6B94F;#B4805A;#2F7E96;#5FA83F;#5FA83F;#5FA83F;#5FA83F;#5FA83F;#5FA83F;#5FA83F;#A8CE3A;#E6B94F;#E6B94F;#B4805A;#16201F;#5FA83F" dur="13s" repeatCount="indefinite"/></path>
              <path class="rc" d="M158.5 201.1L160.1 202.9L159.9 204.2L160.9 205.6L165.0 205.3L164.9 206.6L163.2 208.8L165.5 209.0L167.4 206.7L167.4 207.6L168.8 207.2L168.3 209.1L169.6 209.1L172.5 206.7L176.2 205.6L178.1 205.8L177.0 208.1L175.6 208.8L174.5 210.4L174.8 211.5L173.6 213.7L174.1 216.1L173.4 216.2L173.9 216.7L169.3 221.0L168.9 222.9L166.3 223.1L164.5 225.9L163.0 226.6L162.7 225.9L159.0 225.0L151.2 225.3L149.3 222.8L148.4 222.5L148.7 221.8L149.5 221.8L148.9 219.9L150.4 219.3L149.9 218.6L150.4 217.3L154.2 213.7L154.5 212.3L156.2 211.7L157.0 208.7L157.1 204.3L158.5 201.1Z" fill="#16201F"/>
              <path class="rc" d="M215.9 160.3L220.3 162.8L220.4 165.1L221.2 166.0L223.0 165.8L222.4 166.7L221.4 166.7L221.7 167.8L219.9 167.3L219.3 167.7L218.3 168.9L218.1 170.5L213.6 170.6L210.4 171.8L211.6 173.6L209.9 174.2L209.6 175.5L212.0 179.1L210.3 181.0L211.0 183.0L210.6 184.2L211.5 186.0L210.2 188.5L209.9 190.4L210.6 193.0L210.2 193.0L209.0 189.6L209.4 188.5L202.7 188.0L201.7 185.7L202.2 184.8L203.5 184.6L203.7 184.2L203.0 183.9L204.1 184.0L204.0 182.9L204.8 183.1L205.7 182.2L206.3 180.9L205.7 180.0L206.3 179.5L205.7 179.4L206.7 179.1L206.9 178.2L206.1 176.8L206.5 176.3L204.8 175.5L205.6 173.8L204.3 171.9L204.8 171.1L203.6 169.0L201.7 169.7L201.1 169.1L199.4 169.4L197.6 168.9L196.6 169.5L193.8 169.2L193.7 167.5L191.2 167.3L192.8 163.4L192.5 161.6L194.1 160.7L197.7 160.8L199.7 161.6L199.5 162.2L206.7 162.1L208.0 162.9L215.1 161.9L215.6 162.4L215.9 161.7L216.6 161.8L215.8 161.2L215.9 160.3Z" fill="#16201F"/>
              <path class="rc" d="M64.9 8.8L74.3 11.5L76.9 13.0L82.2 18.1L89.1 26.5L88.2 27.1L88.8 28.3L88.2 28.8L87.6 27.7L86.5 29.2L88.6 34.4L87.3 36.3L85.2 35.6L84.1 33.8L82.7 33.0L82.3 31.8L78.5 36.6L78.1 37.7L79.2 41.0L73.2 41.1L71.5 46.7L69.5 45.5L70.4 43.5L69.4 42.0L69.8 40.1L69.0 38.9L67.5 39.2L67.4 36.6L65.4 35.5L66.4 30.9L63.2 31.1L63.4 29.7L62.3 29.5L63.2 25.8L60.8 25.1L62.4 18.0L62.4 15.4L59.4 18.0L56.4 14.1L55.2 15.3L52.4 15.2L52.1 14.5L50.6 14.0L50.3 14.6L48.8 13.5L48.2 14.1L48.3 13.0L46.4 13.0L54.8 9.6L62.1 9.0L64.6 9.5L64.9 8.8Z"><animate attributeName="fill" values="#5FA83F;#A8CE3A;#A8CE3A;#E6B94F;#B4805A;#B4805A;#16201F;#2F7E96;#2F7E96;#5FA83F;#5FA83F;#5FA83F;#5FA83F;#5FA83F;#5FA83F;#A8CE3A;#E6B94F;#B4805A;#B4805A;#16201F;#16201F;#16201F;#5FA83F;#5FA83F;#5FA83F;#5FA83F;#5FA83F" dur="13s" repeatCount="indefinite"/></path>
              <path class="rc" d="M193.8 173.4L195.2 176.7L195.1 178.5L193.8 179.2L195.0 181.0L194.7 182.9L197.5 182.6L203.7 184.2L203.2 185.0L202.3 184.7L201.8 185.4L202.7 188.0L209.4 188.5L209.0 189.6L210.1 193.9L208.8 194.2L207.7 196.4L203.8 198.0L200.3 197.4L196.3 198.4L191.0 196.7L188.6 196.9L186.6 197.9L183.2 194.2L180.7 194.6L179.5 192.1L178.0 191.8L176.5 189.4L173.7 187.8L173.5 186.2L171.0 186.0L172.1 182.9L173.4 181.5L175.0 181.5L176.1 180.0L178.1 180.3L179.6 177.2L181.8 176.9L183.1 175.0L188.8 175.5L190.3 174.0L193.8 173.4Z" fill="#16201F"/>
              <path class="rc" d="M97.9 120.9L105.6 121.3L105.4 122.6L108.1 124.5L106.5 126.9L107.6 127.5L107.7 128.3L109.6 128.5L107.6 130.7L106.6 130.8L107.2 131.4L107.4 133.1L106.2 134.4L106.4 135.9L104.5 137.8L101.4 138.3L100.0 140.1L97.6 137.8L96.9 136.5L97.6 135.3L96.6 135.5L96.2 134.0L94.7 133.2L92.1 134.0L90.5 132.8L91.3 130.8L90.8 129.9L91.3 127.9L94.7 127.1L95.4 126.3L96.6 122.6L97.6 122.8L97.9 120.9Z" fill="#16201F"/>
              <path class="rc" d="M182.5 112.1L182.8 114.7L185.3 114.6L188.9 115.6L188.8 117.9L190.1 118.2L190.1 120.3L191.6 121.5L191.5 122.8L190.3 122.4L188.9 127.8L189.3 128.7L187.4 130.6L188.1 131.6L186.2 132.3L185.0 131.7L184.4 133.4L183.6 133.2L184.5 134.2L184.4 136.5L182.6 139.9L183.0 140.6L181.8 141.0L182.3 142.9L183.1 142.8L183.7 145.1L183.6 148.6L181.1 150.5L181.1 151.4L180.3 151.6L179.7 153.1L178.5 153.9L178.7 154.4L177.6 154.9L176.8 154.1L177.1 152.8L176.5 153.0L176.3 152.2L176.5 147.2L175.1 144.1L176.4 140.8L178.0 139.8L178.2 136.1L174.7 135.0L173.5 137.0L172.3 137.4L171.5 136.3L171.2 134.6L169.0 134.8L169.0 134.0L169.1 133.2L170.6 132.8L170.2 128.5L172.3 128.3L174.5 125.9L173.7 125.2L173.0 120.5L173.8 116.4L172.3 114.8L178.8 114.6L179.0 114.1L181.5 113.6L182.5 112.1Z"><animate attributeName="fill" values="#5FA83F;#5FA83F;#5FA83F;#5FA83F;#5FA83F;#A8CE3A;#A8CE3A;#E6B94F;#16201F;#16201F;#16201F;#16201F;#5FA83F;#5FA83F;#5FA83F;#5FA83F;#5FA83F;#A8CE3A;#A8CE3A;#E6B94F;#16201F;#16201F;#16201F;#16201F;#16201F;#16201F;#5FA83F" dur="13s" repeatCount="indefinite"/></path>
              <path class="rc" d="M302.6 137.8L302.0 141.1L304.0 140.8L305.7 147.7L305.5 151.1L304.3 152.4L304.7 155.1L305.4 155.4L306.5 158.6L305.2 161.2L304.8 165.1L305.3 166.2L307.6 167.2L307.4 168.6L305.9 171.9L304.6 172.5L302.4 177.4L300.6 179.5L300.3 181.3L299.0 182.0L296.0 180.7L294.0 181.6L293.6 182.7L292.7 182.6L289.4 180.7L288.7 179.2L288.8 177.2L288.2 175.9L289.1 173.3L287.7 172.4L287.6 169.9L283.7 169.7L285.0 167.2L283.9 165.7L284.1 163.4L283.1 162.5L283.6 162.3L283.2 160.5L284.0 160.3L283.4 158.3L284.6 157.4L285.2 158.0L285.4 156.8L286.8 155.4L288.6 155.9L288.6 155.3L289.7 155.4L291.7 152.9L291.3 150.1L293.7 149.7L295.5 146.2L296.5 147.2L297.4 146.5L297.9 142.6L294.7 143.0L295.0 144.4L293.4 144.5L293.9 143.7L293.5 143.0L297.0 142.2L297.3 140.5L298.5 140.5L300.4 139.1L300.8 138.0L302.6 137.8Z"><animate attributeName="fill" values="#16201F;#2F7E96;#5FA83F;#5FA83F;#5FA83F;#5FA83F;#5FA83F;#5FA83F;#A8CE3A;#A8CE3A;#E6B94F;#16201F;#16201F;#16201F;#16201F;#16201F;#16201F;#16201F;#16201F;#16201F;#16201F;#16201F;#16201F;#16201F;#16201F;#16201F;#16201F" dur="13s" repeatCount="indefinite"/></path>
              <path class="rc" d="M129.2 67.4L131.0 67.6L129.8 68.6L129.3 71.7L131.3 73.9L130.7 75.7L131.4 76.3L130.5 76.1L130.3 77.0L129.5 76.6L128.4 78.8L130.8 79.9L128.5 84.7L127.8 84.9L127.0 87.4L126.3 87.5L125.8 89.2L124.7 89.9L124.5 91.8L120.1 91.9L118.8 94.5L117.3 95.7L114.1 95.2L114.0 94.2L115.9 91.3L116.9 82.9L114.8 81.9L113.3 80.3L114.0 77.7L113.3 75.5L114.0 74.1L112.7 73.8L112.7 72.7L111.1 72.2L111.4 71.0L110.8 69.5L111.7 69.3L112.7 66.9L114.6 65.6L116.2 65.7L117.3 66.9L116.9 68.3L118.0 68.3L119.6 67.0L120.5 63.6L129.2 67.4Z"><animate attributeName="fill" values="#E6B94F;#E6B94F;#B4805A;#B4805A;#2F7E96;#5FA83F;#5FA83F;#5FA83F;#5FA83F;#5FA83F;#5FA83F;#5FA83F;#A8CE3A;#E6B94F;#E6B94F;#B4805A;#B4805A;#2F7E96;#5FA83F;#5FA83F;#5FA83F;#5FA83F;#5FA83F;#5FA83F;#A8CE3A;#E6B94F;#E6B94F" dur="13s" repeatCount="indefinite"/></path>
              <path class="rc" d="M131.0 67.6L138.6 69.6L149.4 69.7L155.4 77.0L154.8 77.4L154.4 76.9L151.8 79.4L149.7 78.9L146.1 82.4L143.9 83.1L143.9 83.9L144.5 84.3L143.7 87.1L141.7 86.5L138.7 88.0L139.6 89.0L139.0 90.6L138.0 91.1L138.2 94.3L139.0 95.9L136.4 95.6L136.2 94.0L133.0 93.7L129.6 92.4L127.4 92.1L125.4 93.3L125.2 92.0L124.5 91.8L124.7 89.9L125.8 89.2L126.3 87.5L127.0 87.4L127.4 85.6L128.5 84.7L130.8 79.9L128.4 78.8L129.5 76.6L130.3 77.0L130.5 76.1L131.4 76.3L130.7 75.7L131.3 73.9L129.3 71.7L129.8 68.6L131.0 67.6Z"><animate attributeName="fill" values="#B4805A;#B4805A;#2F7E96;#5FA83F;#5FA83F;#5FA83F;#5FA83F;#5FA83F;#5FA83F;#A8CE3A;#A8CE3A;#E6B94F;#B4805A;#E6B94F;#E6B94F;#B4805A;#5FA83F;#5FA83F;#5FA83F;#5FA83F;#5FA83F;#5FA83F;#5FA83F;#5FA83F;#5FA83F;#5FA83F;#B4805A" dur="13s" repeatCount="indefinite"/></path>
              <path class="rc" d="M95.2 37.1L99.2 44.1L99.9 44.1L101.5 46.9L102.8 46.8L103.1 48.4L106.9 54.3L104.3 56.5L101.8 57.5L101.8 60.3L101.1 62.2L101.5 64.1L98.4 66.8L96.7 70.0L95.6 66.7L94.3 65.5L91.6 65.8L89.1 67.5L89.6 68.2L88.8 69.8L87.2 69.0L86.5 70.0L85.7 70.0L86.3 66.4L85.9 61.3L81.9 60.0L81.8 58.9L80.0 57.5L82.2 56.5L82.8 54.1L84.1 54.0L84.1 54.7L87.2 55.2L88.6 52.3L88.0 50.7L90.2 50.6L90.7 49.2L92.7 48.7L92.6 47.5L92.0 47.3L93.0 45.9L90.6 42.6L92.4 41.7L92.9 41.1L91.6 40.2L95.2 37.1Z"><animate attributeName="fill" values="#E6B94F;#E6B94F;#B4805A;#B4805A;#2F7E96;#5FA83F;#2F7E96;#5FA83F;#5FA83F;#5FA83F;#5FA83F;#5FA83F;#A8CE3A;#E6B94F;#E6B94F;#E6B94F;#B4805A;#2F7E96;#2F7E96;#5FA83F;#5FA83F;#5FA83F;#5FA83F;#5FA83F;#A8CE3A;#E6B94F;#E6B94F" dur="13s" repeatCount="indefinite"/></path>
              <path class="rc" d="M154.3 134.1L155.5 136.7L155.2 138.7L156.6 140.1L153.2 143.7L150.7 144.0L151.3 147.0L150.4 150.4L151.3 151.8L152.7 151.9L154.2 153.0L154.3 153.9L155.7 154.5L157.1 159.2L153.6 157.6L152.1 160.7L153.4 161.6L154.1 163.5L153.8 163.9L152.3 163.5L151.7 164.8L151.1 164.4L151.5 164.1L150.2 160.5L147.8 161.9L145.3 161.6L143.6 162.6L142.3 162.0L139.5 164.4L140.1 167.0L140.8 167.6L140.0 169.4L140.6 172.3L142.0 172.7L141.6 173.9L138.0 173.5L136.5 174.1L135.3 173.1L135.6 172.3L134.1 171.5L134.4 170.5L133.7 171.1L133.4 170.5L131.7 170.3L131.5 169.7L131.8 169.0L132.7 169.0L132.5 167.5L133.5 167.3L132.8 166.0L133.9 165.0L133.3 163.9L132.1 163.4L133.0 162.2L132.7 161.0L134.2 160.0L132.8 158.8L133.3 158.0L131.8 157.2L133.4 156.5L132.9 155.3L133.6 155.1L133.3 152.6L133.9 151.6L133.1 150.1L134.2 150.0L134.7 149.2L133.9 148.7L133.7 149.6L133.0 149.2L133.0 146.2L131.1 145.7L130.8 144.8L129.3 144.7L129.2 141.9L128.6 141.9L129.0 140.9L128.2 140.4L128.9 139.3L128.4 138.2L135.6 138.5L135.8 141.3L144.9 141.1L145.3 140.6L144.5 139.7L144.8 139.0L145.5 139.1L145.6 137.6L147.1 136.7L149.0 136.9L150.3 135.2L150.9 135.2L151.1 136.1L151.3 135.2L152.5 135.4L154.3 134.1Z" fill="#16201F"/>
              <path class="rc" d="M208.5 129.5L208.6 130.7L210.5 131.3L212.4 132.8L214.7 132.7L215.8 131.4L216.3 131.8L215.5 133.3L215.5 135.8L217.8 139.4L217.8 141.4L220.1 141.4L221.3 142.8L222.1 142.7L222.2 145.2L223.2 145.1L222.8 146.0L223.3 146.6L222.5 147.4L223.0 148.6L224.2 147.9L226.2 148.8L226.5 148.0L226.7 149.5L228.5 148.9L226.9 150.3L227.5 151.3L228.8 150.2L228.6 151.0L227.9 151.4L225.5 151.6L225.9 152.2L224.9 154.0L226.3 154.4L227.1 152.9L227.7 153.0L228.8 156.5L228.0 157.1L227.8 159.0L225.6 160.2L226.5 161.7L225.4 163.6L223.0 165.0L221.8 164.9L221.4 166.0L220.4 165.1L220.3 162.8L215.9 160.3L215.8 161.2L216.6 161.8L215.9 161.7L215.6 162.4L215.1 161.9L208.0 162.9L206.7 162.1L202.2 162.2L200.7 161.5L204.0 160.4L204.4 159.0L204.3 156.3L205.0 154.7L199.9 152.8L200.5 150.2L201.2 150.0L203.9 146.2L203.4 143.2L204.0 142.6L204.0 141.1L203.1 141.0L204.5 140.1L203.7 138.6L205.3 136.8L206.5 133.8L206.6 130.3L208.5 129.5Z"><animate attributeName="fill" values="#5FA83F;#5FA83F;#5FA83F;#5FA83F;#5FA83F;#5FA83F;#5FA83F;#E6B94F;#E6B94F;#A8CE3A;#16201F;#16201F;#16201F;#16201F;#16201F;#16201F;#16201F;#16201F;#16201F;#16201F;#16201F;#16201F;#2F7E96;#5FA83F;#5FA83F;#5FA83F;#5FA83F" dur="13s" repeatCount="indefinite"/></path>
              <path class="rc" d="M187.8 206.0L188.8 205.5L188.9 206.1L190.3 205.8L190.8 206.5L190.9 205.4L191.5 205.1L192.3 205.6L192.7 205.1L194.5 206.5L195.1 206.3L195.1 208.5L193.7 208.5L192.7 210.6L194.0 211.0L193.8 212.3L196.4 212.8L197.2 213.9L197.0 217.1L196.7 217.8L195.9 217.7L195.4 219.2L196.5 221.0L194.2 224.1L192.8 224.9L193.6 226.4L192.3 232.6L190.6 232.5L190.0 233.5L184.2 235.8L179.3 236.0L177.3 235.1L177.3 233.6L176.7 232.7L173.4 231.6L172.4 230.3L170.7 230.3L167.2 231.8L166.0 230.8L163.0 226.6L164.5 225.9L166.3 223.1L168.9 222.9L169.3 221.0L173.9 216.7L173.5 216.0L175.1 216.2L176.0 217.8L178.0 216.4L179.0 214.1L180.3 213.3L180.5 212.2L179.9 211.2L182.9 209.5L183.0 207.1L186.3 206.0L187.3 205.0L187.8 206.0Z" fill="#16201F"/>
              <path class="rc" d="M214.6 107.9L219.2 111.9L219.2 112.8L220.9 113.0L222.8 108.4L225.3 110.1L228.7 110.3L227.8 112.2L229.7 115.3L227.3 118.2L228.4 118.4L227.5 119.5L225.6 120.1L222.9 123.5L222.0 125.3L223.1 126.4L223.1 127.7L220.9 127.0L221.6 128.2L221.2 129.8L220.2 130.4L221.6 130.5L222.6 132.9L221.2 135.0L221.5 136.4L220.8 137.6L222.0 139.1L221.1 139.1L221.6 140.0L220.5 141.4L217.8 141.3L217.8 139.4L215.5 135.8L215.5 133.3L216.3 131.8L215.8 131.4L214.7 132.7L212.4 132.8L210.5 131.3L208.6 130.7L208.8 129.6L208.1 128.4L205.8 126.8L205.8 125.0L204.7 123.3L204.9 122.5L203.7 122.4L202.7 121.1L204.3 115.4L203.0 114.6L203.6 113.9L203.4 112.6L206.6 112.6L206.4 115.4L209.6 119.1L209.7 120.4L210.6 121.2L213.1 120.8L214.4 118.6L216.2 118.0L214.9 116.4L216.2 115.9L216.1 110.6L214.6 108.6L214.6 110.1L213.5 110.7L213.5 109.3L212.6 109.8L212.3 109.3L212.3 108.8L214.6 107.9Z"><animate attributeName="fill" values="#B4805A;#2F7E96;#5FA83F;#5FA83F;#5FA83F;#5FA83F;#5FA83F;#5FA83F;#A8CE3A;#A8CE3A;#E6B94F;#E6B94F;#B4805A;#2F7E96;#5FA83F;#5FA83F;#5FA83F;#5FA83F;#5FA83F;#5FA83F;#5FA83F;#A8CE3A;#E6B94F;#E6B94F;#A8CE3A;#E6B94F;#B4805A" dur="13s" repeatCount="indefinite"/></path>
              <path class="rc" d="M180.0 153.8L180.7 153.9L179.8 154.8L180.5 156.0L179.5 156.6L179.8 157.3L180.8 157.3L179.9 158.9L180.3 160.0L179.3 160.4L179.9 160.5L180.3 161.8L179.3 163.6L179.9 165.5L179.3 165.3L178.9 166.6L179.4 166.8L178.6 168.1L179.1 170.0L178.2 170.6L178.7 175.5L178.1 176.0L177.7 175.6L175.3 177.7L174.4 177.2L174.3 180.0L173.6 179.8L172.8 180.8L171.2 180.8L167.0 182.6L165.9 185.0L165.0 185.0L164.2 185.8L164.1 184.3L160.1 184.0L153.6 187.2L152.7 186.8L150.2 183.5L150.4 179.8L149.5 177.6L150.6 174.7L152.9 174.8L153.2 173.9L153.7 174.6L153.8 173.9L154.8 173.5L154.8 172.6L155.7 173.3L158.0 173.3L158.5 171.7L160.1 171.8L160.3 170.8L161.4 170.5L160.0 170.2L159.8 169.5L161.9 168.4L161.1 167.2L162.6 167.5L162.9 167.0L162.3 166.4L163.2 166.2L163.2 167.1L163.8 166.5L164.1 165.4L163.3 164.5L164.1 164.7L164.8 163.8L165.8 164.1L165.9 163.3L166.7 163.5L165.9 162.3L166.8 161.7L167.3 162.4L167.3 160.8L169.0 161.4L170.2 160.6L170.2 159.5L173.0 158.6L174.6 154.1L175.2 154.5L175.3 154.1L175.5 154.0L175.5 155.4L176.7 154.2L176.6 153.6L177.0 153.5L176.8 154.1L177.8 154.9L179.9 152.6L180.0 153.8Z" fill="#16201F"/>
              <path class="rc" d="M265.6 115.7L265.7 121.1L266.8 121.2L271.8 125.7L274.9 126.4L275.5 126.0L275.8 126.7L276.8 125.9L277.5 126.5L276.7 128.2L277.2 129.1L282.0 129.3L281.8 131.7L279.4 134.6L278.5 138.5L281.5 139.7L283.0 139.5L283.3 140.7L281.5 142.2L281.5 143.8L280.6 144.2L273.8 143.8L273.0 145.1L270.3 146.6L269.8 144.4L270.4 141.9L270.4 138.6L269.6 138.6L269.0 138.6L268.9 140.4L265.0 139.7L264.3 140.3L263.2 139.2L260.7 143.2L257.2 143.1L256.1 139.6L257.7 137.1L253.5 134.9L252.1 133.2L259.8 126.9L259.1 123.3L259.9 122.1L260.8 122.4L262.2 121.8L263.1 120.1L264.2 119.8L264.1 118.2L265.6 115.7Z"><animate attributeName="fill" values="#2F7E96;#2F7E96;#5FA83F;#5FA83F;#5FA83F;#5FA83F;#5FA83F;#5FA83F;#A8CE3A;#E6B94F;#E6B94F;#B4805A;#2F7E96;#5FA83F;#5FA83F;#5FA83F;#5FA83F;#5FA83F;#A8CE3A;#16201F;#16201F;#16201F;#16201F;#16201F;#16201F;#16201F;#2F7E96" dur="13s" repeatCount="indefinite"/></path>
              <path class="rc" d="M233.3 145.2L235.2 145.6L236.2 147.8L236.8 147.1L238.2 149.1L240.5 148.8L241.6 145.2L252.3 145.9L252.8 147.1L252.2 147.5L252.4 148.2L251.8 149.8L250.1 150.8L249.2 152.6L249.1 154.7L251.5 153.2L254.6 153.6L254.2 156.2L252.3 157.5L252.3 158.3L253.0 158.9L252.9 161.1L253.5 162.2L252.9 163.1L253.4 165.9L251.6 168.1L251.9 169.0L250.5 171.4L248.2 172.3L248.4 173.3L246.6 173.0L245.3 174.2L244.7 175.8L243.1 176.8L242.0 180.3L240.8 180.9L241.1 184.6L242.1 185.4L243.5 188.4L242.2 189.7L239.7 187.8L237.6 187.4L236.8 186.4L234.1 185.9L233.1 185.0L232.8 183.1L230.6 182.9L228.3 180.0L224.8 177.4L218.0 175.9L216.8 175.0L212.2 173.8L210.4 172.1L213.2 170.6L218.2 170.4L218.3 168.9L219.3 167.7L219.9 167.3L221.7 167.8L221.4 166.7L222.6 166.6L223.0 165.8L221.7 165.7L221.8 164.9L223.0 165.0L225.4 163.6L226.5 161.7L225.6 160.2L227.7 159.1L228.0 157.1L228.8 156.5L228.2 155.7L228.7 154.9L227.5 152.9L227.0 153.0L226.3 154.4L225.0 154.2L225.9 152.2L225.5 151.6L228.2 151.4L228.9 150.4L227.5 151.3L226.9 150.2L228.5 149.2L228.3 148.8L226.7 149.5L227.0 148.5L226.5 148.0L230.5 146.7L231.3 143.5L233.3 145.2Z"><animate attributeName="fill" values="#16201F;#16201F;#16201F;#16201F;#16201F;#16201F;#16201F;#16201F;#16201F;#16201F;#16201F;#16201F;#16201F;#16201F;#16201F;#16201F;#16201F;#16201F;#16201F;#16201F;#16201F;#2F7E96;#5FA83F;#5FA83F;#5FA83F;#A8CE3A;#16201F" dur="13s" repeatCount="indefinite"/></path>
              <path class="rc" d="M234.8 127.3L239.1 130.7L248.1 131.7L248.5 133.8L248.0 135.2L243.3 138.9L242.8 140.7L241.9 141.6L241.3 144.6L241.8 145.9L240.5 148.8L238.2 149.1L236.8 147.1L236.2 147.8L235.2 145.6L232.5 144.9L231.3 143.5L230.5 146.7L226.8 147.5L226.2 148.8L224.2 147.9L223.0 148.6L222.5 147.4L223.3 146.6L222.8 146.0L223.2 145.1L222.2 145.2L222.1 142.7L221.3 142.8L220.1 141.4L217.8 141.4L217.8 141.3L220.5 141.4L221.6 140.0L221.1 139.1L222.0 139.1L220.8 137.6L221.5 136.4L221.2 135.0L222.6 132.9L221.9 131.4L226.4 132.1L228.0 133.2L229.3 131.3L230.3 130.8L231.1 131.1L232.5 128.8L234.4 128.7L234.8 127.3Z"><animate attributeName="fill" values="#5FA83F;#5FA83F;#5FA83F;#5FA83F;#5FA83F;#5FA83F;#5FA83F;#A8CE3A;#A8CE3A;#E6B94F;#E6B94F;#5FA83F;#5FA83F;#5FA83F;#5FA83F;#A8CE3A;#E6B94F;#B4805A;#16201F;#16201F;#16201F;#16201F;#16201F;#5FA83F;#5FA83F;#5FA83F;#5FA83F" dur="13s" repeatCount="indefinite"/></path>
              <path class="rc" d="M344.6 96.4L347.9 96.9L348.6 100.8L348.0 100.8L347.7 102.6L349.7 109.6L347.7 112.8L346.9 112.4L346.6 112.8L343.3 119.3L341.4 119.8L340.6 121.4L341.1 121.6L340.9 122.6L339.5 122.8L338.4 124.2L337.7 125.4L337.5 127.3L336.4 127.0L334.8 124.5L329.9 124.4L328.2 121.6L329.0 121.4L328.5 120.1L331.3 118.9L333.2 119.4L333.4 118.8L332.5 118.4L333.9 117.1L333.3 115.9L334.6 116.0L334.7 117.5L336.1 117.2L335.3 115.8L335.5 114.4L334.1 114.3L332.5 112.6L334.1 112.5L334.1 109.4L335.3 110.3L335.8 109.8L335.9 107.9L334.5 103.8L335.0 103.4L336.2 103.8L336.5 102.1L337.6 102.0L338.0 101.1L343.8 100.6L343.2 99.5L343.6 97.2L344.6 96.4Z"><animate attributeName="fill" values="#16201F;#16201F;#5FA83F;#5FA83F;#5FA83F;#5FA83F;#5FA83F;#5FA83F;#A8CE3A;#A8CE3A;#E6B94F;#B4805A;#2F7E96;#5FA83F;#16201F;#16201F;#16201F;#16201F;#16201F;#16201F;#16201F;#16201F;#16201F;#16201F;#16201F;#16201F;#16201F" dur="13s" repeatCount="indefinite"/></path>
              <path class="rc" d="M169.4 185.7L173.5 186.2L173.9 187.9L176.5 189.4L178.0 191.8L179.5 192.1L182.1 196.7L183.1 196.7L183.3 200.8L181.4 200.0L179.2 203.2L176.5 202.0L175.4 204.3L173.7 202.3L171.4 201.4L171.0 204.9L170.0 205.1L169.1 207.1L171.1 207.8L170.2 208.8L168.3 209.1L168.8 207.2L167.4 207.6L167.4 206.7L165.5 209.0L163.0 208.8L164.9 206.6L165.0 205.3L160.9 205.6L159.9 204.2L160.1 202.9L158.6 202.1L158.7 201.1L160.4 199.6L160.1 198.7L161.3 197.7L161.3 198.5L163.6 195.5L164.0 193.8L163.1 191.6L164.3 189.9L164.1 188.7L165.6 187.9L167.4 188.1L169.4 185.7Z" fill="#16201F"/>
              <path class="rc" d="M330.2 124.5L334.8 124.5L336.4 127.0L337.4 127.4L337.7 125.4L339.5 122.8L342.5 122.8L341.8 124.4L340.0 125.5L339.4 130.7L337.2 131.1L336.9 133.4L335.2 136.2L335.2 138.3L336.0 138.7L334.9 139.4L335.8 140.1L334.9 140.5L335.7 144.2L334.9 146.8L335.9 148.0L336.3 152.3L337.3 153.2L340.0 153.6L340.2 154.9L339.5 156.5L338.0 155.4L336.9 157.0L336.0 156.1L335.3 153.9L333.7 153.5L332.9 152.3L331.2 152.4L331.8 150.0L330.5 149.4L330.4 147.9L329.5 147.3L330.1 145.5L328.8 144.8L327.0 142.3L327.3 141.3L329.5 141.6L328.0 139.7L329.5 139.6L329.6 138.8L328.4 138.3L327.5 139.3L327.8 137.8L329.3 137.5L329.9 136.3L328.0 136.6L328.7 134.6L327.9 131.5L326.9 133.1L325.8 131.1L327.9 130.7L329.5 128.7L327.5 129.6L326.0 129.0L325.7 128.3L327.8 128.3L326.4 125.0L328.0 121.6L330.2 124.5Z"><animate attributeName="fill" values="#16201F;#2F7E96;#5FA83F;#5FA83F;#5FA83F;#5FA83F;#5FA83F;#5FA83F;#A8CE3A;#A8CE3A;#E6B94F;#B4805A;#2F7E96;#5FA83F;#5FA83F;#5FA83F;#5FA83F;#A8CE3A;#A8CE3A;#E6B94F;#E6B94F;#B4805A;#16201F;#16201F;#16201F;#16201F;#16201F" dur="13s" repeatCount="indefinite"/></path>
              <path class="rc" d="M118.1 100.3L120.2 101.2L118.7 103.7L123.2 102.7L123.2 104.3L124.0 105.5L123.6 107.1L124.9 106.7L128.4 107.3L130.3 110.3L134.8 111.8L134.0 112.8L134.7 113.6L133.8 114.1L133.7 115.2L133.1 115.2L132.8 116.7L132.1 116.8L131.7 116.2L130.4 118.0L130.1 120.7L127.3 122.6L127.8 127.1L127.1 127.4L126.6 130.0L125.9 130.0L125.4 130.9L123.1 131.0L124.5 128.3L123.9 128.3L122.8 125.3L120.4 125.2L119.8 123.7L118.6 123.0L119.4 122.0L119.3 120.5L117.3 119.5L116.7 118.1L117.4 114.9L113.3 109.4L113.9 105.0L116.0 104.2L116.9 100.9L118.1 100.3Z"><animate attributeName="fill" values="#5FA83F;#5FA83F;#5FA83F;#5FA83F;#5FA83F;#5FA83F;#A8CE3A;#A8CE3A;#E6B94F;#E6B94F;#B4805A;#2F7E96;#2F7E96;#5FA83F;#5FA83F;#5FA83F;#5FA83F;#5FA83F;#5FA83F;#5FA83F;#5FA83F;#B4805A;#A8CE3A;#E6B94F;#16201F;#16201F;#5FA83F" dur="13s" repeatCount="indefinite"/></path>
              <path class="rc" d="M59.6 38.6L59.7 42.1L60.6 43.1L61.8 40.9L68.9 38.9L69.8 40.1L69.4 42.0L70.4 43.5L69.5 45.5L70.3 46.1L70.3 48.3L73.6 50.2L74.2 55.3L72.8 57.1L65.5 56.8L65.1 54.4L65.9 53.7L66.0 49.6L63.6 49.7L57.0 54.6L56.3 54.1L56.0 50.2L55.0 49.5L50.4 50.6L50.5 48.8L52.2 48.5L56.8 39.3L59.6 38.6Z"><animate attributeName="fill" values="#A8CE3A;#A8CE3A;#E6B94F;#E6B94F;#B4805A;#E6B94F;#2F7E96;#5FA83F;#5FA83F;#5FA83F;#5FA83F;#5FA83F;#5FA83F;#5FA83F;#A8CE3A;#A8CE3A;#E6B94F;#E6B94F;#B4805A;#2F7E96;#5FA83F;#5FA83F;#5FA83F;#5FA83F;#5FA83F;#5FA83F;#A8CE3A" dur="13s" repeatCount="indefinite"/></path>
              <path class="rc" d="M358.6 122.7L368.9 134.4L372.0 135.9L372.0 136.6L375.6 139.6L374.4 140.0L373.4 139.9L372.9 139.0L371.4 139.4L370.7 138.3L369.0 137.9L367.6 139.8L364.6 140.5L361.6 143.0L360.8 142.2L358.2 143.6L358.4 145.0L359.9 144.9L358.5 145.9L357.9 145.3L356.2 146.1L349.5 145.4L349.4 146.6L348.6 146.7L348.7 142.4L349.5 143.3L350.7 141.7L350.9 139.4L349.4 138.1L349.5 137.4L350.0 137.2L351.4 132.6L352.3 132.2L351.4 129.7L352.1 125.5L354.4 126.0L356.0 125.6L358.6 122.7Z"><animate attributeName="fill" values="#2F7E96;#5FA83F;#5FA83F;#5FA83F;#5FA83F;#5FA83F;#5FA83F;#A8CE3A;#A8CE3A;#E6B94F;#E6B94F;#2F7E96;#5FA83F;#5FA83F;#5FA83F;#5FA83F;#A8CE3A;#E6B94F;#B4805A;#E6B94F;#16201F;#16201F;#16201F;#16201F;#16201F;#16201F;#2F7E96" dur="13s" repeatCount="indefinite"/></path>
              <path class="rc" d="M157.0 139.9L160.1 145.5L162.2 144.9L161.8 147.3L161.1 147.9L161.3 149.2L164.6 153.0L169.2 153.6L170.5 152.3L171.5 148.4L176.3 147.9L176.7 148.2L176.3 152.2L176.5 153.0L177.1 152.9L176.7 154.2L175.5 155.4L175.5 154.0L175.2 154.5L174.6 154.1L173.0 158.6L170.2 159.5L170.2 160.6L169.0 161.4L167.3 160.8L167.3 162.4L166.8 161.7L165.9 162.3L166.7 163.5L165.9 163.3L165.8 164.1L164.8 163.8L164.1 164.7L163.3 164.5L164.1 165.4L163.9 166.3L163.2 167.1L163.2 166.2L162.3 166.4L162.9 167.0L162.6 167.5L161.1 167.2L161.9 168.4L160.8 168.5L159.8 169.5L160.0 170.2L161.4 170.5L160.3 170.8L160.1 171.8L158.4 171.8L158.7 172.3L158.0 173.3L155.7 173.3L154.8 172.6L154.8 173.5L153.8 173.9L153.7 174.6L153.2 173.9L153.0 174.8L150.6 174.7L149.3 175.6L144.8 174.4L145.1 174.0L144.5 173.6L142.1 173.3L142.1 172.7L140.6 172.3L140.0 169.4L140.8 167.6L140.1 167.0L139.6 164.3L142.3 162.0L143.6 162.6L145.3 161.6L147.8 161.9L150.2 160.5L151.5 164.1L151.2 164.5L152.1 164.6L152.3 163.5L153.8 163.9L154.1 163.5L153.4 161.6L152.1 160.7L153.6 157.6L157.1 159.2L155.7 154.5L154.3 153.9L154.2 153.0L152.7 151.9L151.3 151.8L150.5 150.9L150.5 148.5L151.3 147.0L150.7 144.0L153.2 143.7L157.0 139.9Z" fill="#16201F"/>
              <path class="rc" d="M259.7 101.8L269.7 104.8L273.2 105.1L273.5 104.6L273.8 106.0L275.2 106.9L282.7 107.4L281.8 107.9L282.3 108.7L284.7 108.6L285.5 106.3L286.4 105.6L290.1 108.4L289.7 109.1L290.6 110.0L289.9 110.1L288.6 114.6L285.8 118.1L284.6 121.0L283.7 121.0L282.8 122.5L283.2 125.5L282.1 127.5L282.5 128.3L282.0 129.3L277.2 129.1L276.7 128.2L277.5 126.5L276.8 125.9L275.8 126.7L275.5 126.0L274.9 126.4L271.8 125.7L266.8 121.2L265.7 121.1L265.8 114.6L264.8 114.9L264.3 112.6L263.6 112.6L262.7 111.4L262.6 110.8L263.4 110.7L262.8 109.8L262.1 110.2L260.5 109.7L256.9 110.6L256.8 108.0L259.3 106.1L259.7 101.8Z"><animate attributeName="fill" values="#16201F;#2F7E96;#5FA83F;#5FA83F;#5FA83F;#5FA83F;#5FA83F;#5FA83F;#A8CE3A;#A8CE3A;#E6B94F;#E6B94F;#B4805A;#16201F;#16201F;#5FA83F;#5FA83F;#5FA83F;#5FA83F;#5FA83F;#16201F;#16201F;#16201F;#16201F;#16201F;#16201F;#16201F" dur="13s" repeatCount="indefinite"/></path>
              <path class="rc" d="M369.3 137.9L371.1 138.5L371.4 139.4L372.9 139.0L373.4 139.9L374.4 140.0L375.6 139.6L380.2 142.7L378.7 147.8L375.4 149.0L375.8 150.4L372.9 151.8L369.6 150.5L369.8 149.8L368.6 149.0L365.2 150.0L362.5 149.5L363.2 146.1L360.2 147.2L358.9 147.4L358.8 146.9L358.6 145.9L359.9 144.9L358.4 145.0L358.2 143.6L360.8 142.2L361.6 143.0L364.6 140.5L367.6 139.8L369.3 137.9Z"><animate attributeName="fill" values="#16201F;#5FA83F;#5FA83F;#5FA83F;#5FA83F;#5FA83F;#5FA83F;#5FA83F;#5FA83F;#A8CE3A;#E6B94F;#E6B94F;#E6B94F;#5FA83F;#5FA83F;#5FA83F;#5FA83F;#5FA83F;#5FA83F;#5FA83F;#16201F;#16201F;#16201F;#16201F;#16201F;#16201F;#16201F" dur="13s" repeatCount="indefinite"/></path>
              <path class="rc" d="M59.3 78.6L63.3 80.2L63.0 80.5L65.9 84.2L64.8 86.9L66.5 87.4L66.5 88.3L68.0 89.0L71.2 89.5L70.9 95.2L70.2 96.8L70.6 99.4L67.5 96.8L66.3 99.0L66.4 100.7L68.1 102.9L66.5 105.7L65.6 104.9L63.2 105.4L64.5 103.1L64.1 102.4L60.0 104.9L57.7 104.4L57.8 102.6L59.0 102.0L60.4 102.9L61.3 102.4L61.0 99.2L60.0 97.9L58.3 98.0L59.4 96.5L57.5 96.3L58.0 94.5L55.3 93.2L55.4 92.6L57.9 90.8L57.2 88.5L58.3 87.4L57.5 83.9L56.0 81.5L57.4 81.9L59.5 80.7L59.9 79.9L58.9 79.2L59.3 78.6Z" fill="#16201F"/>
              <path class="rc" d="M72.1 86.6L73.4 88.5L73.9 88.1L75.2 89.1L76.4 89.1L78.1 91.5L78.4 93.2L78.6 98.0L77.5 99.5L75.8 99.0L76.2 98.1L74.8 98.3L74.8 97.5L73.2 98.6L73.4 101.8L76.3 102.8L77.8 104.3L77.0 105.5L75.5 105.6L75.9 106.7L77.0 106.6L76.8 108.6L78.2 108.9L77.6 111.1L76.4 112.1L73.9 109.4L70.8 109.3L70.9 108.2L69.8 107.4L69.7 106.4L68.1 107.0L66.5 105.7L68.1 102.9L66.4 100.7L66.3 99.0L67.5 96.8L70.5 99.4L70.2 96.8L70.9 95.2L71.2 89.5L70.0 89.2L70.3 87.2L72.1 86.6Z" fill="#16201F"/>
              <path class="rc" d="M183.2 194.2L186.6 197.9L188.6 196.9L191.0 196.7L196.3 198.4L200.6 197.4L201.7 197.6L200.7 198.8L202.0 199.0L202.0 199.6L199.5 199.7L200.1 200.5L201.5 200.8L201.2 201.3L199.3 202.4L197.5 202.3L193.7 205.5L191.4 205.1L190.6 206.5L190.3 205.8L189.4 206.3L188.8 205.5L187.8 206.0L187.3 205.0L186.3 206.0L183.0 207.1L182.9 209.5L179.9 211.2L180.5 212.2L180.3 213.3L179.0 214.1L178.0 216.4L176.0 217.8L175.1 216.2L174.1 216.2L173.6 213.7L174.8 211.5L174.4 210.6L174.9 209.6L177.0 208.1L178.1 205.8L176.2 205.6L172.5 206.7L170.8 207.9L169.1 207.1L170.0 205.1L171.0 204.9L171.4 201.4L173.7 202.3L175.4 204.3L176.5 202.0L179.2 203.2L181.4 200.0L183.3 200.9L183.1 196.7L182.1 196.7L180.7 194.6L183.2 194.2Z" fill="#16201F"/>
              <path class="rc" d="M357.9 145.3L358.5 145.9L358.9 145.3L358.9 147.4L363.2 146.1L362.5 149.5L365.2 150.0L368.6 149.0L369.8 149.8L369.5 150.5L372.9 152.0L368.8 154.4L366.9 154.4L366.5 155.7L364.1 158.1L360.7 159.1L356.5 162.1L358.3 157.2L356.8 156.5L355.2 153.7L352.8 153.6L350.3 154.5L349.5 152.6L350.7 150.1L350.4 145.5L356.2 146.1L357.9 145.3Z"><animate attributeName="fill" values="#2F7E96;#2F7E96;#5FA83F;#5FA83F;#5FA83F;#5FA83F;#5FA83F;#5FA83F;#A8CE3A;#A8CE3A;#E6B94F;#B4805A;#B4805A;#5FA83F;#5FA83F;#5FA83F;#5FA83F;#5FA83F;#A8CE3A;#E6B94F;#A8CE3A;#E6B94F;#16201F;#16201F;#16201F;#16201F;#2F7E96" dur="13s" repeatCount="indefinite"/></path>
              <path class="rc" d="M341.9 149.2L350.6 148.8L350.8 149.8L349.5 152.6L349.9 154.1L350.5 154.5L352.8 153.6L355.2 153.7L356.8 156.5L358.4 157.4L356.2 162.1L354.5 161.7L353.6 162.2L351.8 165.1L352.2 165.2L352.3 165.2L349.9 164.9L349.0 165.5L348.6 167.0L347.3 167.4L343.2 166.8L342.3 163.2L343.1 162.6L343.1 159.9L342.1 157.5L341.2 157.6L340.5 159.0L337.9 159.1L336.6 158.2L335.2 159.3L334.0 159.0L335.5 157.4L335.8 155.9L336.9 157.0L338.0 155.4L339.7 156.4L340.2 154.9L339.7 152.2L340.9 151.3L341.9 149.2Z"><animate attributeName="fill" values="#2F7E96;#2F7E96;#5FA83F;#5FA83F;#5FA83F;#5FA83F;#5FA83F;#5FA83F;#A8CE3A;#E6B94F;#E6B94F;#B4805A;#2F7E96;#5FA83F;#5FA83F;#5FA83F;#5FA83F;#5FA83F;#A8CE3A;#E6B94F;#B4805A;#E6B94F;#B4805A;#16201F;#16201F;#16201F;#2F7E96" dur="13s" repeatCount="indefinite"/></path>
              <path class="rc" d="M85.8 105.8L92.0 106.3L92.6 108.5L90.4 109.3L89.2 111.4L89.0 113.8L87.8 113.8L87.8 114.7L88.4 115.0L87.8 117.5L88.8 119.2L87.2 123.5L88.0 123.9L88.5 126.6L91.2 130.3L90.5 132.7L91.1 133.5L92.8 134.0L94.7 133.2L96.2 134.0L96.6 135.5L97.6 135.3L96.9 136.5L97.4 137.6L100.0 140.1L100.1 141.3L99.3 141.9L86.4 144.4L84.9 144.1L85.4 143.3L84.0 143.3L82.7 141.9L83.0 140.7L84.5 140.6L85.2 139.4L83.8 130.5L81.9 129.0L80.6 129.2L80.0 127.8L80.7 126.6L81.9 126.0L84.5 126.1L84.3 124.9L82.1 124.3L82.3 122.2L81.7 121.4L79.7 121.8L78.6 122.6L77.4 122.3L76.4 119.1L74.7 118.4L76.5 117.9L75.9 116.8L72.6 115.0L71.0 116.2L70.3 114.9L71.4 112.7L70.8 109.3L73.9 109.4L76.4 112.1L77.6 111.1L78.2 108.9L81.5 109.6L83.1 108.9L85.9 109.0L85.8 105.8Z" fill="#16201F"/>
              <path class="rc" d="M110.0 116.6L116.9 115.7L116.7 118.1L117.3 119.5L119.3 120.5L119.4 122.0L118.6 123.0L119.8 123.7L120.4 125.2L122.8 125.3L123.9 128.3L124.5 128.4L123.1 131.0L120.9 131.7L118.0 128.2L115.2 130.0L114.7 131.3L112.2 133.1L111.8 134.4L110.4 134.6L107.3 133.2L107.2 131.4L106.6 131.1L108.7 129.9L109.6 128.4L107.7 128.3L107.6 127.5L106.5 126.9L108.1 124.5L105.4 122.6L105.6 121.3L109.3 120.5L110.3 118.4L110.0 116.6Z" fill="#16201F"/>
              <path class="rc" d="M389.0 146.9L391.8 147.5L392.2 148.4L393.0 156.9L389.4 157.3L387.7 158.4L387.7 159.9L385.2 160.2L384.4 161.6L383.4 161.6L382.9 163.8L381.1 163.9L380.2 164.7L380.2 167.1L379.2 168.3L378.2 167.6L377.8 168.3L376.1 168.1L375.6 169.7L374.7 169.8L374.7 170.6L373.9 171.2L372.1 170.8L371.4 171.8L370.5 172.0L369.0 171.4L369.1 162.5L367.4 159.6L365.9 158.4L364.1 158.0L366.5 155.7L366.9 154.4L368.8 154.4L374.8 150.6L375.2 151.0L375.8 150.4L375.4 149.0L378.7 147.8L380.2 142.7L389.0 146.9Z"><animate attributeName="fill" values="#16201F;#16201F;#2F7E96;#5FA83F;#5FA83F;#5FA83F;#5FA83F;#5FA83F;#5FA83F;#A8CE3A;#E6B94F;#B4805A;#E6B94F;#E6B94F;#16201F;#16201F;#2F7E96;#5FA83F;#5FA83F;#5FA83F;#5FA83F;#5FA83F;#A8CE3A;#B4805A;#E6B94F;#E6B94F;#16201F" dur="13s" repeatCount="indefinite"/></path>
              <path class="rc" d="M253.1 134.3L257.8 137.3L256.1 139.6L257.2 143.1L260.7 143.2L263.2 139.2L264.3 140.3L265.0 139.7L268.9 140.4L269.0 138.6L270.4 138.6L270.4 141.9L269.8 144.4L270.3 146.6L273.0 145.1L273.8 143.8L280.6 144.3L278.1 145.5L278.9 148.9L277.9 153.0L275.3 155.5L274.4 158.8L271.0 161.4L270.6 168.8L256.8 169.7L255.9 170.3L257.4 171.0L257.4 172.3L256.4 173.6L254.3 173.7L248.4 173.3L248.2 172.5L250.5 171.4L252.0 168.7L251.6 168.1L253.4 165.9L252.9 163.1L253.5 162.0L252.6 159.8L253.0 158.8L252.3 157.8L254.2 156.2L254.6 153.6L251.5 153.2L249.1 154.7L249.2 152.6L250.1 150.8L251.8 149.8L252.4 148.2L252.2 147.5L252.8 147.1L252.4 145.9L244.4 145.7L241.5 145.3L241.3 144.6L241.9 141.7L242.8 140.7L243.3 138.9L248.0 135.2L248.5 133.8L248.1 131.7L251.0 132.1L253.1 134.3Z"><animate attributeName="fill" values="#5FA83F;#5FA83F;#5FA83F;#5FA83F;#5FA83F;#5FA83F;#A8CE3A;#E6B94F;#16201F;#16201F;#16201F;#16201F;#16201F;#16201F;#16201F;#16201F;#16201F;#16201F;#16201F;#16201F;#16201F;#16201F;#16201F;#16201F;#16201F;#5FA83F;#5FA83F" dur="13s" repeatCount="indefinite"/></path>
              <path class="rc" d="M75.6 57.1L80.2 57.5L81.8 58.9L81.9 60.0L85.9 61.3L86.3 66.4L85.7 70.0L83.1 74.1L83.1 76.2L76.6 76.8L76.1 76.1L70.6 74.8L71.5 70.5L70.5 69.4L70.4 67.8L69.1 67.0L64.8 66.8L65.2 61.3L66.8 61.5L68.8 60.5L69.5 57.1L72.8 57.1L74.2 55.3L75.7 55.9L75.6 57.1Z"><animate attributeName="fill" values="#E6B94F;#E6B94F;#5FA83F;#5FA83F;#5FA83F;#5FA83F;#5FA83F;#5FA83F;#5FA83F;#5FA83F;#5FA83F;#A8CE3A;#A8CE3A;#E6B94F;#B4805A;#5FA83F;#5FA83F;#5FA83F;#5FA83F;#5FA83F;#5FA83F;#5FA83F;#5FA83F;#5FA83F;#A8CE3A;#E6B94F;#E6B94F" dur="13s" repeatCount="indefinite"/></path>
              <path class="rc" d="M202.4 69.5L210.2 70.2L209.7 72.3L212.5 77.8L211.7 78.2L211.9 80.4L208.0 81.5L209.2 85.2L208.8 87.0L207.7 87.7L207.9 90.5L204.1 91.7L203.7 92.6L203.1 92.3L202.7 90.9L199.7 91.4L198.9 91.0L197.2 91.7L195.6 90.3L192.9 92.3L191.9 91.3L189.1 91.3L187.9 90.7L186.8 88.6L186.2 85.5L185.5 85.8L184.6 85.0L183.8 82.8L182.4 81.5L184.1 80.5L185.8 78.2L186.4 78.2L186.8 76.8L195.0 74.0L197.2 74.2L198.3 73.5L197.1 73.5L198.2 72.9L198.1 72.3L200.1 72.1L200.2 70.3L202.4 69.5Z"><animate attributeName="fill" values="#16201F;#16201F;#2F7E96;#5FA83F;#5FA83F;#5FA83F;#5FA83F;#5FA83F;#5FA83F;#A8CE3A;#E6B94F;#E6B94F;#E6B94F;#E6B94F;#16201F;#16201F;#5FA83F;#5FA83F;#5FA83F;#5FA83F;#5FA83F;#5FA83F;#5FA83F;#A8CE3A;#E6B94F;#E6B94F;#16201F" dur="13s" repeatCount="indefinite"/></path>
              <path class="rc" d="M308.2 128.9L308.6 128.3L310.5 128.8L310.4 130.7L309.5 130.6L310.0 131.9L314.2 129.3L315.4 129.5L316.5 128.6L317.6 129.2L317.4 131.0L318.3 131.7L318.7 132.9L318.2 135.6L319.4 139.6L317.6 141.0L317.9 142.3L316.6 142.3L317.6 143.6L316.4 144.3L316.9 145.4L313.4 146.5L313.0 149.8L311.7 151.2L311.8 151.9L310.2 152.4L309.1 154.5L309.7 155.2L309.5 160.4L309.0 162.2L308.2 162.7L308.3 166.1L307.6 167.2L305.3 166.2L304.7 164.7L305.2 161.2L306.5 158.6L305.4 155.4L304.7 155.1L304.3 152.4L305.5 151.1L305.6 146.3L304.8 145.6L305.4 145.2L304.0 140.8L302.0 141.1L302.5 134.1L302.8 132.8L303.6 132.7L303.6 131.9L302.6 132.0L302.3 131.3L303.1 130.7L300.6 129.6L304.2 128.8L306.4 129.2L307.5 128.2L308.2 128.9Z"><animate attributeName="fill" values="#16201F;#2F7E96;#5FA83F;#5FA83F;#5FA83F;#5FA83F;#5FA83F;#5FA83F;#5FA83F;#A8CE3A;#E6B94F;#E6B94F;#E6B94F;#B4805A;#2F7E96;#5FA83F;#5FA83F;#5FA83F;#5FA83F;#5FA83F;#A8CE3A;#E6B94F;#E6B94F;#B4805A;#16201F;#16201F;#16201F" dur="13s" repeatCount="indefinite"/></path>
              <path class="rc" d="M114.8 81.9L116.9 82.7L117.0 86.1L115.8 91.8L114.0 94.2L114.1 95.2L113.0 97.2L108.0 97.4L107.4 99.2L105.5 99.8L105.9 101.3L105.3 103.2L103.4 106.2L103.9 107.7L102.9 108.8L97.9 109.6L98.1 107.6L96.5 107.4L95.6 107.5L95.2 108.6L92.6 108.5L91.7 106.2L94.2 101.1L95.8 100.2L100.5 100.7L102.1 92.9L102.7 92.7L104.0 88.0L104.8 87.9L105.4 83.0L109.5 83.0L109.7 82.4L112.2 82.6L114.8 81.9Z"><animate attributeName="fill" values="#E6B94F;#E6B94F;#B4805A;#5FA83F;#2F7E96;#5FA83F;#5FA83F;#5FA83F;#5FA83F;#5FA83F;#5FA83F;#A8CE3A;#E6B94F;#E6B94F;#E6B94F;#5FA83F;#5FA83F;#5FA83F;#5FA83F;#5FA83F;#5FA83F;#5FA83F;#5FA83F;#5FA83F;#A8CE3A;#E6B94F;#E6B94F" dur="13s" repeatCount="indefinite"/></path>
              <path class="rc" d="M329.0 120.6L326.4 125.0L327.8 128.3L326.1 128.0L325.7 128.6L327.5 129.6L329.5 128.7L327.9 130.7L325.8 131.1L326.9 133.1L327.9 131.5L328.7 134.6L328.0 136.6L327.3 136.3L326.9 134.2L325.8 133.2L322.7 133.2L321.7 131.3L320.0 132.1L319.7 133.0L318.7 132.9L318.3 131.7L317.4 131.0L317.6 129.2L316.9 128.7L315.4 129.5L314.2 129.3L309.8 131.9L309.5 130.6L310.4 130.6L310.5 128.7L308.5 128.3L308.2 128.9L307.5 128.2L306.2 129.2L305.6 128.3L306.1 127.1L305.3 127.7L304.1 126.5L304.4 125.6L303.8 125.5L305.8 124.7L306.5 125.1L306.8 124.2L307.9 124.4L308.7 123.0L308.4 121.2L305.4 117.6L306.4 117.1L306.6 118.1L307.9 118.2L308.3 119.3L311.9 119.3L312.0 120.7L314.2 121.4L316.8 123.9L318.7 123.4L319.0 124.2L320.4 121.5L321.7 122.3L323.1 122.0L323.1 120.9L324.8 121.2L325.3 119.0L326.6 117.7L326.6 115.9L327.6 115.9L327.7 117.4L328.6 117.9L327.3 119.7L329.0 120.6Z"><animate attributeName="fill" values="#16201F;#16201F;#2F7E96;#5FA83F;#5FA83F;#5FA83F;#5FA83F;#5FA83F;#5FA83F;#A8CE3A;#E6B94F;#E6B94F;#E6B94F;#B4805A;#16201F;#2F7E96;#5FA83F;#5FA83F;#5FA83F;#5FA83F;#5FA83F;#A8CE3A;#E6B94F;#B4805A;#16201F;#16201F;#16201F" dur="13s" repeatCount="indefinite"/></path>
              <path class="rc" d="M286.8 106.1L289.8 106.6L291.4 108.4L292.9 108.3L294.7 109.1L298.9 108.5L299.5 109.2L302.2 107.3L304.3 115.7L304.8 115.7L305.4 117.7L308.4 121.2L308.7 123.0L307.9 124.4L306.8 124.2L306.4 125.2L305.8 124.7L303.8 125.4L305.3 127.7L306.1 127.1L305.6 128.3L306.1 129.0L304.2 128.8L300.6 129.6L303.1 130.7L302.3 131.3L302.6 132.0L303.6 131.9L303.6 132.7L302.8 132.8L302.5 134.1L302.6 137.8L295.9 138.0L294.3 139.6L292.3 138.8L289.3 138.5L290.1 136.3L286.7 134.7L284.9 136.1L284.1 134.6L280.4 133.9L281.8 131.7L282.5 128.3L282.1 127.5L283.2 125.6L282.8 122.5L283.7 121.0L284.6 121.0L285.8 118.1L287.5 116.5L289.5 112.7L289.1 112.2L289.9 110.1L290.6 110.0L289.7 109.1L290.0 108.3L286.8 106.1Z"><animate attributeName="fill" values="#16201F;#2F7E96;#5FA83F;#5FA83F;#5FA83F;#5FA83F;#5FA83F;#5FA83F;#A8CE3A;#A8CE3A;#E6B94F;#E6B94F;#16201F;#16201F;#16201F;#16201F;#16201F;#16201F;#16201F;#16201F;#16201F;#16201F;#16201F;#16201F;#16201F;#16201F;#16201F" dur="13s" repeatCount="indefinite"/></path>
              <path class="rc" d="M85.2 89.8L84.5 100.2L86.6 101.6L86.3 100.9L88.1 100.4L90.2 101.7L94.1 100.7L93.1 103.7L91.7 106.2L88.6 105.6L85.8 105.8L85.9 109.0L83.1 108.9L81.5 109.6L76.8 108.6L77.0 106.6L75.9 106.7L75.5 105.6L77.0 105.5L77.8 104.3L76.3 102.8L73.4 101.8L73.2 98.6L74.8 97.5L74.8 98.3L76.2 98.1L75.8 99.0L77.5 99.5L78.6 98.3L78.4 93.2L77.3 90.5L79.1 90.5L79.1 90.1L83.9 90.9L85.2 89.8Z"><animate attributeName="fill" values="#5FA83F;#5FA83F;#5FA83F;#5FA83F;#5FA83F;#A8CE3A;#E6B94F;#E6B94F;#5FA83F;#16201F;#16201F;#5FA83F;#5FA83F;#5FA83F;#5FA83F;#5FA83F;#5FA83F;#5FA83F;#A8CE3A;#E6B94F;#16201F;#16201F;#16201F;#16201F;#16201F;#16201F;#5FA83F" dur="13s" repeatCount="indefinite"/></path>
              <path class="rc" d="M141.6 122.1L143.7 123.3L145.8 123.1L154.0 126.7L154.7 124.2L155.2 124.9L155.6 124.6L155.8 123.2L158.7 122.2L157.8 123.1L158.9 127.6L160.6 130.7L159.8 131.7L160.2 132.8L159.6 134.2L154.2 134.2L152.5 135.4L151.3 135.2L151.1 136.1L150.9 135.2L150.3 135.2L149.0 136.9L147.0 136.7L145.6 137.6L145.5 139.1L144.8 139.0L144.5 140.1L145.4 140.6L144.9 141.1L135.8 141.3L135.6 138.5L129.4 138.6L127.7 137.8L126.8 138.1L126.2 137.2L125.4 137.1L124.2 134.7L124.4 132.9L125.2 132.5L124.9 131.2L125.9 130.0L128.0 130.5L130.7 128.9L131.0 127.7L132.1 128.2L131.4 126.6L131.8 125.9L132.3 126.4L134.9 126.3L136.1 127.0L136.6 128.2L137.8 126.9L137.2 125.7L137.5 123.8L141.6 122.1Z"><animate attributeName="fill" values="#5FA83F;#5FA83F;#5FA83F;#5FA83F;#5FA83F;#5FA83F;#A8CE3A;#E6B94F;#E6B94F;#B4805A;#16201F;#16201F;#5FA83F;#5FA83F;#5FA83F;#5FA83F;#5FA83F;#16201F;#16201F;#16201F;#16201F;#16201F;#2F7E96;#5FA83F;#5FA83F;#5FA83F;#5FA83F" dur="13s" repeatCount="indefinite"/></path>
              <path class="rc" d="M197.2 132.1L197.4 133.0L200.0 134.3L201.0 133.7L201.6 134.0L202.3 137.1L201.8 138.2L203.8 138.5L204.6 139.6L203.1 141.0L204.0 141.1L204.0 142.6L203.4 143.2L203.9 146.2L201.2 150.0L200.5 150.2L199.9 152.8L205.0 154.7L204.3 156.3L204.5 158.5L204.0 160.4L200.8 161.3L201.6 161.8L200.5 162.1L199.5 162.2L199.7 161.6L197.2 160.7L193.7 160.9L192.2 160.2L192.6 159.0L190.7 158.6L190.0 158.5L188.6 159.8L186.6 159.8L185.8 156.6L186.1 155.8L188.9 155.6L192.5 156.5L192.5 155.3L193.8 154.0L193.2 151.5L193.8 151.6L195.3 150.0L197.9 149.3L199.3 146.3L199.8 143.1L199.3 142.5L192.9 141.0L192.3 139.7L191.8 139.6L191.6 140.5L190.8 140.4L190.9 139.6L189.7 139.5L189.6 138.5L188.7 137.8L186.1 137.0L186.4 135.9L191.6 132.8L193.2 134.2L197.2 132.1Z"><animate attributeName="fill" values="#16201F;#5FA83F;#5FA83F;#5FA83F;#5FA83F;#5FA83F;#A8CE3A;#E6B94F;#16201F;#16201F;#16201F;#16201F;#16201F;#16201F;#16201F;#16201F;#16201F;#16201F;#16201F;#16201F;#16201F;#16201F;#16201F;#5FA83F;#5FA83F;#5FA83F;#16201F" dur="13s" repeatCount="indefinite"/></path>
              <path class="rc" d="M184.3 134.6L186.6 135.5L186.1 137.0L188.7 137.8L189.6 138.5L189.7 139.5L190.9 139.6L190.8 140.4L191.6 140.5L191.8 139.6L192.3 139.7L192.9 141.0L199.3 142.5L199.8 143.1L199.7 145.0L197.9 149.3L195.3 150.0L193.8 151.6L193.2 151.5L193.8 154.0L192.5 155.3L192.5 156.5L188.9 155.6L186.0 155.8L186.5 160.8L184.4 161.5L184.1 163.2L181.9 163.6L179.9 162.5L180.2 161.0L179.3 160.5L180.3 160.0L179.9 158.9L180.8 157.3L179.8 157.3L179.5 156.6L180.4 156.1L179.8 154.8L180.7 153.9L180.0 153.9L179.9 152.4L181.1 151.4L181.1 150.5L183.6 148.6L183.7 145.1L183.1 142.8L182.3 142.9L181.8 141.0L183.0 140.6L182.6 139.9L184.0 137.9L184.3 134.6Z" fill="#16201F"/>
              <path class="rc" d="M10.7 4.0L21.8 14.6L25.9 16.2L29.7 16.9L29.7 19.2L27.5 21.4L26.7 23.9L27.3 27.4L26.3 29.4L26.8 30.5L25.5 32.7L25.1 35.8L22.7 38.8L21.9 35.1L20.3 36.8L19.2 36.3L19.8 34.7L20.9 34.7L20.8 33.1L18.2 34.4L17.6 33.5L18.5 32.5L16.9 32.4L16.2 30.5L14.7 30.2L14.2 27.6L12.5 27.6L11.0 26.6L9.5 27.2L9.8 25.8L11.6 24.2L9.5 23.7L9.0 21.5L7.1 20.6L8.1 18.7L7.0 17.5L7.8 16.5L7.1 16.0L8.5 15.5L7.9 15.2L8.1 14.7L7.3 14.5L8.5 13.7L8.1 13.5L8.8 12.7L8.4 11.6L10.4 9.7L9.5 8.8L10.7 4.0Z"><animate attributeName="fill" values="#16201F;#16201F;#2F7E96;#5FA83F;#5FA83F;#5FA83F;#5FA83F;#5FA83F;#5FA83F;#A8CE3A;#E6B94F;#E6B94F;#E6B94F;#16201F;#16201F;#16201F;#16201F;#16201F;#16201F;#16201F;#16201F;#16201F;#16201F;#16201F;#16201F;#16201F;#16201F" dur="13s" repeatCount="indefinite"/></path>
              <path class="rc" d="M195.6 90.3L197.2 91.7L198.9 91.0L199.7 91.4L202.7 90.9L203.1 92.3L203.7 92.6L204.1 91.7L207.9 90.5L210.7 90.9L210.9 92.3L205.4 94.9L205.6 95.4L207.7 95.9L208.3 97.4L209.6 96.8L209.5 98.5L211.4 99.7L208.6 101.6L208.4 102.5L209.7 103.8L209.1 104.7L210.7 104.7L210.9 105.6L210.0 105.7L210.1 106.2L206.9 105.6L203.7 103.7L202.5 103.7L201.3 102.6L198.4 102.9L198.4 101.9L197.3 102.1L196.7 100.2L198.5 98.2L197.3 98.2L197.2 96.5L196.6 96.7L192.8 92.9L195.6 90.3Z"><animate attributeName="fill" values="#B4805A;#2F7E96;#5FA83F;#5FA83F;#5FA83F;#5FA83F;#5FA83F;#5FA83F;#5FA83F;#A8CE3A;#E6B94F;#E6B94F;#E6B94F;#B4805A;#16201F;#2F7E96;#5FA83F;#5FA83F;#5FA83F;#5FA83F;#5FA83F;#5FA83F;#A8CE3A;#A8CE3A;#E6B94F;#E6B94F;#B4805A" dur="13s" repeatCount="indefinite"/></path>
              <path class="rc" d="M44.2 128.3L45.5 129.1L47.2 128.9L48.1 130.1L52.1 129.5L52.3 128.8L54.6 129.9L57.9 129.2L58.6 131.0L59.3 130.7L60.9 131.9L64.2 131.5L64.1 132.4L65.5 133.5L66.8 137.0L65.4 138.1L64.4 140.3L63.3 139.8L57.5 141.6L55.9 141.3L54.4 142.6L51.9 142.3L50.1 141.3L50.1 142.9L48.9 143.5L50.1 144.3L50.0 145.3L49.1 145.7L49.5 146.1L49.0 147.0L47.9 147.4L48.1 148.5L47.1 149.8L45.1 149.7L44.4 150.6L43.7 154.7L40.6 156.3L39.9 154.4L38.4 157.1L34.8 156.5L33.7 158.0L34.6 158.5L33.9 160.2L35.7 162.3L33.9 165.0L36.8 169.0L35.2 170.6L34.9 169.0L34.0 168.7L33.5 167.4L32.0 166.3L31.5 161.4L30.9 161.3L31.1 160.4L28.8 156.9L29.1 155.7L28.4 155.6L28.2 153.1L28.8 151.9L29.8 151.7L29.7 150.6L30.9 150.1L30.1 147.4L32.6 146.7L32.7 145.9L32.0 145.7L33.1 145.6L32.9 144.1L33.9 143.9L33.5 145.1L34.6 144.7L34.9 143.1L36.5 143.0L36.7 142.2L38.0 142.3L40.1 144.3L41.8 143.1L42.2 142.4L41.5 141.2L39.1 139.8L39.8 139.2L40.6 140.0L40.8 139.2L38.2 135.7L39.5 135.3L38.8 133.2L36.7 132.2L38.6 132.3L39.1 131.8L38.3 129.7L41.0 130.6L41.0 128.6L43.3 128.3L43.5 126.7L44.2 128.3Z" fill="#16201F"/>
              <path class="rc" d="M313.7 84.5L317.8 85.9L325.8 85.8L334.9 87.4L335.3 89.1L337.2 90.1L336.7 91.1L339.3 92.9L340.6 88.5L340.1 87.0L342.6 85.5L343.6 88.6L345.1 89.3L345.7 88.3L348.1 97.0L343.9 96.6L343.2 99.5L343.8 100.6L338.0 101.1L337.6 102.0L336.5 102.1L336.3 103.3L335.0 102.5L335.2 101.6L332.5 100.0L325.9 99.6L325.9 100.1L321.9 99.3L320.2 97.1L320.2 96.3L315.8 93.5L315.2 90.7L312.9 89.8L312.2 86.8L313.0 85.5L312.8 84.7L313.7 84.5Z" fill="#16201F"/>
              <path class="rc" d="M138.3 105.1L143.5 104.9L148.1 106.4L148.7 112.0L152.3 110.1L158.3 110.3L159.1 113.7L155.8 114.2L159.0 116.9L159.5 115.8L161.0 114.8L160.9 114.1L162.7 114.3L165.0 113.5L165.0 114.5L166.5 113.7L167.0 114.3L169.3 114.0L169.2 114.8L172.4 115.0L173.8 116.4L173.0 118.9L173.4 121.8L169.0 121.6L168.3 120.7L166.8 120.3L166.2 122.7L165.0 123.0L164.2 124.4L162.7 124.6L162.0 126.6L160.7 126.0L158.7 126.0L157.8 123.1L158.7 122.2L155.8 123.2L155.6 124.6L155.2 124.9L154.7 124.2L154.0 126.7L145.8 123.1L143.7 123.3L141.4 122.1L137.5 123.8L137.2 125.7L137.8 126.9L136.6 128.2L136.1 127.0L134.9 126.3L132.3 126.4L131.8 125.9L131.4 126.6L132.1 128.2L131.0 127.7L130.7 128.9L128.0 130.5L126.3 130.1L127.1 127.4L127.8 127.0L127.3 122.6L130.1 120.6L130.2 118.5L131.5 116.3L132.7 116.7L133.1 115.1L133.7 115.1L133.8 114.2L134.7 113.5L134.0 112.8L136.0 110.4L136.1 109.4L135.5 109.9L135.3 109.3L136.6 108.3L136.1 107.9L137.5 107.1L138.3 105.1Z"><animate attributeName="fill" values="#5FA83F;#5FA83F;#5FA83F;#5FA83F;#5FA83F;#5FA83F;#A8CE3A;#E6B94F;#E6B94F;#E6B94F;#E6B94F;#2F7E96;#2F7E96;#5FA83F;#5FA83F;#5FA83F;#5FA83F;#5FA83F;#A8CE3A;#E6B94F;#E6B94F;#E6B94F;#B4805A;#16201F;#16201F;#16201F;#5FA83F" dur="13s" repeatCount="indefinite"/></path>
              <path class="rc" d="M244.5 92.9L250.9 96.1L256.6 100.5L259.3 101.6L259.6 103.1L259.3 106.1L256.8 108.1L256.9 111.6L253.1 113.4L248.7 117.2L248.6 113.7L245.7 113.5L244.2 115.9L243.4 115.6L245.5 112.4L245.0 110.8L244.4 110.8L244.8 109.4L240.6 107.8L241.6 107.4L242.1 106.0L243.1 105.7L246.0 100.2L243.6 99.8L243.8 98.6L242.7 98.6L244.5 92.9Z"><animate attributeName="fill" values="#16201F;#2F7E96;#5FA83F;#5FA83F;#5FA83F;#5FA83F;#5FA83F;#5FA83F;#A8CE3A;#A8CE3A;#E6B94F;#E6B94F;#B4805A;#16201F;#2F7E96;#5FA83F;#5FA83F;#5FA83F;#5FA83F;#5FA83F;#A8CE3A;#E6B94F;#B4805A;#16201F;#16201F;#16201F;#16201F" dur="13s" repeatCount="indefinite"/></path>
              <path class="rc" d="M89.1 26.5L95.2 37.1L91.6 40.2L92.9 41.1L92.4 41.7L90.6 42.6L93.0 45.9L92.0 47.3L92.6 47.5L92.7 48.7L90.7 49.2L90.2 50.6L88.0 50.7L88.6 52.3L87.2 55.2L83.3 54.0L82.2 56.5L80.0 57.5L75.6 57.1L75.7 55.9L74.2 55.3L73.6 50.2L70.3 48.3L70.3 46.1L71.5 46.7L73.2 41.1L79.2 41.0L78.1 37.7L78.5 36.6L82.3 31.8L82.7 33.0L84.1 33.8L85.2 35.6L87.3 36.3L88.6 34.4L86.5 29.2L87.6 27.7L88.2 28.8L88.8 28.3L88.2 27.1L89.1 26.5Z"><animate attributeName="fill" values="#5FA83F;#E6B94F;#E6B94F;#E6B94F;#B4805A;#5FA83F;#2F7E96;#5FA83F;#5FA83F;#5FA83F;#5FA83F;#5FA83F;#A8CE3A;#E6B94F;#A8CE3A;#E6B94F;#E6B94F;#2F7E96;#5FA83F;#5FA83F;#5FA83F;#5FA83F;#5FA83F;#5FA83F;#5FA83F;#5FA83F;#5FA83F" dur="13s" repeatCount="indefinite"/></path>
              <path class="rc" d="M166.6 120.5L168.3 120.7L169.0 121.6L173.1 121.7L173.7 125.2L174.5 125.9L172.3 128.3L170.2 128.5L170.6 132.8L169.1 133.2L169.0 134.8L171.2 134.6L171.5 136.3L172.3 137.4L173.5 137.0L174.7 135.0L178.0 135.6L178.3 137.0L178.0 139.8L176.4 140.8L175.1 144.1L176.6 148.0L171.5 148.4L170.5 152.3L169.2 153.6L164.6 153.0L162.3 150.9L161.1 147.9L161.8 147.3L162.2 144.9L160.0 145.4L157.6 140.7L155.2 138.8L155.5 136.7L154.2 134.7L154.3 134.1L155.7 134.0L159.6 134.2L160.2 132.8L159.8 131.7L160.6 130.7L158.6 126.2L160.7 126.0L162.0 126.6L162.7 124.6L164.2 124.4L165.0 123.0L166.2 122.7L166.6 120.5Z" fill="#16201F"/>
              <path class="rc" d="M95.6 107.5L98.2 108.0L98.0 109.4L96.4 111.1L96.8 111.8L99.8 112.1L98.2 114.0L99.0 115.8L100.3 116.8L100.3 117.8L99.8 118.7L98.4 118.9L99.0 121.0L97.9 120.9L97.6 122.8L96.6 122.6L95.5 126.2L94.7 127.1L91.3 127.9L90.8 129.9L88.5 126.6L88.0 123.9L87.2 123.5L88.8 119.2L87.8 117.5L88.4 115.0L87.8 114.7L87.8 113.8L89.0 113.8L89.2 111.4L90.4 109.3L92.6 108.5L95.2 108.6L95.6 107.5Z" fill="#16201F"/>
              <path class="rc" d="M224.0 90.4L226.3 91.4L226.4 90.6L227.3 90.8L227.8 91.2L226.6 91.5L227.5 91.8L227.4 92.6L228.2 91.9L229.1 92.7L228.9 93.4L230.2 94.1L229.1 95.1L229.9 95.7L229.5 96.4L230.1 97.1L229.2 98.4L229.7 100.3L229.2 102.2L229.5 102.8L230.7 102.6L231.3 101.7L231.5 102.2L230.6 102.8L231.4 104.6L230.9 106.2L229.2 105.4L228.2 105.8L230.2 106.1L230.9 107.2L229.4 110.5L225.3 110.1L222.8 108.4L220.9 113.0L219.2 112.8L219.2 111.9L215.0 107.9L213.2 108.9L211.7 108.1L210.2 108.3L210.9 106.6L209.9 105.9L211.0 105.0L209.1 104.7L209.7 103.8L208.4 102.3L211.7 100.3L212.9 101.5L214.8 96.1L221.5 98.1L223.4 96.1L222.3 93.8L222.4 92.0L223.9 91.4L224.0 90.4Z"><animate attributeName="fill" values="#16201F;#2F7E96;#5FA83F;#5FA83F;#5FA83F;#5FA83F;#5FA83F;#5FA83F;#A8CE3A;#A8CE3A;#E6B94F;#B4805A;#B4805A;#2F7E96;#5FA83F;#5FA83F;#5FA83F;#5FA83F;#5FA83F;#5FA83F;#A8CE3A;#E6B94F;#B4805A;#16201F;#16201F;#16201F;#16201F" dur="13s" repeatCount="indefinite"/></path>
              <path class="rc" d="M220.4 68.3L223.4 69.5L222.8 71.5L221.8 72.1L222.7 74.9L221.3 75.3L219.8 74.5L220.4 75.6L220.2 80.1L221.0 80.0L222.1 82.3L224.3 84.6L229.7 86.8L230.4 88.0L230.3 89.4L227.8 91.5L226.6 90.5L226.3 91.4L224.0 90.4L223.9 91.4L222.4 92.0L222.2 93.2L223.4 96.1L221.5 98.1L214.8 96.1L212.9 101.5L211.7 100.3L208.5 102.1L211.4 99.7L209.5 98.5L209.6 96.8L208.3 97.4L207.7 95.9L205.4 95.0L210.9 92.3L210.7 90.9L207.9 90.9L207.7 87.7L208.8 87.0L209.2 85.2L208.0 81.5L211.9 80.4L211.7 78.2L212.5 77.8L212.1 76.0L214.0 75.0L214.9 75.5L215.8 74.8L215.8 73.4L217.2 72.5L217.2 71.2L218.7 71.7L219.6 71.3L219.6 69.4L218.6 69.0L220.4 68.3Z"><animate attributeName="fill" values="#16201F;#16201F;#2F7E96;#5FA83F;#5FA83F;#5FA83F;#5FA83F;#5FA83F;#5FA83F;#A8CE3A;#E6B94F;#E6B94F;#B4805A;#B4805A;#16201F;#2F7E96;#5FA83F;#5FA83F;#5FA83F;#5FA83F;#5FA83F;#5FA83F;#A8CE3A;#A8CE3A;#E6B94F;#E6B94F;#16201F" dur="13s" repeatCount="indefinite"/></path>
              <path class="rc" d="M88.7 69.9L87.6 75.1L88.1 77.5L86.8 80.3L87.6 80.5L88.5 83.9L87.4 86.3L85.8 86.9L85.2 89.8L83.9 90.9L79.1 90.1L79.1 90.5L77.3 90.5L76.4 89.1L75.2 89.1L73.9 88.1L73.4 88.5L72.1 86.6L70.3 87.2L69.7 89.3L67.0 88.6L66.5 87.4L64.8 86.8L65.9 84.2L63.6 80.9L66.4 81.0L66.6 80.1L68.1 79.6L68.4 78.3L70.6 78.0L72.5 76.8L72.9 75.1L76.1 76.1L76.6 76.8L83.1 76.2L83.0 74.2L85.2 70.4L87.2 69.0L88.7 69.9Z"><animate attributeName="fill" values="#5FA83F;#5FA83F;#5FA83F;#5FA83F;#5FA83F;#5FA83F;#5FA83F;#5FA83F;#5FA83F;#A8CE3A;#E6B94F;#E6B94F;#5FA83F;#5FA83F;#5FA83F;#5FA83F;#5FA83F;#5FA83F;#5FA83F;#5FA83F;#5FA83F;#5FA83F;#5FA83F;#5FA83F;#A8CE3A;#16201F;#5FA83F" dur="13s" repeatCount="indefinite"/></path>
              <path class="rc" d="M66.0 49.6L65.9 53.7L65.1 54.4L65.5 56.8L69.5 57.1L68.8 60.5L66.8 61.5L65.2 61.3L64.8 66.8L69.1 67.0L70.4 67.8L70.5 69.4L71.5 70.5L71.0 74.1L70.3 74.5L72.9 75.1L72.5 76.8L70.6 78.0L68.4 78.3L68.1 79.6L66.6 80.1L66.4 81.0L63.6 80.9L63.1 80.0L61.0 79.0L59.5 78.5L58.9 79.2L57.8 79.1L56.8 77.7L58.3 77.1L61.8 77.5L63.3 73.8L61.8 73.2L62.0 70.0L60.6 68.7L60.5 66.5L58.7 65.1L58.6 62.5L59.2 61.7L61.2 61.4L62.3 57.5L61.3 57.6L60.5 59.4L59.4 59.0L60.0 56.4L58.8 55.3L59.3 54.2L58.8 53.1L63.6 49.7L66.0 49.6Z"><animate attributeName="fill" values="#E6B94F;#E6B94F;#16201F;#16201F;#16201F;#5FA83F;#5FA83F;#5FA83F;#5FA83F;#5FA83F;#5FA83F;#5FA83F;#A8CE3A;#E6B94F;#B4805A;#16201F;#16201F;#2F7E96;#5FA83F;#5FA83F;#5FA83F;#5FA83F;#5FA83F;#5FA83F;#A8CE3A;#E6B94F;#E6B94F" dur="13s" repeatCount="indefinite"/></path>
              <path class="rc" d="M171.3 180.8L171.0 183.0L172.7 182.6L171.2 185.9L169.4 185.7L167.4 188.1L165.6 187.9L164.1 188.7L164.3 189.9L163.1 191.6L164.0 193.8L163.6 195.5L158.0 201.6L156.2 211.7L154.5 212.3L154.2 213.7L150.4 217.3L149.9 218.6L150.4 219.3L148.9 219.9L149.4 220.5L149.2 221.1L149.5 221.5L149.5 221.7L149.5 221.9L146.9 221.4L144.0 221.9L143.9 220.6L144.9 218.7L144.2 214.6L146.1 213.3L146.2 210.6L149.6 206.0L149.7 205.2L149.2 205.1L150.5 204.4L150.9 202.3L153.2 199.7L153.6 196.5L155.8 195.6L157.2 192.6L157.5 189.5L159.5 187.4L159.4 186.6L158.1 186.6L157.7 185.5L160.5 184.0L164.1 184.3L164.0 185.9L165.0 185.0L165.9 185.0L167.0 182.6L171.3 180.8Z" fill="#16201F"/>
              <path class="rc" d="M142.1 173.3L144.5 173.6L145.1 174.0L144.7 174.4L146.1 175.0L150.1 175.5L149.5 177.7L150.4 179.8L150.2 183.5L152.7 186.8L153.6 187.2L157.5 185.1L158.1 186.6L159.4 186.6L159.6 187.3L157.5 189.5L157.2 192.6L155.8 195.6L153.6 196.5L153.2 199.7L150.9 202.3L150.5 204.4L149.2 205.1L149.7 205.2L149.6 206.0L146.2 210.6L146.1 213.3L144.2 214.6L141.9 212.9L142.5 212.7L142.3 210.9L141.5 211.0L140.7 209.7L140.9 208.8L142.5 207.4L140.9 201.9L141.3 200.6L142.8 199.6L144.4 196.0L144.3 193.5L141.9 192.5L142.0 192.0L140.9 191.5L140.6 190.3L138.4 188.5L139.8 184.8L139.6 181.6L140.9 180.4L141.3 179.1L139.3 178.1L140.1 176.9L138.8 176.6L139.2 176.1L138.2 174.3L137.0 174.9L136.5 174.1L138.0 173.5L141.6 173.9L142.0 172.7L142.1 173.3Z" fill="#16201F"/>
              <path class="rc" d="M325.9 100.1L325.9 99.6L332.9 100.2L335.2 101.6L335.0 102.5L336.3 103.3L336.1 103.9L335.0 103.4L334.5 103.8L336.0 108.1L335.7 110.1L334.1 109.4L334.1 112.5L332.5 112.6L334.1 114.3L335.5 114.4L335.3 115.8L336.1 117.2L334.7 117.5L334.6 116.0L333.3 115.9L333.9 117.1L332.6 118.1L333.4 118.9L332.9 119.6L331.3 118.9L330.1 119.8L328.8 119.7L328.7 120.5L327.3 119.7L328.6 117.9L327.7 117.4L327.5 115.8L325.8 115.8L325.8 113.6L324.6 112.3L324.6 108.5L322.5 107.0L318.4 100.2L320.2 100.8L321.9 99.3L325.9 100.1Z"><animate attributeName="fill" values="#2F7E96;#5FA83F;#5FA83F;#5FA83F;#5FA83F;#5FA83F;#5FA83F;#A8CE3A;#E6B94F;#E6B94F;#B4805A;#2F7E96;#2F7E96;#5FA83F;#5FA83F;#5FA83F;#5FA83F;#A8CE3A;#A8CE3A;#E6B94F;#B4805A;#16201F;#16201F;#16201F;#16201F;#16201F;#2F7E96" dur="13s" repeatCount="indefinite"/></path>
              <path class="rc" d="M344.1 124.9L344.8 124.9L344.7 127.1L346.2 127.4L346.4 131.7L348.2 132.1L349.1 133.7L351.0 134.0L349.4 138.1L350.9 139.4L350.6 142.4L349.5 143.3L348.7 142.4L348.6 146.7L349.4 146.6L349.5 145.4L350.4 145.5L350.6 148.8L342.0 149.1L340.9 151.3L339.7 152.2L340.0 153.6L337.3 153.2L336.3 152.3L335.9 148.0L334.8 146.6L335.7 144.2L334.9 140.5L335.8 140.1L334.9 139.4L336.0 138.7L335.2 138.3L335.2 136.2L336.9 133.4L337.2 131.1L339.4 130.7L340.1 125.3L342.9 122.9L343.6 122.9L344.1 124.9Z"><animate attributeName="fill" values="#16201F;#2F7E96;#5FA83F;#5FA83F;#5FA83F;#5FA83F;#5FA83F;#5FA83F;#A8CE3A;#A8CE3A;#E6B94F;#B4805A;#2F7E96;#5FA83F;#5FA83F;#5FA83F;#5FA83F;#A8CE3A;#A8CE3A;#E6B94F;#E6B94F;#B4805A;#16201F;#16201F;#16201F;#16201F;#16201F" dur="13s" repeatCount="indefinite"/></path>
              <path class="rc" d="M192.6 159.0L192.2 160.2L193.6 160.9L192.5 161.6L192.8 163.4L191.2 167.3L193.7 167.5L193.8 169.2L196.6 169.5L197.6 168.9L199.4 169.4L201.1 169.1L201.7 169.7L203.6 169.0L204.8 171.1L204.3 171.9L205.6 173.8L204.8 175.5L206.5 176.3L206.1 176.8L206.9 178.1L206.7 179.1L205.7 179.4L206.3 179.5L205.7 180.0L206.3 180.9L205.7 182.2L204.8 183.1L204.0 182.9L204.1 184.0L203.4 184.0L197.5 182.6L194.7 182.9L195.0 181.0L193.8 179.2L195.1 178.5L195.2 176.7L193.8 173.4L190.3 174.0L188.8 175.5L183.1 175.0L181.8 176.9L179.6 177.2L178.1 180.3L176.1 180.0L175.0 181.5L173.4 181.5L172.7 182.6L171.0 183.0L171.2 181.3L172.8 180.8L173.6 179.8L174.4 179.9L174.4 177.2L175.3 177.7L177.7 175.6L178.1 176.0L178.8 175.4L178.2 170.6L179.1 170.0L178.6 168.1L179.4 166.8L178.9 166.6L179.3 165.3L179.9 165.5L179.3 163.6L180.0 162.6L181.9 163.6L184.1 163.2L184.4 161.5L186.5 160.8L186.7 159.8L188.6 159.8L190.0 158.5L192.6 159.0Z" fill="#16201F"/>
              <path class="rc" d="M342.3 164.4L343.2 166.8L345.7 167.1L343.8 172.7L342.3 173.3L337.8 177.6L337.1 179.0L337.7 181.2L336.3 182.6L335.8 184.7L333.6 181.2L332.5 184.8L331.0 185.5L330.9 184.3L330.1 184.6L329.7 183.5L328.0 182.5L328.0 179.8L326.5 178.3L326.3 177.2L328.2 177.1L328.8 175.5L330.1 175.2L330.4 172.5L331.6 170.9L331.1 170.4L332.0 170.8L333.5 169.6L337.1 168.5L337.1 165.1L338.9 164.9L340.5 163.5L342.3 164.4Z"><animate attributeName="fill" values="#16201F;#5FA83F;#5FA83F;#5FA83F;#5FA83F;#5FA83F;#5FA83F;#A8CE3A;#A8CE3A;#E6B94F;#E6B94F;#16201F;#16201F;#16201F;#16201F;#16201F;#16201F;#16201F;#16201F;#16201F;#16201F;#16201F;#16201F;#2F7E96;#5FA83F;#5FA83F;#16201F" dur="13s" repeatCount="indefinite"/></path>
              <path class="rc" d="M182.2 80.9L184.1 80.4L182.3 81.8L183.8 82.8L184.6 85.0L185.5 85.8L186.2 85.5L187.7 90.5L189.1 91.3L191.9 91.4L196.6 96.7L197.2 96.5L197.3 98.2L198.5 98.3L196.7 100.2L197.3 102.1L196.2 103.8L194.8 102.5L191.5 103.1L189.5 104.7L189.5 107.1L188.9 106.6L183.2 107.4L180.1 106.8L178.8 105.6L177.7 106.5L178.1 105.2L175.7 105.3L174.9 103.7L174.6 98.9L177.0 98.0L181.6 97.8L181.3 93.7L179.0 88.1L179.2 86.2L177.6 82.4L179.1 82.3L181.7 80.4L182.2 80.9Z"><animate attributeName="fill" values="#5FA83F;#2F7E96;#5FA83F;#5FA83F;#5FA83F;#5FA83F;#5FA83F;#5FA83F;#A8CE3A;#E6B94F;#E6B94F;#E6B94F;#B4805A;#2F7E96;#5FA83F;#5FA83F;#5FA83F;#5FA83F;#5FA83F;#5FA83F;#A8CE3A;#E6B94F;#B4805A;#A8CE3A;#A8CE3A;#E6B94F;#5FA83F" dur="13s" repeatCount="indefinite"/></path>
              <path class="rc" d="M229.7 86.8L235.5 88.6L236.4 88.2L240.2 91.1L244.5 92.9L242.7 98.6L243.8 98.6L243.6 99.8L246.0 100.2L242.8 106.0L242.1 106.0L241.3 104.6L238.3 105.2L238.1 103.5L234.6 104.4L232.7 103.8L229.9 112.3L230.2 113.9L229.2 113.9L227.9 112.1L228.7 110.3L229.9 110.2L230.9 106.8L229.8 105.9L228.2 105.8L229.2 105.4L230.9 106.2L231.4 104.5L230.6 102.8L231.5 102.1L231.3 101.7L230.7 102.6L229.2 102.4L229.7 100.3L229.2 98.4L230.1 97.1L229.5 96.4L229.9 95.7L229.1 95.1L230.2 94.1L228.9 93.4L229.1 92.7L228.2 91.9L227.5 92.6L227.5 91.8L226.6 91.5L227.3 91.0L228.2 91.4L230.1 89.7L230.4 88.0L229.7 86.8Z"><animate attributeName="fill" values="#16201F;#2F7E96;#5FA83F;#5FA83F;#5FA83F;#5FA83F;#5FA83F;#5FA83F;#5FA83F;#A8CE3A;#E6B94F;#E6B94F;#B4805A;#B4805A;#2F7E96;#5FA83F;#5FA83F;#5FA83F;#5FA83F;#5FA83F;#A8CE3A;#E6B94F;#B4805A;#16201F;#16201F;#16201F;#16201F" dur="13s" repeatCount="indefinite"/></path>
              <path class="rc" d="M99.7 80.8L103.5 80.8L103.6 82.8L105.4 83.0L105.5 83.5L104.8 87.9L104.0 88.0L102.7 92.7L101.8 93.9L102.0 94.8L100.5 100.7L95.8 100.2L94.7 101.0L93.4 100.7L92.2 101.5L90.2 101.7L88.1 100.4L86.3 100.9L86.6 101.6L84.7 100.5L84.3 98.3L85.0 94.3L84.5 92.4L85.7 87.0L87.4 86.3L88.5 83.9L88.4 82.8L88.9 82.8L89.2 84.5L91.2 85.5L93.8 85.7L95.8 83.4L97.1 84.3L99.2 83.8L99.7 80.8Z"><animate attributeName="fill" values="#5FA83F;#5FA83F;#5FA83F;#5FA83F;#5FA83F;#5FA83F;#5FA83F;#5FA83F;#5FA83F;#5FA83F;#5FA83F;#E6B94F;#E6B94F;#E6B94F;#5FA83F;#5FA83F;#5FA83F;#5FA83F;#5FA83F;#5FA83F;#5FA83F;#5FA83F;#5FA83F;#5FA83F;#A8CE3A;#E6B94F;#5FA83F" dur="13s" repeatCount="indefinite"/></path>
              <path class="rc" d="M198.4 102.6L201.3 102.6L202.5 103.7L203.7 103.7L206.9 105.6L210.5 106.2L210.2 108.3L211.8 108.1L212.6 109.8L213.5 109.3L213.5 110.7L214.6 110.1L214.6 108.6L215.0 109.3L215.3 108.9L216.1 110.6L216.2 115.6L214.9 116.4L216.2 118.0L214.4 118.6L213.1 120.8L210.6 121.2L209.7 120.4L209.6 119.1L206.4 115.4L206.6 112.6L203.4 112.7L203.6 113.9L203.0 114.6L204.3 115.4L202.9 120.3L202.0 120.2L201.3 116.8L197.5 116.1L195.1 114.2L193.1 114.6L191.5 114.0L191.0 115.0L189.5 115.8L185.3 114.6L182.8 114.7L182.0 109.8L180.6 108.1L180.9 106.8L184.4 107.5L188.9 106.6L189.5 107.1L189.5 104.7L191.5 103.1L194.8 102.5L196.2 103.8L196.7 102.4L198.4 101.9L198.4 102.6Z"><animate attributeName="fill" values="#5FA83F;#2F7E96;#5FA83F;#5FA83F;#5FA83F;#5FA83F;#5FA83F;#5FA83F;#A8CE3A;#E6B94F;#E6B94F;#E6B94F;#B4805A;#2F7E96;#5FA83F;#5FA83F;#5FA83F;#5FA83F;#5FA83F;#5FA83F;#A8CE3A;#E6B94F;#E6B94F;#E6B94F;#B4805A;#16201F;#5FA83F" dur="13s" repeatCount="indefinite"/></path>
              <path class="rc" d="M204.3 201.4L206.2 202.2L207.8 204.2L206.6 206.1L206.3 207.7L207.0 207.8L205.8 210.3L207.4 211.7L206.9 212.0L207.1 213.8L206.6 215.8L207.5 216.7L206.8 218.7L207.6 219.0L208.0 221.2L207.2 222.1L206.8 225.9L205.3 227.3L203.7 227.5L201.6 230.2L201.3 232.1L198.1 234.5L196.3 232.8L192.7 233.3L192.2 232.7L193.6 226.4L192.8 224.9L194.2 224.1L196.5 221.1L195.4 219.2L195.9 217.7L196.7 217.8L197.2 216.6L196.7 213.0L193.8 212.3L194.0 211.0L192.7 210.6L193.7 208.5L195.2 208.3L195.4 206.8L193.7 206.0L193.7 205.5L197.5 202.3L199.3 202.4L201.3 201.3L202.7 202.1L203.0 201.5L203.3 202.1L204.3 201.4Z" fill="#16201F"/>
              <path class="rc" d="M63.8 139.8L64.4 140.3L64.4 141.4L63.2 147.6L61.7 148.2L62.7 149.0L62.9 150.8L63.8 151.7L61.3 153.1L61.3 153.8L60.4 153.9L60.5 158.5L60.0 160.5L58.3 162.0L57.0 162.2L54.9 167.3L52.6 169.1L51.1 172.1L47.3 173.1L44.0 175.3L43.1 176.7L39.8 176.0L35.9 173.4L35.2 170.6L36.8 169.0L33.9 165.0L35.7 162.3L33.9 160.2L34.6 158.5L33.7 158.0L34.6 156.7L38.4 157.1L39.9 154.4L40.6 156.3L43.7 154.7L44.4 150.6L45.1 149.7L47.1 149.8L48.1 148.5L47.9 147.4L49.0 147.0L49.5 146.1L49.1 145.7L50.0 145.3L50.1 144.3L48.9 143.5L50.1 142.9L50.1 141.3L51.9 142.3L54.4 142.6L55.9 141.3L57.5 141.6L63.8 139.8Z" fill="#16201F"/>
              <path class="rc" d="M54.9 96.0L55.0 96.9L54.4 96.9L53.7 99.1L53.9 100.4L55.7 101.8L55.6 105.8L57.6 106.4L56.8 108.2L57.5 110.5L56.9 110.5L57.1 112.0L56.0 114.9L58.2 118.4L57.4 120.1L57.4 124.4L56.6 126.0L57.0 127.8L58.2 129.0L54.6 129.9L52.3 128.8L52.1 129.5L48.1 130.1L47.2 128.9L45.5 129.1L44.2 128.3L43.0 125.2L43.3 121.9L42.7 121.7L42.8 120.9L41.5 120.7L41.1 119.3L40.8 120.6L39.7 120.4L39.0 119.7L39.0 118.3L40.5 117.0L39.7 115.9L41.2 116.5L41.8 115.9L41.2 114.6L41.7 112.7L43.8 113.3L44.8 112.6L44.0 108.9L41.6 107.5L42.8 106.4L42.6 105.2L44.3 105.0L42.5 104.3L42.5 103.2L44.0 103.9L44.2 102.2L45.0 102.0L44.0 101.2L45.5 100.1L46.5 100.5L46.5 99.3L47.1 101.4L47.9 101.2L47.4 98.7L48.8 98.7L50.0 99.4L50.6 97.8L52.2 98.2L52.4 96.9L53.9 95.9L54.9 96.0Z" fill="#16201F"/>
              <path class="rc" d="M57.9 94.4L57.5 96.3L59.4 96.7L58.3 98.0L59.8 97.8L60.8 98.5L61.4 102.1L60.7 102.9L59.2 102.0L57.8 102.6L57.7 104.4L60.0 104.9L63.3 102.5L64.3 102.5L63.2 105.4L65.7 104.9L68.1 107.0L69.7 106.4L69.8 107.4L70.9 108.2L71.4 112.5L70.3 114.9L69.3 114.7L68.9 115.3L68.3 114.7L67.2 115.6L65.9 114.7L64.8 118.1L63.0 119.8L63.0 121.2L60.5 122.5L60.3 123.1L61.0 124.1L60.3 125.0L60.7 125.3L59.8 125.9L59.6 127.5L58.6 127.5L58.3 128.6L57.0 127.8L56.6 126.0L57.4 124.4L57.4 120.1L58.2 118.4L56.0 114.9L57.1 112.0L56.9 110.5L57.5 110.5L56.8 108.2L57.6 106.4L55.6 105.8L55.7 101.8L54.3 101.1L53.7 99.4L54.4 96.9L55.0 96.8L54.2 94.6L54.7 94.3L55.6 95.3L55.3 93.2L57.9 94.4Z" fill="#16201F"/>
              <path class="rc" d="M106.9 54.3L111.1 59.7L114.0 61.5L114.8 61.3L120.5 63.7L119.6 67.0L118.0 68.3L116.9 68.3L117.3 66.9L116.2 65.7L114.6 65.6L112.7 66.9L111.7 69.3L110.7 69.5L111.4 71.0L111.1 72.2L112.7 72.7L112.7 73.8L114.0 73.9L113.3 75.5L114.0 77.7L113.3 80.2L114.8 81.9L112.4 82.6L109.7 82.4L109.5 83.0L103.9 82.9L103.4 80.8L99.8 80.7L98.8 84.0L97.1 84.3L95.8 83.4L93.7 85.7L91.2 85.5L89.2 84.5L87.6 80.5L86.8 80.3L88.1 77.5L87.6 74.6L88.2 70.6L89.6 68.2L89.1 67.5L91.6 65.8L94.4 65.5L95.6 66.7L96.7 70.0L98.4 66.8L101.5 64.1L101.1 62.2L101.8 60.3L101.8 57.5L104.3 56.5L106.9 54.3Z"><animate attributeName="fill" values="#E6B94F;#E6B94F;#E6B94F;#B4805A;#2F7E96;#5FA83F;#2F7E96;#5FA83F;#5FA83F;#5FA83F;#5FA83F;#5FA83F;#A8CE3A;#E6B94F;#E6B94F;#E6B94F;#B4805A;#2F7E96;#2F7E96;#5FA83F;#5FA83F;#5FA83F;#5FA83F;#5FA83F;#5FA83F;#5FA83F;#E6B94F" dur="13s" repeatCount="indefinite"/></path>
              <path class="rc" d="M280.4 133.9L284.1 134.6L284.6 136.0L285.3 136.2L286.5 134.6L290.1 136.3L289.3 138.5L292.3 138.8L294.3 139.6L295.9 138.0L300.8 138.0L300.4 139.1L298.5 140.5L297.3 140.5L297.0 142.2L293.5 143.0L293.9 143.7L293.4 144.5L295.0 144.4L294.7 143.0L297.9 142.6L297.4 146.5L296.5 147.2L295.5 146.2L293.7 149.7L291.3 150.1L291.7 152.9L289.7 155.4L288.6 155.3L288.9 155.7L288.6 155.9L286.8 155.4L285.4 156.8L285.2 158.0L284.6 157.4L283.4 158.2L284.0 160.3L283.2 160.5L283.6 162.3L283.1 162.5L284.1 163.5L283.8 164.4L282.4 164.1L282.6 163.4L282.2 163.9L281.7 163.5L280.8 166.7L280.0 166.9L279.8 166.4L278.2 167.3L278.5 168.2L277.8 169.1L276.3 169.1L275.8 169.8L275.9 169.1L274.9 169.3L274.3 170.7L273.5 170.8L272.7 172.0L270.7 172.5L270.6 173.0L269.4 172.6L269.9 173.0L269.4 173.7L270.0 173.9L269.5 174.3L270.3 174.5L269.7 174.8L269.7 176.2L268.8 176.0L269.5 176.4L269.1 177.7L269.7 178.2L268.3 179.5L269.2 179.7L268.5 180.0L268.2 181.4L268.9 181.6L268.8 182.9L267.9 182.6L267.7 183.5L267.2 183.0L265.7 184.5L265.2 184.1L265.4 185.1L264.6 184.7L263.0 185.3L263.8 186.3L262.1 186.9L262.7 187.1L262.6 187.9L261.7 187.4L262.1 188.0L261.2 189.0L261.3 189.9L259.3 190.0L258.5 188.9L259.2 191.7L258.6 192.9L259.2 193.6L257.6 194.1L258.0 195.0L256.6 197.6L257.3 198.8L256.5 198.8L256.8 199.8L255.4 199.4L255.2 198.7L254.4 199.4L253.0 199.0L253.3 198.3L252.2 198.9L252.3 198.1L251.5 197.8L251.2 198.4L249.1 197.0L247.0 197.6L246.2 195.6L243.9 193.6L242.2 189.7L243.5 188.4L242.1 185.4L241.1 184.6L240.9 180.9L242.0 180.3L243.1 176.8L243.9 176.7L246.6 173.0L256.4 173.6L257.5 171.3L255.9 170.3L256.8 169.7L270.6 168.8L271.0 161.4L274.4 158.8L275.3 155.5L277.9 153.0L277.8 152.1L278.8 150.9L278.9 147.3L278.2 146.8L278.1 145.5L280.5 144.7L280.7 143.9L281.5 143.7L281.6 142.2L283.3 140.7L283.0 139.5L281.5 139.7L278.5 138.5L279.4 134.6L280.4 133.9Z"><animate attributeName="fill" values="#16201F;#2F7E96;#5FA83F;#5FA83F;#5FA83F;#5FA83F;#5FA83F;#5FA83F;#A8CE3A;#A8CE3A;#16201F;#16201F;#16201F;#16201F;#16201F;#16201F;#16201F;#16201F;#16201F;#16201F;#16201F;#16201F;#16201F;#16201F;#16201F;#16201F;#16201F" dur="13s" repeatCount="indefinite"/></path>
              <path class="rc" d="M48.4 13.2L48.2 14.1L48.8 13.5L50.3 14.6L50.6 14.0L52.1 14.5L52.4 15.2L55.2 15.3L56.4 14.1L59.4 18.0L62.4 15.4L62.4 18.0L60.8 25.1L63.2 25.8L62.3 29.5L63.4 29.7L63.2 31.1L66.4 30.9L65.4 35.5L67.4 37.0L67.5 39.2L65.5 40.2L61.8 40.9L60.6 43.1L59.5 41.0L59.8 38.6L57.0 39.2L52.0 48.6L50.6 46.2L50.4 42.8L49.6 41.9L49.4 38.0L47.9 36.8L47.9 36.1L47.3 35.9L47.1 37.3L46.2 37.5L46.1 38.2L44.2 39.6L42.7 38.9L43.6 36.4L43.4 35.3L41.2 34.0L42.3 29.3L41.9 25.0L40.5 22.8L36.6 21.0L35.9 18.7L35.3 19.1L34.2 18.7L34.3 17.4L33.6 16.8L38.4 14.5L46.4 13.0L48.4 13.2Z"><animate attributeName="fill" values="#5FA83F;#A8CE3A;#E6B94F;#E6B94F;#B4805A;#16201F;#2F7E96;#5FA83F;#5FA83F;#5FA83F;#5FA83F;#5FA83F;#5FA83F;#5FA83F;#5FA83F;#A8CE3A;#E6B94F;#E6B94F;#B4805A;#5FA83F;#2F7E96;#5FA83F;#5FA83F;#5FA83F;#5FA83F;#5FA83F;#5FA83F" dur="13s" repeatCount="indefinite"/></path>
              <path class="rc" d="M112.2 97.2L113.8 98.6L114.6 98.5L115.0 99.6L114.2 101.2L113.3 109.4L117.4 114.9L117.3 115.7L114.6 115.6L110.0 116.6L110.3 118.4L109.3 120.5L105.6 121.3L103.7 120.7L99.0 121.0L98.4 118.9L99.8 118.7L100.3 116.8L99.0 115.8L98.3 114.0L99.8 112.1L96.8 111.8L96.3 110.8L97.6 109.7L102.9 108.8L103.9 107.7L103.4 106.2L105.3 103.2L105.9 101.3L105.5 99.8L107.4 99.2L108.0 97.4L112.2 97.2Z"><animate attributeName="fill" values="#5FA83F;#5FA83F;#5FA83F;#5FA83F;#5FA83F;#5FA83F;#A8CE3A;#E6B94F;#E6B94F;#E6B94F;#B4805A;#2F7E96;#5FA83F;#5FA83F;#5FA83F;#5FA83F;#5FA83F;#5FA83F;#A8CE3A;#E6B94F;#B4805A;#16201F;#16201F;#16201F;#16201F;#16201F;#5FA83F" dur="13s" repeatCount="indefinite"/></path>
              <path class="rc" d="M320.6 158.6L325.9 159.1L327.0 160.9L329.8 159.5L333.1 161.8L337.6 162.2L339.4 164.0L338.9 164.9L336.9 165.3L337.1 168.5L333.5 169.6L332.0 170.8L331.1 170.4L331.6 170.9L330.4 172.5L330.1 175.2L328.8 175.5L328.2 177.1L326.3 177.2L326.5 178.3L328.1 180.0L327.7 181.6L326.1 181.6L325.7 182.2L326.3 183.2L327.9 183.2L327.6 184.7L326.9 185.1L324.5 184.6L322.7 183.2L322.2 181.0L323.3 176.9L322.6 176.5L316.8 175.7L305.7 172.0L308.2 166.7L308.2 163.9L315.6 161.8L317.5 161.9L320.0 160.2L319.5 159.0L320.6 158.6Z"><animate attributeName="fill" values="#16201F;#2F7E96;#5FA83F;#5FA83F;#5FA83F;#5FA83F;#5FA83F;#5FA83F;#A8CE3A;#A8CE3A;#E6B94F;#E6B94F;#16201F;#16201F;#16201F;#16201F;#2F7E96;#5FA83F;#5FA83F;#5FA83F;#5FA83F;#A8CE3A;#E6B94F;#B4805A;#E6B94F;#E6B94F;#16201F" dur="13s" repeatCount="indefinite"/></path>
              <path class="rc" d="M321.9 131.5L322.7 133.2L325.8 133.2L326.9 134.2L327.7 136.7L329.9 136.3L329.3 137.5L327.8 137.8L327.5 139.3L328.4 138.3L329.6 138.8L329.5 139.6L328.0 139.7L329.5 141.6L326.9 141.4L327.3 142.9L330.1 145.5L329.4 147.0L330.4 147.9L330.7 149.6L330.4 150.4L328.4 151.3L322.9 152.2L322.2 154.0L321.5 153.6L320.8 151.6L316.7 152.8L314.8 150.4L312.8 150.0L313.4 146.5L316.9 145.4L316.4 144.3L317.6 143.6L316.6 142.3L317.9 142.3L317.6 141.0L319.3 139.8L319.2 137.7L318.2 135.6L318.7 132.9L319.7 133.0L320.7 131.5L321.9 131.5Z"><animate attributeName="fill" values="#16201F;#2F7E96;#2F7E96;#5FA83F;#5FA83F;#5FA83F;#5FA83F;#5FA83F;#5FA83F;#A8CE3A;#E6B94F;#E6B94F;#E6B94F;#B4805A;#16201F;#2F7E96;#5FA83F;#5FA83F;#5FA83F;#5FA83F;#A8CE3A;#E6B94F;#B4805A;#16201F;#16201F;#16201F;#16201F" dur="13s" repeatCount="indefinite"/></path>
            </g>
          </svg>