<svg viewBox="0 0 400 240" preserveAspectRatio="xMidYMid meet" xmlns="http://www.w3.org/2000/svg">
<style type="text/css">/* <![CDATA[ */
/* Extracted from the /lab/ tile of the same case. Colours are literal so the
   file stands alone; motion is the case's own phenomenon, not decoration. */
/* Trade: a real orthographic globe on Indonesia — Natural Earth coastlines,
         true great-circle arcs, weight and speed set by Comtrade 2023 export value.
         Arcs are cut where they pass behind the sphere, not faked. */
      .tg-grat path { fill: none; stroke: #AEB6C2; stroke-width: 0.35; opacity: 0.13; }
.tg-land path { fill: none; stroke: #7F8B9C; stroke-width: 0.8; opacity: 0.55; }
.tr-arc path { fill: none; stroke-linecap: round; }
.a-base { stroke: #D9722C; stroke-width: calc(var(--w) * 0.5px); opacity: 0.22; }
.a-glow { stroke: #D9722C; stroke-width: calc(var(--w) * 2.2px); opacity: 0.5;
        filter: url(#tg-bloom); stroke-dasharray: 60 940;
        animation: tg-run var(--d) linear var(--t) infinite; }
.a-core { stroke: #FFD9B0; stroke-width: calc(var(--w) * 0.8px); opacity: 0.95;
        stroke-dasharray: 34 966; animation: tg-run var(--d) linear var(--t) infinite; }
.o-ring { transform-box: fill-box; transform-origin: center;
        animation: tg-pulse 3.2s ease-out infinite; }
@keyframes tg-run { from { stroke-dashoffset: 1000; } to { stroke-dashoffset: 0; } }
@keyframes tg-pulse {
        0% { transform: scale(0.6); opacity: 0.95; }
        75%, 100% { transform: scale(2.1); opacity: 0; }
      }
@media (prefers-reduced-motion: reduce) {
  * { animation: none !important; }
  /* rice animates with SMIL, which CSS animation rules do not reach */
  animate, animateTransform, animateMotion { display: none !important; }
}
/* ]]> */</style>

            <defs>
              <radialGradient id="tg-ocean" cx="38%" cy="32%" r="72%">
                <stop offset="0%" stop-color="#1B2530"/><stop offset="62%" stop-color="#121821"/>
                <stop offset="100%" stop-color="#0A0E14"/>
              </radialGradient>
              <radialGradient id="tg-limb" cx="50%" cy="50%" r="50%">
                <stop offset="82%" stop-color="#D9722C" stop-opacity="0"/>
                <stop offset="97%" stop-color="#D9722C" stop-opacity="0.34"/>
                <stop offset="100%" stop-color="#D9722C" stop-opacity="0"/>
              </radialGradient>
              <filter id="tg-bloom" x="-40%" y="-40%" width="180%" height="180%">
                <feGaussianBlur stdDeviation="1.9"/>
              </filter>
            </defs>
            <rect width="400" height="240" fill="#0C0F14"/>
            <circle cx="200.0" cy="122.0" r="104.0" fill="url(#tg-ocean)"/>
            <g class="tg-grat">
              <path d="M200.0 225.9L204.8 225.7L209.6 225.2L214.4 224.4L219.1 223.3L223.8 222.0L228.4 220.3L232.9 218.4L237.3 216.3L241.7 213.8L245.9 211.2L250.0 208.2L254.0 205.1L257.8 201.7L261.4 198.1L264.9 194.3L268.2 190.3L271.4 186.1L274.3 181.7L277.0 177.2L279.5 172.5L281.8 167.7L283.9 162.7L285.7 157.7L287.3 152.5L288.7 147.3L289.8 141.9L290.7 136.6L291.3 131.2L291.7 125.7L291.8 120.3L291.7 114.9L291.3 109.4L290.7 104.1L289.8 98.7L288.7 93.5L287.3 88.3L285.7 83.2L283.9 78.2L281.8 73.3L279.5 68.6L277.0 64.0L274.3 59.5L271.4 55.3L268.2 51.2L264.9 47.3L261.4 43.6L257.8 40.2L254.0 36.9L250.0 33.9L245.9 31.1L241.7 28.6L237.3 26.4L232.9 24.4L228.4 22.6L223.8 21.2L219.1 20.0L214.4 19.1L209.6 18.5"/>
              <path d="M200.0 225.9L205.4 225.8L210.9 225.4L216.3 224.7L221.6 223.7L226.9 222.4L232.1 220.9L237.2 219.1L242.3 217.0L247.2 214.7L252.0 212.1L256.6 209.2L261.1 206.2L265.4 202.9L269.5 199.3L273.5 195.6"/>
              <path d="M200.0 225.9L194.6 225.8L189.1 225.4L183.7 224.6L178.4 223.6L173.1 222.4L167.9 220.8L162.8 219.0L157.7 216.9L152.8 214.6L148.0 211.9L143.4 209.1L138.9 206.0L134.6 202.7L130.5 199.2L126.5 195.4L122.8 191.5L119.2 187.3L115.9 183.0L112.8 178.5L110.0 173.9L107.4 169.1L105.0 164.2L103.0 159.1L101.2 154.0L99.6 148.8L98.3 143.5L97.3 138.1L96.6 132.7L96.2 127.3L96.1 121.9L96.2 116.4L96.6 111.0L97.3 105.6L98.3 100.3L99.6 95.0L101.2 89.8L103.0 84.6L105.0 79.6L107.4 74.7L110.0 69.9L112.8 65.3L115.9 60.8L119.2 56.5L122.8 52.4"/>
              <path d="M200.0 225.9L195.4 225.7L190.8 225.2L186.2 224.4L181.7 223.3L177.2 221.9L172.7 220.3L168.4 218.3L164.1 216.2L160.0 213.7L155.9 211.1L152.0 208.1L148.2 205.0L144.5 201.6L141.0 198.0L137.6 194.1L134.5 190.1L131.5 185.9L128.6 181.5L126.0 177.0L123.6 172.3L121.4 167.5L119.4 162.5L117.7 157.5L116.1 152.3L114.8 147.0L113.7 141.7L112.9 136.4L112.3 131.0L111.9 125.5L111.8 120.1L111.9 114.6L112.3 109.2L112.9 103.8L113.7 98.5L114.8 93.2L116.1 88.1L117.7 83.0L119.4 78.0L121.4 73.1L123.6 68.4L126.0 63.8L128.6 59.4L131.5 55.1L134.5 51.0L137.6 47.1L141.0 43.5L144.5 40.0L148.2 36.8L152.0 33.8L155.9 31.0L160.0 28.5L164.1 26.3L168.4 24.3L172.7 22.6L177.2 21.1L181.7 19.9L186.2 19.0L190.8 18.4"/>
              <path d="M200.0 225.9L197.4 225.6L194.9 225.0L192.4 224.2L189.8 223.0L187.4 221.6L184.9 219.9L182.5 217.9L180.1 215.6L177.8 213.2L175.6 210.4L173.4 207.4L171.3 204.2L169.3 200.8L167.3 197.1L165.5 193.2L163.7 189.2L162.1 184.9L160.5 180.5L159.1 175.9L157.7 171.2L156.5 166.3L155.4 161.3L154.4 156.3L153.6 151.1L152.8 145.8L152.2 140.5L151.8 135.1L151.4 129.7L151.2 124.2L151.2 118.8L151.2 113.4L151.4 107.9L151.8 102.6L152.2 97.3L152.8 92.0L153.6 86.8L154.4 81.8L155.4 76.8L156.5 72.0L157.7 67.3L159.1 62.7L160.5 58.3L162.1 54.1L163.7 50.1L165.5 46.2L167.3 42.6L169.3 39.2L171.3 36.0L173.4 33.1L175.6 30.4L177.8 27.9L180.1 25.7L182.5 23.8L184.9 22.2L187.4 20.8L189.8 19.7L192.4 18.8L194.9 18.3L197.4 18.0"/>
              <path d="M200.0 225.9L200.2 225.6L200.4 225.0L200.6 224.1L200.8 222.9L200.9 221.5L201.1 219.7L201.3 217.7L201.5 215.5L201.6 213.0L201.8 210.2L202.0 207.2L202.1 204.0L202.3 200.5L202.4 196.8L202.6 192.9L202.7 188.9L202.8 184.6L202.9 180.2L203.0 175.6L203.1 170.8L203.2 166.0L203.3 161.0L203.4 155.9L203.5 150.7L203.5 145.4L203.6 140.1L203.6 134.7L203.6 129.3L203.6 123.8L203.6 118.4L203.6 112.9L203.6 107.5L203.6 102.2L203.6 96.8L203.5 91.6L203.5 86.4L203.4 81.4L203.3 76.4L203.2 71.6L203.1 66.9L203.0 62.3L202.9 58.0L202.8 53.8L202.7 49.8L202.6 45.9L202.4 42.3L202.3 38.9L202.1 35.8L202.0 32.9L201.8 30.2L201.6 27.7L201.5 25.6L201.3 23.7L201.1 22.0L200.9 20.7L200.8 19.6L200.6 18.8L200.4 18.3L200.2 18.0"/>
              <path d="M200.0 225.9L202.9 225.6L205.8 225.0L208.6 224.2L211.5 223.0L214.3 221.6L217.0 219.9L219.8 217.9L222.4 215.7L225.0 213.2L227.6 210.5L230.0 207.5L232.4 204.3L234.7 200.8L236.9 197.2L239.0 193.3L241.0 189.3L242.8 185.0L244.6 180.6L246.2 176.0L247.7 171.3L249.1 166.4L250.3 161.5L251.5 156.4L252.4 151.2L253.2 145.9L253.9 140.6L254.4 135.2L254.8 129.8L255.0 124.4L255.1 118.9L255.0 113.5L254.8 108.1L254.4 102.7L253.9 97.4L253.2 92.1L252.4 87.0L251.5 81.9L250.3 76.9L249.1 72.1L247.7 67.4L246.2 62.8L244.6 58.4L242.8 54.2L241.0 50.2L239.0 46.3L236.9 42.7L234.7 39.3L232.4 36.1L230.0 33.2L227.6 30.4L225.0 28.0L222.4 25.8L219.8 23.9L217.0 22.2L214.3 20.8L211.5 19.7L208.6 18.9L205.8 18.3L202.9 18.0"/>
              <path d="M200.0 225.9L204.8 225.7L209.6 225.2L214.4 224.4L219.1 223.3L223.8 222.0L228.4 220.3L232.9 218.4L237.3 216.3L241.7 213.8L245.9 211.2L250.0 208.2L254.0 205.1L257.8 201.7L261.4 198.1L264.9 194.3L268.2 190.3L271.4 186.1L274.3 181.7L277.0 177.2L279.5 172.5L281.8 167.7L283.9 162.7L285.7 157.7L287.3 152.5L288.7 147.3L289.8 141.9L290.7 136.6L291.3 131.2L291.7 125.7L291.8 120.3L291.7 114.9L291.3 109.4L290.7 104.1L289.8 98.7L288.7 93.5L287.3 88.3L285.7 83.2L283.9 78.2L281.8 73.3L279.5 68.6L277.0 64.0L274.3 59.5L271.4 55.3L268.2 51.2L264.9 47.3L261.4 43.6L257.8 40.2L254.0 36.9L250.0 33.9L245.9 31.1L241.7 28.6L237.3 26.4L232.9 24.4L228.4 22.6L223.8 21.2L219.1 20.0L214.4 19.1L209.6 18.5"/>
              <path d="M245.9 211.2L247.1 211.2L248.2 211.3L249.2 211.4L250.0 211.5L250.7 211.6L251.2 211.7L251.6 211.8L251.9 211.9L252.0 212.0L252.0 212.1"/>
              <path d="M148.0 212.0L148.0 211.9L148.2 211.9L148.5 211.8L149.0 211.7L149.5 211.6L150.3 211.5L151.1 211.4L152.1 211.3L153.3 211.2L154.5 211.1L155.9 211.1L157.4 211.0L159.0 210.9L160.8 210.8L162.6 210.8L164.5 210.7L166.6 210.6L168.7 210.6L170.9 210.5L173.2 210.5L175.6 210.4L178.0 210.4L180.5 210.3L183.1 210.3L185.7 210.3L188.3 210.2L191.0 210.2L193.7 210.2L196.4 210.2L199.1 210.2L201.8 210.2L204.5 210.2L207.2 210.2L209.9 210.2L212.6 210.3L215.2 210.3L217.8 210.3L220.3 210.3L222.8 210.4L225.2 210.4L227.6 210.5L229.8 210.5L232.0 210.6L234.1 210.6L236.1 210.7L238.0 210.8L239.8 210.8L241.5 210.9L243.1 211.0L244.6 211.1L245.9 211.2"/>
              <path d="M279.5 172.5L281.6 172.6L283.5 172.8L285.2 172.9L286.6 173.1L287.8 173.3L288.7 173.4L289.4 173.6L289.8 173.7L290.1 173.9"/>
              <path d="M109.9 174.0L110.0 173.9L110.3 173.7L110.8 173.5L111.6 173.4L112.6 173.2L113.9 173.0L115.4 172.9L117.1 172.7L119.0 172.6L121.2 172.4L123.6 172.3L126.2 172.2L129.0 172.0L132.0 171.9L135.2 171.8L138.6 171.7L142.1 171.6L145.8 171.5L149.6 171.4L153.6 171.3L157.7 171.2L161.9 171.1L166.3 171.1L170.7 171.0L175.2 170.9L179.7 170.9L184.4 170.9L189.0 170.8L193.7 170.8L198.4 170.8L203.1 170.8L207.8 170.8L212.5 170.9L217.2 170.9L221.8 170.9L226.3 171.0L230.8 171.0L235.2 171.1L239.5 171.1L243.7 171.2L247.7 171.3L251.7 171.4L255.5 171.5L259.1 171.6L262.6 171.7L265.9 171.8L269.0 171.9L271.9 172.1L274.7 172.2L277.2 172.3L279.5 172.5"/>
              <path d="M291.8 120.3L294.3 120.5L296.4 120.6L298.3 120.8L300.0 121.0L301.3 121.2L302.4 121.4L303.2 121.6L303.7 121.7L304.0 121.9"/>
              <path d="M96.1 121.9L96.4 121.7L97.0 121.5L97.9 121.3L99.1 121.1L100.5 120.9L102.3 120.8L104.3 120.6L106.5 120.4L109.0 120.2L111.8 120.1L114.8 119.9L118.0 119.8L121.5 119.6L125.2 119.5L129.1 119.3L133.2 119.2L137.4 119.1L141.8 119.0L146.4 118.9L151.2 118.8L156.0 118.7L161.0 118.6L166.1 118.6L171.3 118.5L176.6 118.5L181.9 118.4L187.3 118.4L192.7 118.4L198.2 118.4L203.6 118.4L209.1 118.4L214.5 118.4L219.8 118.4L225.2 118.5L230.4 118.5L235.6 118.6L240.6 118.7L245.6 118.7L250.4 118.8L255.1 118.9L259.7 119.0L264.0 119.1L268.2 119.3L272.2 119.4L276.1 119.5L279.7 119.7L283.1 119.8L286.2 120.0L289.1 120.1L291.8 120.3"/>
              <path d="M279.5 68.6L281.6 68.7L283.5 68.9L285.2 69.0L286.6 69.2L287.8 69.3L288.7 69.5L289.4 69.6L289.8 69.8"/>
              <path d="M110.0 69.9L110.3 69.8L110.8 69.6L111.6 69.4L112.6 69.3L113.9 69.1L115.4 69.0L117.1 68.8L119.0 68.7L121.2 68.5L123.6 68.4L126.2 68.2L129.0 68.1L132.0 68.0L135.2 67.8L138.6 67.7L142.1 67.6L145.8 67.5L149.6 67.4L153.6 67.3L157.7 67.3L161.9 67.2L166.3 67.1L170.7 67.1L175.2 67.0L179.7 67.0L184.4 66.9L189.0 66.9L193.7 66.9L198.4 66.9L203.1 66.9L207.8 66.9L212.5 66.9L217.2 66.9L221.8 67.0L226.3 67.0L230.8 67.1L235.2 67.1L239.5 67.2L243.7 67.3L247.7 67.4L251.7 67.5L255.5 67.6L259.1 67.7L262.6 67.8L265.9 67.9L269.0 68.0L271.9 68.1L274.7 68.3L277.2 68.4L279.5 68.6"/>
              <path d="M245.9 31.1L247.1 31.2L248.2 31.3L249.2 31.4L250.0 31.5L250.7 31.6L251.2 31.7L251.6 31.8L251.9 31.9"/>
              <path d="M148.2 31.8L148.5 31.7L149.0 31.6L149.5 31.5L150.3 31.5L151.1 31.4L152.1 31.3L153.3 31.2L154.5 31.1L155.9 31.0L157.4 30.9L159.0 30.9L160.8 30.8L162.6 30.7L164.5 30.7L166.6 30.6L168.7 30.5L170.9 30.5L173.2 30.4L175.6 30.4L178.0 30.3L180.5 30.3L183.1 30.3L185.7 30.2L188.3 30.2L191.0 30.2L193.7 30.2L196.4 30.2L199.1 30.2L201.8 30.2L204.5 30.2L207.2 30.2L209.9 30.2L212.6 30.2L215.2 30.3L217.8 30.3L220.3 30.3L222.8 30.4L225.2 30.4L227.6 30.4L229.8 30.5L232.0 30.6L234.1 30.6L236.1 30.7L238.0 30.8L239.8 30.8L241.5 30.9L243.1 31.0L244.6 31.1L245.9 31.1"/>
            </g>
            <g class="tg-land">
              <path d="M218.8 224.1L218.5 224.1L219.0 224.0L219.6 223.9L219.7 223.8L220.1 223.7L220.1 223.7L220.8 223.6L220.7 223.7L220.2 223.8L219.6 224.0L218.8 224.1"/>
              <path d="M165.8 220.2L165.4 220.1L165.3 220.0L165.3 220.0L165.2 220.0L165.0 219.9L164.8 219.8L164.3 219.6L164.1 219.5L163.9 219.4L163.5 219.2L162.6 218.8L162.1 218.6L162.4 218.7L163.1 218.9L163.5 219.0L163.5 218.9L164.2 219.1L164.7 219.3L164.4 219.1L163.7 218.8L163.6 218.7L163.2 218.5L163.1 218.3L163.0 218.2L162.8 218.0L162.6 217.8L162.4 217.7L162.8 217.7L162.5 217.4L162.2 217.2L162.5 217.2L162.3 217.0L161.8 216.8L161.7 216.5L161.6 216.4L161.7 216.2L161.9 216.2L162.3 216.2L162.7 216.2L163.4 216.4L164.1 216.7L164.9 217.0L165.5 217.2L166.1 217.2L166.7 217.4L167.4 217.6L167.9 217.6L167.9 217.5L167.7 217.1L168.4 217.3L168.9 217.3L169.5 217.4L170.0 217.4L170.5 217.4L172.1 218.1L172.4 218.3L173.0 218.6L172.9 218.8L173.1 219.1L173.6 219.3L174.1 219.3L174.5 219.5L174.8 219.8L175.2 220.0L175.9 220.2L176.4 220.3L176.6 220.1L176.3 219.9L176.0 219.7L175.8 219.5L175.7 219.3L175.4 219.0L175.1 218.7L175.2 218.6L175.7 218.6L176.1 218.5L176.4 218.4L176.2 218.1L175.9 217.8L175.9 217.5L176.1 217.3L176.4 217.2L176.4 216.9L176.5 216.8L176.8 216.7L177.4 216.7L177.9 216.6L178.3 216.5L179.1 216.6L179.3 216.4L179.0 215.8L179.5 216.0L180.2 216.4L180.8 216.5L181.5 216.6L182.0 216.5L182.7 216.5L183.3 216.5L183.7 216.5L184.2 216.5L184.9 216.7L185.4 216.5L186.1 216.5L186.6 216.4L187.4 216.5L187.7 216.3L187.8 216.0L188.2 215.8L188.7 215.2L189.3 215.3L189.9 215.5L190.5 215.8L191.7 216.2L192.3 216.2L193.0 216.2L193.7 216.1L194.4 216.0L195.0 215.8L195.4 215.6L196.2 215.6L196.7 215.4L197.3 215.5L197.7 215.8L198.3 216.0L199.1 216.0L199.6 216.2L200.4 216.4L201.3 216.5L202.0 216.4L202.6 216.2L203.1 215.9L203.8 215.9L204.4 216.0L205.1 216.1L205.8 215.9L206.5 215.9L207.1 216.0L207.7 216.1L208.4 216.0L209.2 215.8L209.9 215.8L210.7 215.8L211.4 215.8L212.1 215.7L212.5 215.3L212.8 215.0L213.1 215.2L213.0 215.6L213.0 215.9L213.1 216.2L213.6 216.3L214.4 216.3L215.2 216.3L215.9 216.2L216.7 216.2L217.4 216.2L218.2 216.3L218.8 216.4L219.0 216.6L218.6 216.9L218.8 217.1L219.2 217.3L219.6 217.5L220.2 217.6L220.8 217.8L221.2 217.9L221.8 217.9L222.5 217.7L222.7 217.9L222.8 218.1L223.0 218.3L223.4 218.4L223.9 218.5L223.7 218.7L223.9 218.9L223.8 219.1L224.1 219.3L224.6 219.3L225.0 219.3L225.5 219.3L225.9 219.4L226.1 219.5L226.2 219.7L226.3 219.8L226.2 220.0L225.6 220.2L224.9 220.4L224.1 220.7L223.5 220.9L222.8 221.1L222.2 221.2L221.5 221.3L220.8 221.4L220.2 221.6L219.5 221.8L218.9 222.0L218.2 222.2L217.7 222.4L217.1 222.6L216.6 222.7L216.3 222.9L215.8 223.1L215.5 223.2L215.8 223.3L215.3 223.5L214.7 223.5L214.0 223.6L213.5 223.6L212.6 223.8L212.0 224.0L211.5 224.1L210.9 224.2L210.8 224.3L210.4 224.5L210.1 224.6L209.9 224.7L209.7 224.8L209.5 224.9L209.4 225.0L208.7 225.1L208.8 225.2L208.7 225.2L208.3 225.2L209.0 225.2L208.7 225.3L208.5 225.3L200.0 225.9L200.0 225.9L208.5 225.3L208.5 225.3L209.5 225.2L209.1 225.3L209.2 225.3L209.3 225.3L209.5 225.3L209.7 225.2L209.8 225.2L209.8 225.2L209.7 225.2L209.2 225.3L209.9 225.3L210.1 225.2L210.5 225.2L210.2 225.3L210.0 225.3L209.5 225.4L209.2 225.4L208.7 225.5L208.3 225.6L208.9 225.5L208.5 225.6L207.9 225.6L208.4 225.6L208.9 225.6L209.7 225.5L209.9 225.5L210.3 225.4L211.0 225.4L211.4 225.3L212.2 225.2L213.0 225.1L213.7 225.0L214.4 224.9L214.9 224.8L215.5 224.7L216.0 224.6L216.0 224.7L216.3 224.7L215.7 224.8L216.2 224.7L216.8 224.6L217.4 224.5L218.1 224.4L218.6 224.3L219.2 224.2L219.3 224.1L219.5 224.1L219.7 224.0L220.3 223.9L220.9 223.7L221.5 223.6L223.4 223.1L223.3 223.2L222.8 223.3L223.0 223.3L223.3 223.3L222.5 223.5L222.7 223.4L223.1 223.4L223.5 223.3L224.1 223.2L224.2 223.1L224.8 223.0L225.5 222.8L226.1 222.7L226.4 222.6L225.7 222.8"/>
              <path d="M150.2 199.7L149.1 199.8L148.5 199.2L148.2 198.7L148.1 198.4L148.9 198.8L149.8 198.9L150.0 199.1L150.2 199.7"/>
              <path d="M236.2 187.5L237.2 188.0L237.9 187.8L239.0 187.5L239.7 187.6L239.0 189.3L238.4 189.8L237.8 190.9L237.6 190.5L236.3 191.4L236.1 191.3L235.4 191.3L235.2 190.1L235.4 189.2L235.2 188.0L235.5 187.3L236.2 187.5"/>
              <path d="M264.4 188.5L264.2 189.1L265.1 188.6L264.9 189.2L264.5 189.7L263.7 190.4L262.5 191.3L261.7 191.9L261.5 192.5L260.9 192.5L259.9 193.0L259.0 193.8L257.5 195.1L256.4 195.7L255.8 196.0L255.0 196.0L254.9 195.5L254.0 195.4L254.3 194.9L255.4 194.0L257.4 192.7L258.2 192.5L259.1 192.0L260.3 191.3L261.3 190.6L262.4 189.6L263.0 189.3L263.6 188.5L264.6 187.9L264.4 188.5"/>
              <path d="M270.1 181.7L269.7 183.3L270.4 182.3L270.5 182.7L269.9 183.8L270.2 184.3L270.6 184.5L271.4 183.9L271.6 184.1L270.6 185.4L269.8 186.2L269.3 186.2L268.8 186.6L268.4 187.2L268.1 187.5L267.3 188.2L266.3 189.1L265.3 189.7L265.5 189.3L265.3 189.1L266.5 188.0L266.8 187.2L266.4 186.6L266.7 186.0L267.6 185.6L268.5 184.5L269.1 183.5L269.4 182.5L269.5 182.3L269.5 181.6L269.6 180.3L269.9 179.2L270.3 179.1L270.2 179.9L270.7 180.4L270.1 181.7"/>
              <path d="M272.8 159.0L272.3 159.4L271.8 158.9L271.2 158.1L270.7 157.2L270.3 156.0L270.3 155.4L270.8 155.4L271.3 156.0L271.6 156.6L271.9 157.1L272.5 158.2L272.8 159.0"/>
              <path d="M286.3 151.3L286.5 151.8L286.1 152.7L285.5 152.9L285.0 152.6L285.2 151.9L285.7 151.3L286.0 151.5L286.3 151.3"/>
              <path d="M287.4 150.4L286.7 150.7L286.8 150.1L287.3 149.7L287.6 149.6L288.2 149.1L288.0 150.0L287.4 150.4"/>
              <path d="M276.0 146.5L275.9 147.9L275.6 147.7L275.3 147.8L275.3 147.3L275.5 145.9L276.0 146.5"/>
              <path d="M106.3 145.0L106.9 147.2L107.3 148.0L107.4 148.8L107.4 149.3L107.0 148.3L107.0 148.9L107.4 150.1L107.6 150.9L107.5 151.3L107.9 152.8L108.3 154.8L108.8 157.2L109.6 160.4L110.3 162.8L110.9 164.8L110.6 165.2L110.5 165.9L110.0 165.5L109.4 165.0L108.9 164.1L108.2 162.7L107.5 161.4L107.0 160.1L106.6 158.9L106.7 158.6L106.5 158.0L106.3 156.7L105.9 155.6L105.6 154.8L105.1 153.7L104.6 152.1L104.5 151.2L104.2 150.0L104.5 149.9L104.6 149.6L104.8 149.2L105.0 149.2L105.0 148.1L105.2 147.0L105.2 146.1L105.0 145.4L105.3 145.5L105.3 144.3L105.1 143.2L105.2 142.4L105.5 143.1L105.9 143.9L106.3 145.0"/>
              <path d="M243.6 143.5L244.0 144.9L245.1 144.3L245.5 145.1L246.2 145.8L245.9 146.5L246.1 148.1L246.2 148.9L246.5 149.2L246.7 150.7L246.5 151.6L246.8 152.7L248.2 153.7L249.1 154.5L250.0 155.3L249.7 155.7L250.3 156.8L250.5 158.7L251.2 158.3L251.6 159.0L252.0 158.8L251.8 160.6L252.6 161.6L253.0 162.3L253.7 163.7L253.8 165.0L253.5 166.0L253.1 167.0L253.4 168.4L252.8 169.8L252.4 170.5L251.6 172.0L251.3 172.9L250.6 174.0L249.6 175.4L248.4 176.1L247.5 177.3L246.8 178.1L245.9 179.4L245.2 180.1L244.4 181.2L243.9 182.3L243.8 182.7L242.9 183.2L241.5 183.2L240.1 183.8L239.3 184.4L238.3 185.0L237.5 184.3L236.8 184.0L237.3 183.3L236.5 183.6L235.0 184.6L234.1 184.2L233.4 183.9L232.7 183.8L231.5 183.4L230.9 182.5L231.0 181.3L230.9 180.6L230.4 180.0L229.1 179.8L229.7 179.0L229.6 177.9L228.7 178.9L227.4 179.2L228.3 178.4L228.7 177.5L229.5 176.7L229.6 175.6L228.1 176.9L227.1 177.4L226.3 178.6L225.4 178.0L225.6 177.2L224.9 176.0L224.2 175.4L224.5 175.1L222.8 174.1L221.8 174.1L220.4 173.3L217.7 173.4L215.7 174.0L213.9 174.5L212.5 174.4L210.8 175.2L209.5 175.5L209.1 176.3L208.5 177.0L207.2 177.0L206.3 177.1L205.0 176.8L203.9 177.0L202.8 177.1L201.9 177.9L201.5 177.8L200.8 178.3L200.0 178.7L199.0 178.7L198.0 178.7L196.4 177.7L195.5 177.4L195.5 176.5L196.3 176.3L196.5 176.0L196.5 175.4L196.6 174.3L196.4 173.4L195.6 171.8L195.3 170.9L195.3 170.0L194.7 168.9L194.6 168.4L193.9 167.8L193.6 166.5L192.7 165.2L192.4 164.5L193.2 165.2L192.5 163.7L193.4 164.2L193.9 164.8L193.8 164.0L193.0 162.6L192.8 162.1L192.4 161.6L192.5 160.6L192.9 160.2L193.1 159.4L192.9 158.4L193.5 157.2L193.7 158.5L194.4 157.3L195.7 156.7L196.5 156.0L197.8 155.3L198.6 155.2L199.1 155.4L200.4 154.8L201.4 154.6L201.7 154.2L202.1 154.1L203.1 154.1L204.9 153.6L205.8 152.8L206.3 151.9L207.3 151.0L207.4 150.3L207.5 149.4L208.7 147.9L209.4 149.4L210.1 149.1L209.6 148.2L210.1 147.4L210.9 147.8L211.1 146.4L212.1 145.6L212.6 144.9L213.4 144.6L213.5 144.1L214.2 144.3L214.3 143.8L215.1 143.6L215.9 143.3L217.2 144.2L218.1 145.2L219.2 145.2L220.2 145.4L219.9 144.4L220.8 143.0L221.6 142.6L221.4 142.1L222.2 141.1L223.3 140.5L224.1 140.7L225.6 140.4L225.6 139.5L224.4 138.9L225.3 138.6L226.4 139.1L227.3 139.8L228.7 140.3L229.2 140.1L230.2 140.7L231.2 140.2L231.9 140.3L232.3 140.0L233.0 140.9L232.5 141.8L231.8 142.5L231.2 142.6L231.4 143.3L230.8 144.2L230.1 145.1L230.2 145.6L231.5 146.5L232.7 147.1L233.5 147.7L234.5 148.8L235.0 148.8L235.8 149.3L236.0 149.8L237.5 150.4L238.6 149.8L239.0 148.9L239.4 148.1L239.7 147.2L240.4 145.8L240.2 144.9L240.4 144.4L240.3 143.4L240.7 142.0L241.0 141.7L240.8 141.1L241.3 140.1L241.7 139.2L241.8 138.7L242.4 138.0L242.8 138.9L242.8 140.0L243.2 140.2L243.2 141.0L243.7 141.9L243.7 142.9L243.6 143.5"/>
              <path d="M204.8 136.9L204.1 136.9L201.7 135.7L203.4 135.3L204.3 135.9L205.0 136.4L204.8 136.9"/>
              <path d="M269.7 137.2L269.2 137.2L268.4 137.0L268.1 136.7L268.3 136.0L269.1 136.3L269.5 136.7L269.7 137.2"/>
              <path d="M270.8 136.7L270.6 137.1L269.8 135.5L269.6 134.4L270.1 134.4L270.4 135.9L270.8 136.7"/>
              <path d="M211.5 136.7L209.9 137.1L209.7 136.9L209.9 136.3L210.7 135.2L212.5 134.5L212.7 134.1L214.2 133.7L215.5 133.6L216.0 133.4L216.7 133.6L216.0 134.1L214.2 134.9L212.7 135.4L211.5 136.7"/>
              <path d="M199.8 133.0L200.5 133.5L201.6 133.4L202.0 134.1L199.9 134.5L198.7 134.7L197.7 134.7L198.4 133.7L199.3 133.7L199.8 133.0"/>
              <path d="M208.8 133.1L208.5 134.1L205.8 134.6L203.5 134.3L203.4 133.7L204.9 133.3L206.0 133.8L207.2 133.7L208.8 133.1"/>
              <path d="M268.7 134.4L268.7 134.8L267.7 134.0L267.0 133.3L266.6 132.7L266.8 132.5L267.4 133.0L268.4 133.8L268.7 134.4"/>
              <path d="M265.7 132.5L265.4 132.6L264.8 132.2L264.3 131.4L264.4 131.1L265.2 131.9L265.7 132.5"/>
              <path d="M183.2 130.7L186.6 130.9L187.0 130.1L190.3 131.0L191.0 132.2L193.7 132.5L195.9 133.5L193.8 134.2L191.9 133.5L190.2 133.6L188.4 133.4L186.7 133.1L184.6 132.4L183.3 132.3L182.6 132.5L179.4 131.8L179.0 131.0L177.4 130.9L178.6 129.1L180.7 129.2L182.2 129.9L182.9 130.1L183.2 130.7"/>
              <path d="M229.8 129.8L228.8 131.0L228.7 129.7L229.0 129.0L229.4 128.4L229.8 128.9L229.8 129.8"/>
              <path d="M263.4 131.5L263.0 131.7L262.4 131.0L261.9 129.8L261.6 128.4L261.8 128.2L262.0 128.8L262.4 129.2L263.0 130.4L263.6 131.0L263.4 131.5"/>
              <path d="M257.9 128.9L257.1 129.1L256.8 129.6L256.0 130.0L255.1 130.4L254.3 130.4L253.1 129.8L252.2 129.3L252.4 128.7L253.8 129.0L254.6 128.9L254.9 128.0L255.1 128.0L255.2 129.0L256.1 128.8L256.6 128.2L257.4 127.6L257.3 126.5L258.2 126.5L258.5 126.8L258.4 127.8L257.9 128.9"/>
              <path d="M222.4 124.1L223.1 125.5L221.6 124.7L220.1 124.5L219.1 124.7L217.8 124.6L218.3 123.6L220.5 123.5L222.4 124.1"/>
              <path d="M259.7 127.2L259.2 127.7L259.0 126.6L258.6 125.9L258.0 125.3L257.1 124.5L256.1 123.9L256.5 123.5L257.3 124.0L257.8 124.4L258.4 124.9L259.0 125.7L259.5 126.2L259.7 127.2"/>
              <path d="M228.9 120.6L229.4 123.5L231.1 124.6L232.6 122.7L234.6 121.7L236.1 121.7L237.6 122.3L238.8 123.0L240.6 123.4L243.4 124.7L246.4 125.8L247.5 126.7L248.4 127.6L248.6 128.7L251.2 129.9L251.5 130.8L250.0 131.0L250.3 132.2L251.6 133.4L252.5 135.4L253.4 135.3L253.2 136.1L254.4 136.5L253.9 136.8L255.4 137.6L255.2 138.1L254.2 138.2L253.9 137.7L252.6 137.5L251.1 137.2L249.9 136.0L249.1 135.0L248.4 133.4L246.4 132.6L245.0 133.1L244.0 133.7L244.1 135.0L242.8 135.6L241.9 135.3L240.2 135.2L238.8 133.7L237.1 133.3L236.7 133.8L234.5 133.8L235.3 132.4L236.4 131.9L236.1 129.9L235.3 128.4L232.0 126.8L230.6 126.6L228.0 124.9L227.5 125.8L226.8 126.0L226.4 125.3L226.4 124.5L225.1 123.6L227.0 123.0L228.3 123.0L228.1 122.5L225.5 122.5L224.9 121.4L223.3 121.1L222.5 120.2L224.9 119.7L225.8 119.2L228.6 119.9L228.9 120.6"/>
              <path d="M213.1 115.8L211.7 117.6L210.3 118.0L208.6 117.6L205.5 117.7L204.0 117.9L203.7 119.3L205.3 120.9L206.3 120.1L209.7 119.5L209.5 120.3L208.7 120.1L208.0 121.1L206.4 121.8L208.1 124.2L207.7 124.8L209.3 126.9L209.3 128.1L208.4 128.6L207.7 128.0L208.5 126.5L206.8 127.2L206.3 126.7L206.5 126.0L205.2 124.9L205.4 123.1L204.2 123.7L204.3 125.8L204.4 128.4L203.2 128.7L202.5 128.1L203.0 126.5L202.7 124.7L202.0 124.7L201.4 123.5L202.1 122.3L202.4 120.8L203.3 118.1L203.7 117.3L205.2 116.0L206.7 116.5L208.9 116.8L211.0 116.7L212.8 115.4L213.1 115.8"/>
              <path d="M219.3 116.4L219.2 118.0L218.3 117.8L218.0 118.9L218.7 119.8L218.2 120.1L217.5 118.9L217.0 116.6L217.3 115.1L217.9 114.5L218.1 115.5L219.1 115.6L219.3 116.4"/>
              <path d="M178.2 129.1L176.2 129.1L174.7 127.6L172.4 126.2L171.7 125.1L170.3 123.6L169.4 122.3L168.1 119.7L166.6 118.2L166.1 116.7L165.5 115.3L164.0 114.2L163.1 112.6L161.8 111.6L160.2 109.7L160.0 108.7L161.1 108.8L163.7 109.1L165.2 110.9L166.5 112.1L167.4 112.8L169.0 114.7L170.8 114.7L172.2 116.0L173.2 117.5L174.6 118.3L173.9 119.8L174.9 120.4L175.5 120.4L175.8 121.7L176.4 122.7L177.7 122.9L178.6 124.0L178.2 126.3L178.2 129.1"/>
              <path d="M199.8 115.1L201.8 116.7L199.7 116.9L199.1 118.2L199.1 119.8L197.4 121.1L197.3 122.9L196.6 125.7L196.4 125.0L194.3 125.8L193.6 124.7L192.3 124.6L191.4 124.0L189.3 124.7L188.6 123.8L187.4 123.9L185.9 123.7L185.7 121.3L184.8 120.8L183.9 119.2L183.6 117.7L183.9 116.0L184.9 114.8L186.2 115.4L187.6 115.0L188.0 113.5L188.8 113.2L190.9 112.8L192.2 111.3L193.1 110.2L193.9 109.5L195.4 108.5L196.8 107.3L197.7 105.9L198.4 105.9L199.4 106.8L199.4 107.5L200.6 108.0L202.1 108.6L202.0 109.3L200.8 109.4L201.1 110.3L199.8 110.9L198.8 112.5L200.1 114.2L199.8 115.1"/>
              <path d="M215.0 103.2L215.2 104.4L215.3 105.4L214.7 107.1L214.1 105.2L213.2 106.1L213.8 107.5L213.3 108.3L211.2 107.3L210.7 106.0L211.2 105.1L210.1 104.3L209.5 105.0L208.7 104.9L207.4 105.9L207.1 105.4L207.7 103.9L208.9 103.4L209.8 102.7L210.5 103.5L211.8 103.0L212.1 102.3L213.4 102.2L213.2 100.8L214.7 101.7L214.8 102.6L215.0 103.2"/>
              <path d="M138.1 107.9L136.8 108.3L136.2 106.9L136.2 104.4L137.1 101.4L138.0 102.4L138.5 103.6L139.1 105.5L138.7 107.4L138.1 107.9"/>
              <path d="M210.7 99.9L210.0 100.5L209.5 101.6L208.9 102.1L207.8 100.9L208.2 100.4L208.6 99.9L208.8 98.8L209.8 98.7L209.5 99.9L210.8 98.2L210.7 99.9"/>
              <path d="M200.9 101.6L198.5 103.3L199.4 102.0L200.7 100.9L201.8 99.7L202.7 98.0L203.0 99.4L201.8 100.4L200.9 101.6"/>
              <path d="M206.9 97.0L208.0 97.6L209.1 97.6L209.1 98.3L208.3 99.1L207.1 99.6L207.1 98.8L207.2 97.9L206.9 97.0"/>
              <path d="M213.3 96.6L213.8 98.6L212.4 98.1L212.5 98.7L213.0 99.8L212.1 100.2L212.0 98.9L211.5 98.8L211.2 97.8L212.2 97.9L212.2 97.2L211.1 95.9L212.8 95.9L213.3 96.6"/>
              <path d="M205.7 85.6L206.8 86.1L207.3 85.6L207.5 86.1L207.2 86.8L207.8 88.0L207.4 89.4L206.4 90.0L206.1 91.4L206.6 92.8L207.5 93.0L208.3 92.8L210.5 93.7L210.3 94.7L210.9 95.1L210.7 95.9L209.4 95.0L208.7 94.1L208.2 94.8L207.1 93.7L205.5 94.0L204.6 93.6L204.7 92.9L205.3 92.4L204.7 92.0L204.5 92.6L203.6 91.6L203.4 90.9L203.3 89.2L204.0 89.8L204.1 87.1L204.7 85.6L205.7 85.6"/>
              <path d="M186.9 85.3L185.4 86.1L184.0 85.6L184.0 84.2L184.9 83.4L186.8 82.9L187.7 82.9L188.1 83.6L187.3 84.3L186.9 85.3"/>
              <path d="M298.1 87.8L298.2 88.1L298.1 87.8L297.9 87.3L297.7 86.7L297.6 86.5L297.5 86.3L297.4 85.9L297.3 85.8L297.4 85.8L297.5 86.1L297.6 86.3L297.7 86.5L297.9 87.1L297.9 87.2L298.0 87.6L298.1 87.8"/>
              <path d="M297.1 85.1L297.1 85.2L296.9 84.8L296.9 84.7L296.8 84.6L296.8 84.5L296.9 84.6L297.0 84.9L297.1 85.1"/>
              <path d="M296.4 83.9L296.4 84.0L296.4 83.9L296.3 83.9L296.2 83.5L296.1 83.4L296.1 83.2L296.1 83.3L296.4 83.9"/>
              <path d="M295.6 82.7L295.7 82.8L295.5 82.5L295.5 82.4L295.4 82.2L295.5 82.3L295.6 82.7"/>
              <path d="M205.3 78.4L204.6 79.8L203.7 78.4L203.5 77.1L204.4 75.5L205.7 74.3L206.5 74.8L206.2 75.8L205.3 78.4"/>
              <path d="M224.6 60.8L224.9 61.3L224.3 62.2L223.6 61.7L222.9 62.0L222.7 62.9L221.6 62.5L221.5 61.8L222.2 60.9L223.0 61.1L223.5 60.5L224.6 60.8"/>
              <path d="M116.1 61.1L115.5 61.7L115.3 62.0L115.3 62.1L114.7 62.8L114.8 62.6L115.2 62.0L115.2 61.9L115.3 61.9L115.5 61.6L115.6 61.5L116.1 61.1"/>
              <path d="M232.4 56.6L232.2 57.7L232.6 58.4L232.2 59.4L230.6 60.1L228.2 60.1L226.5 61.8L225.4 61.2L225.1 60.1L222.7 60.4L221.1 61.1L219.4 61.1L221.1 62.2L220.5 64.8L219.6 65.4L218.8 64.8L218.9 63.4L217.9 63.0L217.2 62.0L218.5 61.5L219.2 60.6L220.5 59.9L221.4 58.9L224.1 58.5L225.7 58.8L226.6 56.3L227.6 57.0L229.2 55.6L229.8 55.0L230.2 53.4L229.4 51.9L229.7 51.0L231.0 50.8L232.3 52.7L232.6 53.8L231.9 55.1L232.4 56.6"/>
              <path d="M232.6 47.2L233.5 47.5L234.1 47.0L235.0 48.4L233.4 48.7L232.9 50.0L230.6 49.1L230.5 50.5L229.1 50.5L228.5 49.2L228.7 48.2L230.0 48.2L229.6 46.4L229.6 45.5L231.5 46.8L232.6 47.2"/>
              <path d="M228.5 39.4L230.6 41.5L228.8 41.1L229.0 42.7L230.7 43.9L231.0 44.8L229.8 44.0L229.5 45.0L228.8 44.0L228.4 42.8L227.7 41.5L227.6 40.7L226.8 39.2L225.7 38.1L225.0 36.7L225.6 36.2L224.9 35.7L225.3 35.6L225.9 36.3L226.9 37.3L227.4 38.3L228.5 39.4"/>
              <path d="M250.7 31.6L250.8 31.8L250.4 31.6L249.8 31.3L249.8 31.2L250.1 31.3L250.7 31.6"/>
              <path d="M243.2 28.2L243.7 28.4L243.7 28.3L244.3 28.5L244.8 28.7L244.9 28.8L245.1 28.9L244.5 28.7L244.2 28.6L244.0 28.6L243.8 28.5L243.2 28.2"/>
              <path d="M238.0 26.1L238.6 26.2L237.4 25.7L238.4 25.9L240.3 26.6L240.7 26.9L240.5 26.9L242.0 27.7L242.2 27.8L241.9 27.8L241.1 27.5L240.3 27.2L239.6 26.9L239.0 26.8L238.8 26.8L238.1 26.6L237.6 26.3L237.6 26.4L238.4 26.8L238.8 27.1L233.0 24.4L234.8 24.9L237.1 25.6L238.0 26.1"/>
              <path d="M230.4 23.3L230.1 23.3L229.1 22.9L229.1 22.9L229.3 22.9L230.1 23.1L230.3 23.1L230.4 23.3"/>
              <path d="M255.4 34.0L255.8 34.3L256.5 34.7L257.1 35.2L257.8 35.6L258.3 36.0L258.1 35.9L258.3 36.2L258.7 36.5L259.0 36.8L259.0 37.0L258.8 36.8L258.3 36.4L258.1 36.1L257.5 35.6L257.5 35.5L257.0 35.1L256.2 34.6L256.0 34.4L255.5 34.1L254.3 33.4L253.5 32.8L253.8 33.1L253.5 32.9L254.0 33.2L253.2 32.7L253.7 33.0L252.9 32.6L253.4 32.9L253.3 32.9L252.3 32.3L251.8 32.0L251.1 31.7L251.2 31.8L250.3 31.4L249.8 31.1L248.9 30.6L248.1 30.2L247.3 29.8L246.6 29.3L245.9 28.9L245.9 28.9L246.2 29.0L245.6 28.7L245.8 28.8L245.4 28.5L244.7 28.2L244.3 28.0L243.8 27.7L243.7 27.7L243.9 27.9L244.2 28.0L243.8 27.8L243.7 27.9L243.1 27.7L242.3 27.3L241.2 26.9L240.8 26.6L240.4 26.3L240.5 26.3L241.3 26.7L241.5 26.7L240.4 26.3L239.6 26.0L238.7 25.6L237.8 25.3L237.1 25.0L236.3 24.7L236.5 24.7L235.9 24.5L235.2 24.2L234.5 23.9L234.4 23.9L233.8 23.6L234.0 23.7"/>
              <path d="M213.0 21.5L212.3 21.5L211.2 21.5L211.1 21.4L211.3 21.3L211.8 21.2L212.7 21.4L213.0 21.5"/>
              <path d="M214.5 20.8L214.4 20.9L213.6 20.9L212.5 20.7L212.4 20.6L213.2 20.7L214.5 20.8"/>
              <path d="M211.8 20.5L212.1 20.8L210.5 20.8L209.9 20.9L208.6 20.6L208.4 20.3L208.9 20.3L210.0 20.3L211.8 20.5"/>
              <path d="M170.1 23.3L169.8 23.4L169.1 23.3L169.7 23.1L169.7 23.0L170.5 22.7L171.1 22.6L172.0 22.3L173.7 21.8L173.7 21.8L175.6 21.3L176.3 21.1L177.6 20.9L179.3 20.6L180.4 20.5L181.4 20.3L182.0 20.2L181.7 20.4L181.1 20.5L179.4 20.7L178.0 21.0L175.8 21.4L173.9 21.9L172.0 22.4L170.8 22.9L170.1 23.3"/>
              <path d="M195.5 19.9L195.5 20.1L195.9 20.0L197.1 20.0L198.0 20.2L198.3 20.3L198.1 20.5L197.6 20.7L196.2 20.9L195.8 21.0L196.3 21.1L197.0 21.2L197.5 21.1L197.7 21.4L197.9 21.3L198.8 21.2L200.4 21.3L200.5 21.5L202.8 21.6L202.7 21.2L203.8 21.3L204.6 21.3L205.6 21.5L206.0 21.9L205.8 22.1L206.8 22.5L207.9 22.7L208.0 22.1L209.1 22.4L209.9 22.3L211.1 22.4L211.3 22.3L212.3 22.4L211.3 21.9L211.7 21.7L216.6 22.1L217.6 22.4L219.6 22.8L221.3 22.8L222.4 22.9L223.2 23.1L224.0 23.6L224.9 23.8L225.3 23.7L226.0 23.7L227.1 23.8L227.7 23.8L229.6 24.3L229.7 24.2L228.5 23.8L228.1 23.5L229.6 23.7L230.3 23.7L231.9 24.1L233.0 24.4L238.8 27.1L238.8 27.1L239.0 27.4L238.4 27.3L239.5 27.7L240.9 28.4L241.5 28.6L242.1 29.0L242.4 29.2L241.3 28.9L241.1 29.5L240.8 29.6L240.9 30.1L240.9 30.6L241.3 31.0L239.7 30.3L239.1 31.0L238.4 30.6L238.3 31.0L237.3 30.8L237.8 31.4L238.0 32.2L238.5 32.6L239.5 32.9L241.0 34.2L240.4 34.3L240.9 35.1L241.7 35.5L240.9 36.0L241.7 37.2L240.7 37.4L241.4 38.5L241.0 39.4L240.1 38.7L238.4 37.1L235.9 34.8L235.0 33.5L235.1 32.9L234.7 32.5L235.6 32.3L235.6 31.2L235.7 30.4L235.9 29.7L234.8 28.6L234.1 28.7L234.7 29.3L234.3 30.2L232.5 29.1L231.1 29.4L230.9 30.7L232.1 31.3L230.7 31.5L229.6 31.5L229.0 30.9L227.7 30.7L227.1 31.2L224.5 31.0L221.9 31.2L220.2 32.9L217.7 35.1L219.3 35.3L220.1 35.9L221.2 36.2L221.6 35.7L222.7 35.7L224.8 36.9L225.3 37.8L225.0 38.9L225.6 40.2L225.9 42.0L224.9 43.7L224.8 44.5L223.7 45.9L222.5 47.3L221.9 48.1L220.4 48.8L219.6 48.8L218.7 48.2L217.2 49.1L217.0 49.5L216.5 49.5L216.0 49.9L215.7 50.3L216.0 51.3L215.3 51.6L215.1 51.8L214.7 52.2L213.8 52.4L213.2 52.8L213.3 53.4L213.1 53.5L213.7 53.7L214.6 54.3L216.1 56.0L216.5 56.9L216.8 58.6L216.4 59.3L215.1 59.6L214.0 60.2L212.7 60.3L212.4 59.5L212.6 58.5L211.8 57.0L212.8 56.7L211.7 55.5L211.0 55.3L210.8 55.5L210.4 55.6L210.3 55.4L210.0 55.2L209.6 55.0L209.9 54.4L210.2 54.3L210.1 54.0L210.3 53.3L210.2 53.0L209.4 52.9L208.7 52.5L206.8 52.9L205.8 53.5L204.3 53.9L205.0 53.3L204.7 52.8L205.8 51.8L205.0 51.1L203.8 51.6L202.3 52.5L201.4 53.4L200.1 53.5L199.3 54.1L200.1 55.1L201.3 55.3L201.3 55.9L202.5 56.3L204.0 55.3L205.3 55.9L206.3 55.9L206.6 56.7L204.5 57.0L203.9 57.8L202.5 58.5L201.7 59.5L203.3 60.3L204.0 61.8L204.9 63.2L206.0 64.3L206.1 65.4L205.1 65.9L205.5 66.7L206.4 67.2L206.2 68.4L205.9 69.7L205.0 69.8L203.9 71.5L202.6 73.6L201.1 75.5L198.8 77.0L196.5 78.4L194.6 78.6L193.5 79.3L193.0 78.8L192.0 79.6L189.6 80.5L187.8 80.7L187.2 82.5L186.2 82.6L185.9 81.4L186.3 80.7L184.1 80.2L183.3 80.5L181.0 81.9L179.5 83.5L179.0 84.7L180.2 86.5L181.6 88.7L183.1 89.8L184.1 91.2L184.8 94.4L184.4 97.5L182.9 98.6L180.9 99.8L179.4 101.3L177.1 103.0L176.6 101.8L177.1 100.6L175.8 99.6L174.4 99.4L173.7 98.5L173.0 96.6L171.5 95.8L170.0 95.9L170.4 94.5L168.9 94.5L168.6 96.5L167.6 99.1L166.9 100.6L167.0 101.9L168.1 102.0L168.7 103.6L168.9 105.1L169.8 106.1L170.9 106.3L171.7 107.3L172.1 107.4L173.1 108.5L173.8 109.7L173.9 110.9L173.7 111.7L173.9 112.4L174.0 113.4L174.6 113.9L175.3 115.5L175.2 116.1L174.0 116.3L172.4 114.9L170.3 113.5L170.1 112.6L169.1 111.4L168.9 109.9L168.3 108.9L168.6 107.6L168.2 106.9L167.6 106.2L167.3 105.3L166.4 104.3L165.7 103.5L165.3 104.5L165.1 103.5L165.3 102.4L165.9 100.7L165.8 99.4L166.4 98.0L165.9 97.0L166.2 95.1L165.6 94.2L165.2 92.1L165.2 89.9L164.6 88.5L163.4 89.4L161.5 90.6L160.6 90.5L159.6 90.1L160.5 88.0L160.3 86.4L159.4 84.4L159.7 83.8L158.8 83.6L157.9 82.2L157.6 81.4L157.7 80.5L157.5 79.7L157.1 78.8L155.7 78.7L155.7 79.4L155.1 80.4L154.5 80.0L154.2 80.3L153.9 80.2L153.3 80.0L153.0 80.6L152.0 80.6L150.1 81.0L150.0 82.3L149.0 83.3L146.7 84.5L144.7 86.5L143.4 87.6L141.8 88.8L141.7 89.6L140.9 90.0L139.5 90.7L138.9 90.8L138.2 92.1L138.2 94.4L138.0 95.8L137.2 97.5L136.8 100.5L136.1 100.6L135.3 102.0L135.7 102.6L134.3 103.1L133.8 104.3L133.2 104.9L132.0 103.2L131.7 100.8L131.4 99.0L131.1 98.2L130.6 96.5L130.7 94.3L130.7 93.2L130.0 90.9L130.2 87.6L130.3 85.4L130.9 83.3L131.1 81.8L129.1 82.8L128.3 82.7L127.5 80.7L128.2 80.1L128.1 79.4L127.2 78.1L126.6 77.7L126.7 76.5L126.4 75.3L124.4 75.7L122.8 75.8L121.4 76.1L120.0 75.7L119.2 75.4L118.4 75.3L118.9 73.3L118.7 73.0L117.9 73.4L116.8 74.2L116.2 73.7L116.1 72.5L115.7 72.1L116.0 70.7L116.7 68.6L116.2 68.9L116.2 68.4L115.6 69.0L115.3 69.0L115.1 69.7L114.8 70.0L114.4 71.2L113.9 72.6L114.0 72.9L113.9 73.5L113.9 74.1L113.7 74.8L113.4 75.3L113.2 75.8L113.2 76.3L113.0 76.8L112.9 77.2L113.4 76.0L114.0 75.2L114.2 75.0L114.2 75.5L113.8 76.4L113.2 77.4L113.1 78.0L113.2 77.9L113.1 78.4L113.7 78.1L114.3 78.1L114.7 78.1L115.7 76.9L116.6 75.8L117.6 74.8L118.0 74.2L118.1 74.4L117.7 75.1L117.5 75.4L117.0 76.6L116.9 77.7L117.2 78.3L117.7 78.5L118.1 78.7L118.1 79.7L118.1 80.2L118.4 80.4L118.2 80.8L117.6 81.8L117.3 82.3L116.7 82.8L116.0 84.0L115.7 83.9L115.3 84.3L114.9 85.2L114.7 86.3L114.6 86.6L114.2 86.6L113.5 87.2L113.1 88.1L112.8 88.5L112.3 88.5L111.9 88.9L111.7 89.6L111.2 90.1L110.8 90.0L110.1 90.6L109.8 90.7L109.1 91.2L108.8 92.0L108.6 92.6L107.7 93.4L106.5 94.3L105.6 95.6L105.3 95.7L105.1 95.6L104.6 96.4L104.2 96.8L103.7 96.9L103.5 97.0L103.3 97.5L103.2 97.7L103.0 98.1L102.7 98.1L102.5 98.4L102.2 98.3L102.3 97.3L102.5 96.3L102.6 95.8L102.8 94.5L102.9 93.8L103.0 93.7L103.2 93.0L103.3 92.6L103.5 91.9L103.7 91.1L103.7 90.6L103.9 89.9L103.8 89.3L104.1 87.9L104.4 86.6L104.6 85.4L104.5 85.2L104.9 83.6L105.3 82.4L105.8 81.4L106.4 79.6L106.5 79.0L106.5 78.7L106.8 77.8L107.0 77.4L107.3 76.6L107.4 76.2L107.9 75.0L108.5 73.8L108.9 72.7L108.8 72.7L109.3 71.9L109.6 71.3L110.0 70.7L110.1 70.4L109.7 71.1L109.0 72.3L108.6 73.1L108.4 73.4L108.6 72.9L108.9 72.3L110.1 70.0L110.0 70.2L109.1 71.8L108.3 73.4L107.2 75.9L106.8 76.7L106.4 77.6L105.8 79.4L105.6 79.7L105.2 80.8L104.8 82.2L104.7 82.5L104.2 84.2L104.0 84.5L103.4 86.2L102.8 88.3L102.8 88.7L102.7 89.3L102.3 91.2L101.9 92.8L101.9 93.6L102.0 95.2L101.9 96.2L101.9 97.1L101.9 97.7L102.0 98.2L102.0 98.8L101.9 99.5L101.5 100.0L101.6 100.4L101.7 100.7L101.7 101.4L101.7 102.2L102.0 102.1L102.6 101.6L103.2 101.4L103.8 100.8L104.1 100.6L104.4 100.3L104.8 100.2L105.0 100.1L105.4 99.8L105.7 99.6L106.2 99.0L106.4 99.0L106.4 99.4L106.1 100.5L105.9 101.4L105.7 102.1L105.2 104.0L104.6 106.0L103.9 108.4L103.1 111.1L102.4 113.1L101.5 115.7L100.9 117.2L100.1 119.1L99.6 120.5L99.1 122.8L99.0 123.8L99.0 124.2L98.7 125.0L98.6 125.7L98.5 125.9L98.5 127.2L98.4 127.9L98.4 129.1L98.3 129.8L98.4 132.0L98.5 133.0L98.8 133.7L98.9 134.1L98.9 135.2L99.0 135.8L99.1 136.6L99.4 137.7L99.8 139.5L100.0 139.9L100.2 140.6L100.6 142.4L100.9 144.0L101.6 146.7L101.9 147.6L102.1 148.9L102.3 150.1L102.4 151.2L102.3 151.9L102.2 152.8L102.5 154.8L102.5 155.1L102.8 156.4L102.8 156.8L103.2 158.0L103.8 159.3L104.3 160.2L104.5 160.7L104.5 160.6L105.1 162.3L105.4 163.1L105.6 163.3L105.9 164.0L106.1 164.7L106.2 165.3L106.4 166.2L106.6 166.9L107.0 167.5L107.0 167.6L107.5 168.5L108.0 169.7L108.7 171.0L109.1 171.8L109.4 172.6L109.5 172.8L110.0 173.7L110.4 174.5L111.0 175.6L112.0 177.3L112.6 178.2L113.0 179.0"/>
              <path d="M111.1 68.1L111.4 67.6L111.5 67.4L111.4 67.6L111.0 68.4L111.3 67.8L111.2 68.2L111.3 68.2L111.6 67.8L112.0 67.3L112.0 67.2L112.5 66.4L113.3 65.3L113.5 64.9L113.5 64.9L114.4 63.6L115.2 62.6L115.3 62.5L116.0 61.4L116.5 60.8L116.9 60.1L117.4 59.5L117.2 59.7L117.3 59.4L116.6 60.3L116.2 60.5L116.7 59.8L116.7 59.8L116.2 60.4L116.1 60.6"/>
              <path d="M121.7 53.5L122.6 52.6L123.1 52.2L123.4 52.1L122.9 52.9L122.7 53.4L123.2 53.1L123.3 53.2L124.3 52.4L124.9 51.9L125.6 51.0L125.9 50.5L125.8 50.4L126.1 50.0L126.8 49.0L127.0 48.5L127.6 47.8L128.0 47.6L129.2 46.5L129.6 46.0L130.5 45.5L130.7 45.2L130.3 45.4L130.1 45.6L129.5 46.0L129.3 46.1L128.6 46.6L127.8 47.4L127.6 47.6L127.9 47.5L127.4 48.0L127.0 48.3L126.0 49.1L126.2 48.8L126.8 48.2L127.1 47.9L127.4 47.6L127.9 47.2L128.2 46.9L128.3 46.7L128.8 46.2L128.6 46.4L127.9 47.1"/>
              <path d="M163.4 24.6L163.2 24.7L161.8 25.4L161.2 25.7L160.1 26.1L159.1 26.5L158.4 26.8L159.2 26.3L158.9 26.5L157.8 26.9L155.4 28.1L155.1 28.3L154.7 28.5L155.5 28.1L156.2 27.7L156.8 27.4L156.2 27.9L156.7 27.6L157.8 27.1L159.7 26.3L159.8 26.4L159.4 26.6L160.7 26.1L161.4 25.7L162.5 25.3L163.4 24.9L163.4 25.0L162.6 25.4L162.2 25.5L161.3 25.9L160.9 26.1L161.6 25.9L162.7 25.5L163.9 25.1L166.2 24.5L166.3 24.5L165.1 24.9L165.3 25.0L166.1 24.7L166.7 24.7L167.8 24.4L167.3 24.7L168.7 24.3L169.2 24.0L169.8 23.8L170.4 23.9L170.5 24.0L170.5 24.7L171.5 24.3L171.7 24.0L172.0 23.9L171.6 23.9L172.4 23.6L173.2 23.1L173.6 23.0L175.5 22.5L176.9 22.0L177.4 21.9L178.1 22.0L177.5 22.2L176.1 22.7L175.9 22.8L175.2 23.2L173.5 24.0L173.3 24.4L172.3 24.8L169.6 25.8L170.0 25.9L170.6 25.6L171.5 25.4L172.2 25.1L173.2 24.8L173.5 24.4L174.5 24.0L174.1 24.0L174.7 23.7L176.2 23.1L176.6 22.6L178.2 22.3L178.9 21.9L179.2 21.9L178.7 22.2L177.4 22.7L177.7 22.8L178.3 22.4L179.5 22.2L180.4 22.1L180.6 22.4L181.1 22.0L182.2 21.5L183.1 21.3L184.1 21.3L185.1 21.3L185.2 21.0L186.3 20.7L186.8 20.7L188.0 20.5L189.2 20.4L189.5 20.3L190.6 20.3L190.8 20.4L192.0 20.2L192.8 20.2L193.1 20.0L193.7 19.8L194.8 19.7L195.3 19.8L194.7 19.9L195.5 19.9"/>
              <path d="M195.3 19.5L193.1 19.6L194.4 19.2L194.7 19.2L194.9 19.2L195.6 19.4L195.3 19.5"/>
              <path d="M184.3 19.2L183.9 19.3L183.7 19.3L183.4 19.4L183.0 19.4L183.3 19.4L183.9 19.3L183.7 19.3L184.2 19.2L184.4 19.2L183.9 19.3L184.4 19.2L184.8 19.2L184.6 19.2L184.3 19.2"/>
              <path d="M193.8 19.3L193.0 19.4L192.3 19.3L192.0 19.2L192.3 19.0L192.1 19.0L193.3 18.8L194.1 18.8L194.2 18.9L194.4 19.1L193.8 19.3"/>
            </g>
            <circle cx="200.0" cy="122.0" r="104.0" fill="url(#tg-limb)"/>
            <g class="tg-arcs">
              <g class="tr-arc" style="--w:3.1;--d:2.9s;--t:0.0s"><path class="a-base" pathLength="1000" d="M179.9 129.7L180.0 128.8L180.2 127.9L180.3 127.0L180.4 126.0L180.6 125.1L180.8 124.1L180.9 123.1L181.1 122.1L181.3 121.1L181.5 120.0L181.8 118.9L182.0 117.9L182.2 116.8L182.5 115.7L182.7 114.5L183.0 113.4L183.3 112.3L183.6 111.1L183.9 109.9L184.2 108.7L184.5 107.6L184.9 106.4L185.2 105.2L185.6 104.0L185.9 102.8L186.3 101.6L186.7 100.4L187.1 99.2L187.5 98.0L187.9 96.8L188.3 95.6L188.7 94.5L189.1 93.3L189.6 92.1L190.0 91.0L190.4 89.9L190.9 88.7L191.3 87.6L191.8 86.6L192.2 85.5L192.7 84.4L193.2 83.4L193.6 82.4L194.1 81.4L194.5 80.5L195.0 79.5L195.5 78.6L195.9 77.7L196.4 76.9L196.8 76.1L197.3 75.3L197.7 74.5L198.2 73.7L198.6 73.0L199.0 72.3L199.5 71.7L199.9 71.1L200.3 70.5L200.7 69.9L201.1 69.4L201.5 68.8L201.9 68.4L202.3 67.9L202.7 67.5L203.1 67.1L203.4 66.7L203.8 66.4L204.1 66.1L204.5 65.8L204.8 65.5L205.1 65.3L205.4 65.1"/><path class="a-glow" pathLength="1000" d="M179.9 129.7L180.0 128.8L180.2 127.9L180.3 127.0L180.4 126.0L180.6 125.1L180.8 124.1L180.9 123.1L181.1 122.1L181.3 121.1L181.5 120.0L181.8 118.9L182.0 117.9L182.2 116.8L182.5 115.7L182.7 114.5L183.0 113.4L183.3 112.3L183.6 111.1L183.9 109.9L184.2 108.7L184.5 107.6L184.9 106.4L185.2 105.2L185.6 104.0L185.9 102.8L186.3 101.6L186.7 100.4L187.1 99.2L187.5 98.0L187.9 96.8L188.3 95.6L188.7 94.5L189.1 93.3L189.6 92.1L190.0 91.0L190.4 89.9L190.9 88.7L191.3 87.6L191.8 86.6L192.2 85.5L192.7 84.4L193.2 83.4L193.6 82.4L194.1 81.4L194.5 80.5L195.0 79.5L195.5 78.6L195.9 77.7L196.4 76.9L196.8 76.1L197.3 75.3L197.7 74.5L198.2 73.7L198.6 73.0L199.0 72.3L199.5 71.7L199.9 71.1L200.3 70.5L200.7 69.9L201.1 69.4L201.5 68.8L201.9 68.4L202.3 67.9L202.7 67.5L203.1 67.1L203.4 66.7L203.8 66.4L204.1 66.1L204.5 65.8L204.8 65.5L205.1 65.3L205.4 65.1"/><path class="a-core" pathLength="1000" d="M179.9 129.7L180.0 128.8L180.2 127.9L180.3 127.0L180.4 126.0L180.6 125.1L180.8 124.1L180.9 123.1L181.1 122.1L181.3 121.1L181.5 120.0L181.8 118.9L182.0 117.9L182.2 116.8L182.5 115.7L182.7 114.5L183.0 113.4L183.3 112.3L183.6 111.1L183.9 109.9L184.2 108.7L184.5 107.6L184.9 106.4L185.2 105.2L185.6 104.0L185.9 102.8L186.3 101.6L186.7 100.4L187.1 99.2L187.5 98.0L187.9 96.8L188.3 95.6L188.7 94.5L189.1 93.3L189.6 92.1L190.0 91.0L190.4 89.9L190.9 88.7L191.3 87.6L191.8 86.6L192.2 85.5L192.7 84.4L193.2 83.4L193.6 82.4L194.1 81.4L194.5 80.5L195.0 79.5L195.5 78.6L195.9 77.7L196.4 76.9L196.8 76.1L197.3 75.3L197.7 74.5L198.2 73.7L198.6 73.0L199.0 72.3L199.5 71.7L199.9 71.1L200.3 70.5L200.7 69.9L201.1 69.4L201.5 68.8L201.9 68.4L202.3 67.9L202.7 67.5L203.1 67.1L203.4 66.7L203.8 66.4L204.1 66.1L204.5 65.8L204.8 65.5L205.1 65.3L205.4 65.1"/></g>
              <g class="tr-arc" style="--w:2.06;--d:5.35s;--t:5.53s"><path class="a-base" pathLength="1000" d="M179.9 129.7L182.1 127.7L184.3 125.5L186.6 123.4L189.0 121.1L191.6 118.8L194.2 116.4L196.9 114.0L199.6 111.5L202.5 108.9L205.4 106.3L208.4 103.7L211.5 101.0L214.6 98.3L217.8 95.5L221.0 92.8L224.2 90.0L227.5 87.2L230.8 84.4L234.1 81.7L237.4 78.9L240.7 76.2L243.9 73.5L247.2 70.8L250.5 68.2L253.7 65.6L256.8 63.1L259.9 60.6L262.9 58.3L265.9 56.0L268.8 53.7L271.6 51.6L274.3 49.6L276.9 47.7L279.4 45.8L281.8 44.1L284.0 42.5L286.2 41.1L288.2 39.7L290.0 38.5L291.7 37.4L293.3 36.4L294.7 35.6L296.0 34.9L297.1 34.4L298.1 34.0L298.9 33.7L299.5 33.5L300.0 33.5L300.3 33.7L300.5 33.9L300.5 34.3L300.4 34.9L300.1 35.5L299.6 36.3L299.0 37.2L298.3 38.2L297.4 39.3L296.4 40.5L295.3 41.8L294.0 43.3L292.7 44.8L291.2 46.4L289.6 48.0L287.9 49.8L286.1 51.6L284.2 53.4L282.3 55.4"/><path class="a-glow" pathLength="1000" d="M179.9 129.7L182.1 127.7L184.3 125.5L186.6 123.4L189.0 121.1L191.6 118.8L194.2 116.4L196.9 114.0L199.6 111.5L202.5 108.9L205.4 106.3L208.4 103.7L211.5 101.0L214.6 98.3L217.8 95.5L221.0 92.8L224.2 90.0L227.5 87.2L230.8 84.4L234.1 81.7L237.4 78.9L240.7 76.2L243.9 73.5L247.2 70.8L250.5 68.2L253.7 65.6L256.8 63.1L259.9 60.6L262.9 58.3L265.9 56.0L268.8 53.7L271.6 51.6L274.3 49.6L276.9 47.7L279.4 45.8L281.8 44.1L284.0 42.5L286.2 41.1L288.2 39.7L290.0 38.5L291.7 37.4L293.3 36.4L294.7 35.6L296.0 34.9L297.1 34.4L298.1 34.0L298.9 33.7L299.5 33.5L300.0 33.5L300.3 33.7L300.5 33.9L300.5 34.3L300.4 34.9L300.1 35.5L299.6 36.3L299.0 37.2L298.3 38.2L297.4 39.3L296.4 40.5L295.3 41.8L294.0 43.3L292.7 44.8L291.2 46.4L289.6 48.0L287.9 49.8L286.1 51.6L284.2 53.4L282.3 55.4"/><path class="a-core" pathLength="1000" d="M179.9 129.7L182.1 127.7L184.3 125.5L186.6 123.4L189.0 121.1L191.6 118.8L194.2 116.4L196.9 114.0L199.6 111.5L202.5 108.9L205.4 106.3L208.4 103.7L211.5 101.0L214.6 98.3L217.8 95.5L221.0 92.8L224.2 90.0L227.5 87.2L230.8 84.4L234.1 81.7L237.4 78.9L240.7 76.2L243.9 73.5L247.2 70.8L250.5 68.2L253.7 65.6L256.8 63.1L259.9 60.6L262.9 58.3L265.9 56.0L268.8 53.7L271.6 51.6L274.3 49.6L276.9 47.7L279.4 45.8L281.8 44.1L284.0 42.5L286.2 41.1L288.2 39.7L290.0 38.5L291.7 37.4L293.3 36.4L294.7 35.6L296.0 34.9L297.1 34.4L298.1 34.0L298.9 33.7L299.5 33.5L300.0 33.5L300.3 33.7L300.5 33.9L300.5 34.3L300.4 34.9L300.1 35.5L299.6 36.3L299.0 37.2L298.3 38.2L297.4 39.3L296.4 40.5L295.3 41.8L294.0 43.3L292.7 44.8L291.2 46.4L289.6 48.0L287.9 49.8L286.1 51.6L284.2 53.4L282.3 55.4"/></g>
              <g class="tr-arc" style="--w:1.98;--d:5.88s;--t:5.06s"><path class="a-base" pathLength="1000" d="M179.9 129.7L180.4 128.7L180.9 127.6L181.4 126.6L182.0 125.5L182.6 124.3L183.1 123.2L183.7 122.0L184.4 120.9L185.0 119.6L185.7 118.4L186.4 117.2L187.1 115.9L187.8 114.6L188.5 113.3L189.3 112.0L190.0 110.7L190.8 109.3L191.6 107.9L192.5 106.6L193.3 105.2L194.1 103.8L195.0 102.4L195.9 101.0L196.7 99.6L197.6 98.2L198.5 96.8L199.4 95.5L200.3 94.1L201.3 92.7L202.2 91.3L203.1 89.9L204.0 88.6L205.0 87.3L205.9 85.9L206.8 84.6L207.7 83.4L208.6 82.1L209.6 80.9L210.5 79.6L211.4 78.4L212.3 77.3L213.1 76.1L214.0 75.0L214.9 74.0L215.7 72.9L216.5 71.9L217.3 70.9L218.1 70.0L218.9 69.1L219.7 68.2L220.4 67.4L221.2 66.6L221.9 65.8L222.6 65.1L223.2 64.4L223.9 63.8L224.5 63.2L225.1 62.6L225.7 62.1L226.2 61.6L226.8 61.2L227.3 60.8L227.8 60.4L228.2 60.1L228.7 59.8L229.1 59.5L229.5 59.3L229.9 59.1L230.3 58.9L230.6 58.8L230.9 58.7L231.2 58.6"/><path class="a-glow" pathLength="1000" d="M179.9 129.7L180.4 128.7L180.9 127.6L181.4 126.6L182.0 125.5L182.6 124.3L183.1 123.2L183.7 122.0L184.4 120.9L185.0 119.6L185.7 118.4L186.4 117.2L187.1 115.9L187.8 114.6L188.5 113.3L189.3 112.0L190.0 110.7L190.8 109.3L191.6 107.9L192.5 106.6L193.3 105.2L194.1 103.8L195.0 102.4L195.9 101.0L196.7 99.6L197.6 98.2L198.5 96.8L199.4 95.5L200.3 94.1L201.3 92.7L202.2 91.3L203.1 89.9L204.0 88.6L205.0 87.3L205.9 85.9L206.8 84.6L207.7 83.4L208.6 82.1L209.6 80.9L210.5 79.6L211.4 78.4L212.3 77.3L213.1 76.1L214.0 75.0L214.9 74.0L215.7 72.9L216.5 71.9L217.3 70.9L218.1 70.0L218.9 69.1L219.7 68.2L220.4 67.4L221.2 66.6L221.9 65.8L222.6 65.1L223.2 64.4L223.9 63.8L224.5 63.2L225.1 62.6L225.7 62.1L226.2 61.6L226.8 61.2L227.3 60.8L227.8 60.4L228.2 60.1L228.7 59.8L229.1 59.5L229.5 59.3L229.9 59.1L230.3 58.9L230.6 58.8L230.9 58.7L231.2 58.6"/><path class="a-core" pathLength="1000" d="M179.9 129.7L180.4 128.7L180.9 127.6L181.4 126.6L182.0 125.5L182.6 124.3L183.1 123.2L183.7 122.0L184.4 120.9L185.0 119.6L185.7 118.4L186.4 117.2L187.1 115.9L187.8 114.6L188.5 113.3L189.3 112.0L190.0 110.7L190.8 109.3L191.6 107.9L192.5 106.6L193.3 105.2L194.1 103.8L195.0 102.4L195.9 101.0L196.7 99.6L197.6 98.2L198.5 96.8L199.4 95.5L200.3 94.1L201.3 92.7L202.2 91.3L203.1 89.9L204.0 88.6L205.0 87.3L205.9 85.9L206.8 84.6L207.7 83.4L208.6 82.1L209.6 80.9L210.5 79.6L211.4 78.4L212.3 77.3L213.1 76.1L214.0 75.0L214.9 74.0L215.7 72.9L216.5 71.9L217.3 70.9L218.1 70.0L218.9 69.1L219.7 68.2L220.4 67.4L221.2 66.6L221.9 65.8L222.6 65.1L223.2 64.4L223.9 63.8L224.5 63.2L225.1 62.6L225.7 62.1L226.2 61.6L226.8 61.2L227.3 60.8L227.8 60.4L228.2 60.1L228.7 59.8L229.1 59.5L229.5 59.3L229.9 59.1L230.3 58.9L230.6 58.8L230.9 58.7L231.2 58.6"/></g>
              <g class="tr-arc" style="--w:1.96;--d:6.3s;--t:4.59s"><path class="a-base" pathLength="1000" d="M179.9 129.7L178.9 129.1L177.8 128.5L176.8 127.9L175.7 127.3L174.6 126.7L173.5 126.1L172.4 125.4L171.2 124.7L170.1 124.1L169.0 123.4L167.8 122.7L166.7 121.9L165.5 121.2L164.4 120.5L163.2 119.7L162.1 119.0L160.9 118.2L159.7 117.4L158.6 116.7L157.4 115.9L156.3 115.1L155.2 114.3L154.1 113.5L152.9 112.7L151.8 111.9L150.8 111.1L149.7 110.2L148.6 109.4L147.6 108.6L146.6 107.8L145.6 107.0L144.6 106.2L143.7 105.4L142.7 104.6L141.8 103.8L140.9 103.1L140.1 102.3L139.3 101.6L138.5 100.8L137.7 100.1L137.0 99.3L136.3 98.6L135.6 97.9L135.0 97.3L134.4 96.6L133.8 95.9L133.3 95.3L132.8 94.7L132.3 94.1L131.9 93.5L131.5 92.9L131.1 92.4L130.8 91.9L130.5 91.4L130.2 90.9L130.0 90.4L129.8 90.0L129.6 89.5L129.5 89.1L129.4 88.7L129.3 88.4L129.3 88.0L129.3 87.7L129.3 87.4L129.4 87.1L129.5 86.8L129.6 86.6L129.7 86.3L129.8 86.1L130.0 85.9L130.2 85.7L130.4 85.6"/><path class="a-glow" pathLength="1000" d="M179.9 129.7L178.9 129.1L177.8 128.5L176.8 127.9L175.7 127.3L174.6 126.7L173.5 126.1L172.4 125.4L171.2 124.7L170.1 124.1L169.0 123.4L167.8 122.7L166.7 121.9L165.5 121.2L164.4 120.5L163.2 119.7L162.1 119.0L160.9 118.2L159.7 117.4L158.6 116.7L157.4 115.9L156.3 115.1L155.2 114.3L154.1 113.5L152.9 112.7L151.8 111.9L150.8 111.1L149.7 110.2L148.6 109.4L147.6 108.6L146.6 107.8L145.6 107.0L144.6 106.2L143.7 105.4L142.7 104.6L141.8 103.8L140.9 103.1L140.1 102.3L139.3 101.6L138.5 100.8L137.7 100.1L137.0 99.3L136.3 98.6L135.6 97.9L135.0 97.3L134.4 96.6L133.8 95.9L133.3 95.3L132.8 94.7L132.3 94.1L131.9 93.5L131.5 92.9L131.1 92.4L130.8 91.9L130.5 91.4L130.2 90.9L130.0 90.4L129.8 90.0L129.6 89.5L129.5 89.1L129.4 88.7L129.3 88.4L129.3 88.0L129.3 87.7L129.3 87.4L129.4 87.1L129.5 86.8L129.6 86.6L129.7 86.3L129.8 86.1L130.0 85.9L130.2 85.7L130.4 85.6"/><path class="a-core" pathLength="1000" d="M179.9 129.7L178.9 129.1L177.8 128.5L176.8 127.9L175.7 127.3L174.6 126.7L173.5 126.1L172.4 125.4L171.2 124.7L170.1 124.1L169.0 123.4L167.8 122.7L166.7 121.9L165.5 121.2L164.4 120.5L163.2 119.7L162.1 119.0L160.9 118.2L159.7 117.4L158.6 116.7L157.4 115.9L156.3 115.1L155.2 114.3L154.1 113.5L152.9 112.7L151.8 111.9L150.8 111.1L149.7 110.2L148.6 109.4L147.6 108.6L146.6 107.8L145.6 107.0L144.6 106.2L143.7 105.4L142.7 104.6L141.8 103.8L140.9 103.1L140.1 102.3L139.3 101.6L138.5 100.8L137.7 100.1L137.0 99.3L136.3 98.6L135.6 97.9L135.0 97.3L134.4 96.6L133.8 95.9L133.3 95.3L132.8 94.7L132.3 94.1L131.9 93.5L131.5 92.9L131.1 92.4L130.8 91.9L130.5 91.4L130.2 90.9L130.0 90.4L129.8 90.0L129.6 89.5L129.5 89.1L129.4 88.7L129.3 88.4L129.3 88.0L129.3 87.7L129.3 87.4L129.4 87.1L129.5 86.8L129.6 86.6L129.7 86.3L129.8 86.1L130.0 85.9L130.2 85.7L130.4 85.6"/></g>
              <g class="tr-arc" style="--w:1.68;--d:7.07s;--t:4.12s"><path class="a-base" pathLength="1000" d="M179.9 129.7L179.6 129.5L179.3 129.3L179.0 129.1L178.8 129.0L178.5 128.8L178.2 128.6L177.9 128.4L177.6 128.2L177.3 128.0L177.0 127.8L176.7 127.5L176.4 127.3L176.1 127.1L175.9 126.9L175.6 126.6L175.3 126.4L175.0 126.2L174.8 125.9L174.5 125.7L174.2 125.4L174.0 125.2L173.7 124.9L173.5 124.7L173.2 124.4L173.0 124.2L172.8 123.9L172.6 123.6L172.3 123.4L172.1 123.1L171.9 122.8L171.7 122.5L171.5 122.3L171.4 122.0L171.2 121.7L171.0 121.4L170.9 121.2L170.7 120.9L170.6 120.6L170.5 120.3L170.4 120.1L170.3 119.8L170.2 119.5L170.1 119.3L170.0 119.0L169.9 118.7L169.8 118.5L169.8 118.2L169.7 117.9L169.7 117.7L169.7 117.4L169.7 117.2L169.6 117.0L169.6 116.7L169.7 116.5L169.7 116.2L169.7 116.0L169.7 115.8L169.7 115.6L169.8 115.3L169.8 115.1L169.9 114.9L170.0 114.7L170.0 114.5L170.1 114.3L170.2 114.1L170.3 113.9L170.4 113.8L170.4 113.6L170.5 113.4L170.6 113.2L170.7 113.1L170.9 112.9"/><path class="a-glow" pathLength="1000" d="M179.9 129.7L179.6 129.5L179.3 129.3L179.0 129.1L178.8 129.0L178.5 128.8L178.2 128.6L177.9 128.4L177.6 128.2L177.3 128.0L177.0 127.8L176.7 127.5L176.4 127.3L176.1 127.1L175.9 126.9L175.6 126.6L175.3 126.4L175.0 126.2L174.8 125.9L174.5 125.7L174.2 125.4L174.0 125.2L173.7 124.9L173.5 124.7L173.2 124.4L173.0 124.2L172.8 123.9L172.6 123.6L172.3 123.4L172.1 123.1L171.9 122.8L171.7 122.5L171.5 122.3L171.4 122.0L171.2 121.7L171.0 121.4L170.9 121.2L170.7 120.9L170.6 120.6L170.5 120.3L170.4 120.1L170.3 119.8L170.2 119.5L170.1 119.3L170.0 119.0L169.9 118.7L169.8 118.5L169.8 118.2L169.7 117.9L169.7 117.7L169.7 117.4L169.7 117.2L169.6 117.0L169.6 116.7L169.7 116.5L169.7 116.2L169.7 116.0L169.7 115.8L169.7 115.6L169.8 115.3L169.8 115.1L169.9 114.9L170.0 114.7L170.0 114.5L170.1 114.3L170.2 114.1L170.3 113.9L170.4 113.8L170.4 113.6L170.5 113.4L170.6 113.2L170.7 113.1L170.9 112.9"/><path class="a-core" pathLength="1000" d="M179.9 129.7L179.6 129.5L179.3 129.3L179.0 129.1L178.8 129.0L178.5 128.8L178.2 128.6L177.9 128.4L177.6 128.2L177.3 128.0L177.0 127.8L176.7 127.5L176.4 127.3L176.1 127.1L175.9 126.9L175.6 126.6L175.3 126.4L175.0 126.2L174.8 125.9L174.5 125.7L174.2 125.4L174.0 125.2L173.7 124.9L173.5 124.7L173.2 124.4L173.0 124.2L172.8 123.9L172.6 123.6L172.3 123.4L172.1 123.1L171.9 122.8L171.7 122.5L171.5 122.3L171.4 122.0L171.2 121.7L171.0 121.4L170.9 121.2L170.7 120.9L170.6 120.6L170.5 120.3L170.4 120.1L170.3 119.8L170.2 119.5L170.1 119.3L170.0 119.0L169.9 118.7L169.8 118.5L169.8 118.2L169.7 117.9L169.7 117.7L169.7 117.4L169.7 117.2L169.6 117.0L169.6 116.7L169.7 116.5L169.7 116.2L169.7 116.0L169.7 115.8L169.7 115.6L169.8 115.3L169.8 115.1L169.9 114.9L170.0 114.7L170.0 114.5L170.1 114.3L170.2 114.1L170.3 113.9L170.4 113.8L170.4 113.6L170.5 113.4L170.6 113.2L170.7 113.1L170.9 112.9"/></g>
              <g class="tr-arc" style="--w:1.67;--d:5.48s;--t:3.65s"><path class="a-base" pathLength="1000" d="M179.9 129.7L179.7 129.6L179.5 129.4L179.2 129.3L179.0 129.1L178.8 129.0L178.5 128.8L178.3 128.7L178.1 128.5L177.8 128.4L177.6 128.2L177.4 128.1L177.2 127.9L176.9 127.7L176.7 127.5L176.5 127.4L176.3 127.2L176.1 127.0L175.9 126.8L175.7 126.6L175.5 126.4L175.3 126.2L175.1 126.0L174.9 125.8L174.8 125.6L174.6 125.4L174.4 125.2L174.3 125.0L174.1 124.8L174.0 124.6L173.8 124.3L173.7 124.1L173.6 123.9L173.5 123.7L173.4 123.5L173.3 123.2L173.2 123.0L173.1 122.8L173.0 122.6L173.0 122.3L172.9 122.1L172.8 121.9L172.8 121.7L172.8 121.5L172.7 121.2L172.7 121.0L172.7 120.8L172.7 120.6L172.7 120.4L172.7 120.2L172.7 119.9L172.7 119.7L172.8 119.5L172.8 119.3L172.8 119.1L172.9 118.9L172.9 118.7L173.0 118.5L173.1 118.4L173.1 118.2L173.2 118.0L173.3 117.8L173.4 117.6L173.5 117.5L173.6 117.3L173.7 117.1L173.8 117.0L173.9 116.8L174.0 116.6L174.1 116.5L174.3 116.3L174.4 116.2L174.5 116.0"/><path class="a-glow" pathLength="1000" d="M179.9 129.7L179.7 129.6L179.5 129.4L179.2 129.3L179.0 129.1L178.8 129.0L178.5 128.8L178.3 128.7L178.1 128.5L177.8 128.4L177.6 128.2L177.4 128.1L177.2 127.9L176.9 127.7L176.7 127.5L176.5 127.4L176.3 127.2L176.1 127.0L175.9 126.8L175.7 126.6L175.5 126.4L175.3 126.2L175.1 126.0L174.9 125.8L174.8 125.6L174.6 125.4L174.4 125.2L174.3 125.0L174.1 124.8L174.0 124.6L173.8 124.3L173.7 124.1L173.6 123.9L173.5 123.7L173.4 123.5L173.3 123.2L173.2 123.0L173.1 122.8L173.0 122.6L173.0 122.3L172.9 122.1L172.8 121.9L172.8 121.7L172.8 121.5L172.7 121.2L172.7 121.0L172.7 120.8L172.7 120.6L172.7 120.4L172.7 120.2L172.7 119.9L172.7 119.7L172.8 119.5L172.8 119.3L172.8 119.1L172.9 118.9L172.9 118.7L173.0 118.5L173.1 118.4L173.1 118.2L173.2 118.0L173.3 117.8L173.4 117.6L173.5 117.5L173.6 117.3L173.7 117.1L173.8 117.0L173.9 116.8L174.0 116.6L174.1 116.5L174.3 116.3L174.4 116.2L174.5 116.0"/><path class="a-core" pathLength="1000" d="M179.9 129.7L179.7 129.6L179.5 129.4L179.2 129.3L179.0 129.1L178.8 129.0L178.5 128.8L178.3 128.7L178.1 128.5L177.8 128.4L177.6 128.2L177.4 128.1L177.2 127.9L176.9 127.7L176.7 127.5L176.5 127.4L176.3 127.2L176.1 127.0L175.9 126.8L175.7 126.6L175.5 126.4L175.3 126.2L175.1 126.0L174.9 125.8L174.8 125.6L174.6 125.4L174.4 125.2L174.3 125.0L174.1 124.8L174.0 124.6L173.8 124.3L173.7 124.1L173.6 123.9L173.5 123.7L173.4 123.5L173.3 123.2L173.2 123.0L173.1 122.8L173.0 122.6L173.0 122.3L172.9 122.1L172.8 121.9L172.8 121.7L172.8 121.5L172.7 121.2L172.7 121.0L172.7 120.8L172.7 120.6L172.7 120.4L172.7 120.2L172.7 119.9L172.7 119.7L172.8 119.5L172.8 119.3L172.8 119.1L172.9 118.9L172.9 118.7L173.0 118.5L173.1 118.4L173.1 118.2L173.2 118.0L173.3 117.8L173.4 117.6L173.5 117.5L173.6 117.3L173.7 117.1L173.8 117.0L173.9 116.8L174.0 116.6L174.1 116.5L174.3 116.3L174.4 116.2L174.5 116.0"/></g>
              <g class="tr-arc" style="--w:1.6;--d:5.96s;--t:3.18s"><path class="a-base" pathLength="1000" d="M179.9 129.7L180.1 129.2L180.3 128.7L180.4 128.3L180.6 127.8L180.8 127.3L181.0 126.8L181.2 126.2L181.4 125.7L181.7 125.2L181.9 124.6L182.1 124.1L182.4 123.5L182.7 122.9L182.9 122.3L183.2 121.7L183.5 121.1L183.8 120.5L184.1 119.9L184.4 119.3L184.7 118.7L185.1 118.1L185.4 117.4L185.8 116.8L186.1 116.2L186.5 115.5L186.8 114.9L187.2 114.2L187.6 113.6L188.0 112.9L188.4 112.3L188.8 111.6L189.2 111.0L189.6 110.3L190.0 109.7L190.5 109.1L190.9 108.4L191.3 107.8L191.7 107.2L192.2 106.6L192.6 106.0L193.0 105.4L193.5 104.8L193.9 104.2L194.4 103.6L194.8 103.0L195.2 102.5L195.7 101.9L196.1 101.4L196.5 100.9L197.0 100.4L197.4 99.9L197.8 99.4L198.2 98.9L198.7 98.4L199.1 98.0L199.5 97.6L199.9 97.1L200.3 96.7L200.7 96.3L201.1 95.9L201.5 95.6L201.8 95.2L202.2 94.9L202.6 94.5L202.9 94.2L203.3 93.9L203.6 93.6L204.0 93.3L204.3 93.0L204.6 92.8L205.0 92.5L205.3 92.3"/><path class="a-glow" pathLength="1000" d="M179.9 129.7L180.1 129.2L180.3 128.7L180.4 128.3L180.6 127.8L180.8 127.3L181.0 126.8L181.2 126.2L181.4 125.7L181.7 125.2L181.9 124.6L182.1 124.1L182.4 123.5L182.7 122.9L182.9 122.3L183.2 121.7L183.5 121.1L183.8 120.5L184.1 119.9L184.4 119.3L184.7 118.7L185.1 118.1L185.4 117.4L185.8 116.8L186.1 116.2L186.5 115.5L186.8 114.9L187.2 114.2L187.6 113.6L188.0 112.9L188.4 112.3L188.8 111.6L189.2 111.0L189.6 110.3L190.0 109.7L190.5 109.1L190.9 108.4L191.3 107.8L191.7 107.2L192.2 106.6L192.6 106.0L193.0 105.4L193.5 104.8L193.9 104.2L194.4 103.6L194.8 103.0L195.2 102.5L195.7 101.9L196.1 101.4L196.5 100.9L197.0 100.4L197.4 99.9L197.8 99.4L198.2 98.9L198.7 98.4L199.1 98.0L199.5 97.6L199.9 97.1L200.3 96.7L200.7 96.3L201.1 95.9L201.5 95.6L201.8 95.2L202.2 94.9L202.6 94.5L202.9 94.2L203.3 93.9L203.6 93.6L204.0 93.3L204.3 93.0L204.6 92.8L205.0 92.5L205.3 92.3"/><path class="a-core" pathLength="1000" d="M179.9 129.7L180.1 129.2L180.3 128.7L180.4 128.3L180.6 127.8L180.8 127.3L181.0 126.8L181.2 126.2L181.4 125.7L181.7 125.2L181.9 124.6L182.1 124.1L182.4 123.5L182.7 122.9L182.9 122.3L183.2 121.7L183.5 121.1L183.8 120.5L184.1 119.9L184.4 119.3L184.7 118.7L185.1 118.1L185.4 117.4L185.8 116.8L186.1 116.2L186.5 115.5L186.8 114.9L187.2 114.2L187.6 113.6L188.0 112.9L188.4 112.3L188.8 111.6L189.2 111.0L189.6 110.3L190.0 109.7L190.5 109.1L190.9 108.4L191.3 107.8L191.7 107.2L192.2 106.6L192.6 106.0L193.0 105.4L193.5 104.8L193.9 104.2L194.4 103.6L194.8 103.0L195.2 102.5L195.7 101.9L196.1 101.4L196.5 100.9L197.0 100.4L197.4 99.9L197.8 99.4L198.2 98.9L198.7 98.4L199.1 98.0L199.5 97.6L199.9 97.1L200.3 96.7L200.7 96.3L201.1 95.9L201.5 95.6L201.8 95.2L202.2 94.9L202.6 94.5L202.9 94.2L203.3 93.9L203.6 93.6L204.0 93.3L204.3 93.0L204.6 92.8L205.0 92.5L205.3 92.3"/></g>
              <g class="tr-arc" style="--w:1.57;--d:6.39s;--t:2.71s"><path class="a-base" pathLength="1000" d="M179.9 129.7L180.1 128.6L180.3 127.6L180.6 126.5L180.8 125.3L181.1 124.2L181.4 123.0L181.6 121.8L181.9 120.6L182.2 119.4L182.6 118.1L182.9 116.9L183.3 115.6L183.6 114.3L184.0 112.9L184.4 111.6L184.8 110.2L185.2 108.8L185.7 107.5L186.1 106.1L186.6 104.7L187.0 103.2L187.5 101.8L188.0 100.4L188.5 99.0L189.0 97.6L189.5 96.1L190.1 94.7L190.6 93.3L191.1 91.9L191.7 90.5L192.3 89.1L192.8 87.7L193.4 86.3L194.0 85.0L194.5 83.6L195.1 82.3L195.7 81.0L196.3 79.7L196.9 78.5L197.5 77.3L198.1 76.0L198.7 74.9L199.2 73.7L199.8 72.6L200.4 71.5L201.0 70.5L201.5 69.4L202.1 68.4L202.7 67.5L203.2 66.6L203.8 65.7L204.3 64.9L204.8 64.0L205.4 63.3L205.9 62.5L206.4 61.9L206.9 61.2L207.3 60.6L207.8 60.0L208.3 59.5L208.7 59.0L209.2 58.5L209.6 58.1L210.0 57.7L210.4 57.3L210.8 57.0L211.2 56.7L211.5 56.5L211.9 56.2L212.2 56.0L212.6 55.9L212.9 55.7"/><path class="a-glow" pathLength="1000" d="M179.9 129.7L180.1 128.6L180.3 127.6L180.6 126.5L180.8 125.3L181.1 124.2L181.4 123.0L181.6 121.8L181.9 120.6L182.2 119.4L182.6 118.1L182.9 116.9L183.3 115.6L183.6 114.3L184.0 112.9L184.4 111.6L184.8 110.2L185.2 108.8L185.7 107.5L186.1 106.1L186.6 104.7L187.0 103.2L187.5 101.8L188.0 100.4L188.5 99.0L189.0 97.6L189.5 96.1L190.1 94.7L190.6 93.3L191.1 91.9L191.7 90.5L192.3 89.1L192.8 87.7L193.4 86.3L194.0 85.0L194.5 83.6L195.1 82.3L195.7 81.0L196.3 79.7L196.9 78.5L197.5 77.3L198.1 76.0L198.7 74.9L199.2 73.7L199.8 72.6L200.4 71.5L201.0 70.5L201.5 69.4L202.1 68.4L202.7 67.5L203.2 66.6L203.8 65.7L204.3 64.9L204.8 64.0L205.4 63.3L205.9 62.5L206.4 61.9L206.9 61.2L207.3 60.6L207.8 60.0L208.3 59.5L208.7 59.0L209.2 58.5L209.6 58.1L210.0 57.7L210.4 57.3L210.8 57.0L211.2 56.7L211.5 56.5L211.9 56.2L212.2 56.0L212.6 55.9L212.9 55.7"/><path class="a-core" pathLength="1000" d="M179.9 129.7L180.1 128.6L180.3 127.6L180.6 126.5L180.8 125.3L181.1 124.2L181.4 123.0L181.6 121.8L181.9 120.6L182.2 119.4L182.6 118.1L182.9 116.9L183.3 115.6L183.6 114.3L184.0 112.9L184.4 111.6L184.8 110.2L185.2 108.8L185.7 107.5L186.1 106.1L186.6 104.7L187.0 103.2L187.5 101.8L188.0 100.4L188.5 99.0L189.0 97.6L189.5 96.1L190.1 94.7L190.6 93.3L191.1 91.9L191.7 90.5L192.3 89.1L192.8 87.7L193.4 86.3L194.0 85.0L194.5 83.6L195.1 82.3L195.7 81.0L196.3 79.7L196.9 78.5L197.5 77.3L198.1 76.0L198.7 74.9L199.2 73.7L199.8 72.6L200.4 71.5L201.0 70.5L201.5 69.4L202.1 68.4L202.7 67.5L203.2 66.6L203.8 65.7L204.3 64.9L204.8 64.0L205.4 63.3L205.9 62.5L206.4 61.9L206.9 61.2L207.3 60.6L207.8 60.0L208.3 59.5L208.7 59.0L209.2 58.5L209.6 58.1L210.0 57.7L210.4 57.3L210.8 57.0L211.2 56.7L211.5 56.5L211.9 56.2L212.2 56.0L212.6 55.9L212.9 55.7"/></g>
              <g class="tr-arc" style="--w:1.43;--d:6.93s;--t:2.24s"><path class="a-base" pathLength="1000" d="M179.9 129.7L179.7 129.3L179.6 128.9L179.4 128.6L179.2 128.2L179.0 127.8L178.9 127.4L178.7 127.0L178.5 126.5L178.4 126.1L178.2 125.7L178.1 125.2L177.9 124.8L177.8 124.3L177.6 123.9L177.5 123.4L177.3 122.9L177.2 122.5L177.1 122.0L177.0 121.5L176.8 121.0L176.7 120.5L176.6 120.0L176.5 119.5L176.4 119.0L176.4 118.5L176.3 118.0L176.2 117.4L176.1 116.9L176.1 116.4L176.0 115.9L176.0 115.4L176.0 114.9L175.9 114.4L175.9 113.8L175.9 113.3L175.9 112.8L175.9 112.3L175.9 111.8L175.9 111.3L176.0 110.8L176.0 110.3L176.1 109.8L176.1 109.4L176.2 108.9L176.2 108.4L176.3 108.0L176.4 107.5L176.5 107.1L176.6 106.6L176.7 106.2L176.8 105.8L176.9 105.4L177.0 105.0L177.1 104.6L177.2 104.2L177.4 103.8L177.5 103.4L177.7 103.1L177.8 102.7L178.0 102.4L178.1 102.1L178.3 101.7L178.4 101.4L178.6 101.1L178.8 100.8L178.9 100.5L179.1 100.3L179.3 100.0L179.5 99.7L179.6 99.5L179.8 99.3L180.0 99.0"/><path class="a-glow" pathLength="1000" d="M179.9 129.7L179.7 129.3L179.6 128.9L179.4 128.6L179.2 128.2L179.0 127.8L178.9 127.4L178.7 127.0L178.5 126.5L178.4 126.1L178.2 125.7L178.1 125.2L177.9 124.8L177.8 124.3L177.6 123.9L177.5 123.4L177.3 122.9L177.2 122.5L177.1 122.0L177.0 121.5L176.8 121.0L176.7 120.5L176.6 120.0L176.5 119.5L176.4 119.0L176.4 118.5L176.3 118.0L176.2 117.4L176.1 116.9L176.1 116.4L176.0 115.9L176.0 115.4L176.0 114.9L175.9 114.4L175.9 113.8L175.9 113.3L175.9 112.8L175.9 112.3L175.9 111.8L175.9 111.3L176.0 110.8L176.0 110.3L176.1 109.8L176.1 109.4L176.2 108.9L176.2 108.4L176.3 108.0L176.4 107.5L176.5 107.1L176.6 106.6L176.7 106.2L176.8 105.8L176.9 105.4L177.0 105.0L177.1 104.6L177.2 104.2L177.4 103.8L177.5 103.4L177.7 103.1L177.8 102.7L178.0 102.4L178.1 102.1L178.3 101.7L178.4 101.4L178.6 101.1L178.8 100.8L178.9 100.5L179.1 100.3L179.3 100.0L179.5 99.7L179.6 99.5L179.8 99.3L180.0 99.0"/><path class="a-core" pathLength="1000" d="M179.9 129.7L179.7 129.3L179.6 128.9L179.4 128.6L179.2 128.2L179.0 127.8L178.9 127.4L178.7 127.0L178.5 126.5L178.4 126.1L178.2 125.7L178.1 125.2L177.9 124.8L177.8 124.3L177.6 123.9L177.5 123.4L177.3 122.9L177.2 122.5L177.1 122.0L177.0 121.5L176.8 121.0L176.7 120.5L176.6 120.0L176.5 119.5L176.4 119.0L176.4 118.5L176.3 118.0L176.2 117.4L176.1 116.9L176.1 116.4L176.0 115.9L176.0 115.4L176.0 114.9L175.9 114.4L175.9 113.8L175.9 113.3L175.9 112.8L175.9 112.3L175.9 111.8L175.9 111.3L176.0 110.8L176.0 110.3L176.1 109.8L176.1 109.4L176.2 108.9L176.2 108.4L176.3 108.0L176.4 107.5L176.5 107.1L176.6 106.6L176.7 106.2L176.8 105.8L176.9 105.4L177.0 105.0L177.1 104.6L177.2 104.2L177.4 103.8L177.5 103.4L177.7 103.1L177.8 102.7L178.0 102.4L178.1 102.1L178.3 101.7L178.4 101.4L178.6 101.1L178.8 100.8L178.9 100.5L179.1 100.3L179.3 100.0L179.5 99.7L179.6 99.5L179.8 99.3L180.0 99.0"/></g>
              <g class="tr-arc" style="--w:1.42;--d:7.34s;--t:1.77s"><path class="a-base" pathLength="1000" d="M179.9 129.7L179.6 129.2L179.2 128.8L178.9 128.3L178.6 127.9L178.2 127.4L177.9 126.9L177.5 126.4L177.2 125.9L176.8 125.4L176.5 124.9L176.2 124.4L175.8 123.8L175.5 123.3L175.2 122.7L174.8 122.2L174.5 121.6L174.2 121.0L173.9 120.4L173.6 119.9L173.3 119.3L173.0 118.7L172.7 118.1L172.4 117.5L172.1 116.9L171.8 116.3L171.5 115.7L171.3 115.0L171.0 114.4L170.8 113.8L170.6 113.2L170.3 112.6L170.1 112.0L169.9 111.4L169.7 110.8L169.5 110.2L169.3 109.6L169.2 109.0L169.0 108.4L168.9 107.8L168.7 107.2L168.6 106.6L168.5 106.1L168.4 105.5L168.3 105.0L168.2 104.4L168.2 103.9L168.1 103.4L168.1 102.8L168.0 102.3L168.0 101.8L168.0 101.4L168.0 100.9L168.0 100.4L168.0 100.0L168.0 99.5L168.1 99.1L168.1 98.7L168.1 98.3L168.2 97.9L168.3 97.5L168.4 97.1L168.4 96.8L168.5 96.4L168.6 96.1L168.7 95.8L168.9 95.5L169.0 95.2L169.1 94.9L169.2 94.6L169.4 94.4L169.5 94.1L169.6 93.8"/><path class="a-glow" pathLength="1000" d="M179.9 129.7L179.6 129.2L179.2 128.8L178.9 128.3L178.6 127.9L178.2 127.4L177.9 126.9L177.5 126.4L177.2 125.9L176.8 125.4L176.5 124.9L176.2 124.4L175.8 123.8L175.5 123.3L175.2 122.7L174.8 122.2L174.5 121.6L174.2 121.0L173.9 120.4L173.6 119.9L173.3 119.3L173.0 118.7L172.7 118.1L172.4 117.5L172.1 116.9L171.8 116.3L171.5 115.7L171.3 115.0L171.0 114.4L170.8 113.8L170.6 113.2L170.3 112.6L170.1 112.0L169.9 111.4L169.7 110.8L169.5 110.2L169.3 109.6L169.2 109.0L169.0 108.4L168.9 107.8L168.7 107.2L168.6 106.6L168.5 106.1L168.4 105.5L168.3 105.0L168.2 104.4L168.2 103.9L168.1 103.4L168.1 102.8L168.0 102.3L168.0 101.8L168.0 101.4L168.0 100.9L168.0 100.4L168.0 100.0L168.0 99.5L168.1 99.1L168.1 98.7L168.1 98.3L168.2 97.9L168.3 97.5L168.4 97.1L168.4 96.8L168.5 96.4L168.6 96.1L168.7 95.8L168.9 95.5L169.0 95.2L169.1 94.9L169.2 94.6L169.4 94.4L169.5 94.1L169.6 93.8"/><path class="a-core" pathLength="1000" d="M179.9 129.7L179.6 129.2L179.2 128.8L178.9 128.3L178.6 127.9L178.2 127.4L177.9 126.9L177.5 126.4L177.2 125.9L176.8 125.4L176.5 124.9L176.2 124.4L175.8 123.8L175.5 123.3L175.2 122.7L174.8 122.2L174.5 121.6L174.2 121.0L173.9 120.4L173.6 119.9L173.3 119.3L173.0 118.7L172.7 118.1L172.4 117.5L172.1 116.9L171.8 116.3L171.5 115.7L171.3 115.0L171.0 114.4L170.8 113.8L170.6 113.2L170.3 112.6L170.1 112.0L169.9 111.4L169.7 110.8L169.5 110.2L169.3 109.6L169.2 109.0L169.0 108.4L168.9 107.8L168.7 107.2L168.6 106.6L168.5 106.1L168.4 105.5L168.3 105.0L168.2 104.4L168.2 103.9L168.1 103.4L168.1 102.8L168.0 102.3L168.0 101.8L168.0 101.4L168.0 100.9L168.0 100.4L168.0 100.0L168.0 99.5L168.1 99.1L168.1 98.7L168.1 98.3L168.2 97.9L168.3 97.5L168.4 97.1L168.4 96.8L168.5 96.4L168.6 96.1L168.7 95.8L168.9 95.5L169.0 95.2L169.1 94.9L169.2 94.6L169.4 94.4L169.5 94.1L169.6 93.8"/></g>
              <g class="tr-arc" style="--w:1.39;--d:5.77s;--t:1.3s"><path class="a-base" pathLength="1000" d="M179.9 129.7L180.1 129.0L180.2 128.2L180.4 127.5L180.5 126.7L180.7 125.9L180.9 125.1L181.1 124.3L181.3 123.5L181.5 122.6L181.8 121.7L182.0 120.9L182.3 120.0L182.5 119.1L182.8 118.2L183.1 117.2L183.4 116.3L183.7 115.4L184.0 114.4L184.3 113.5L184.6 112.5L184.9 111.5L185.3 110.5L185.7 109.6L186.0 108.6L186.4 107.6L186.8 106.6L187.2 105.6L187.6 104.6L188.0 103.6L188.4 102.6L188.8 101.6L189.2 100.7L189.7 99.7L190.1 98.7L190.5 97.8L191.0 96.8L191.4 95.9L191.9 95.0L192.3 94.0L192.8 93.1L193.2 92.3L193.7 91.4L194.2 90.5L194.6 89.7L195.1 88.9L195.5 88.1L196.0 87.3L196.5 86.5L196.9 85.8L197.4 85.1L197.8 84.4L198.3 83.7L198.7 83.0L199.1 82.4L199.6 81.8L200.0 81.2L200.4 80.6L200.8 80.1L201.2 79.6L201.6 79.1L202.0 78.6L202.4 78.1L202.8 77.7L203.2 77.3L203.5 76.9L203.9 76.6L204.3 76.2L204.6 75.9L204.9 75.6L205.3 75.3L205.6 75.0L205.9 74.8"/><path class="a-glow" pathLength="1000" d="M179.9 129.7L180.1 129.0L180.2 128.2L180.4 127.5L180.5 126.7L180.7 125.9L180.9 125.1L181.1 124.3L181.3 123.5L181.5 122.6L181.8 121.7L182.0 120.9L182.3 120.0L182.5 119.1L182.8 118.2L183.1 117.2L183.4 116.3L183.7 115.4L184.0 114.4L184.3 113.5L184.6 112.5L184.9 111.5L185.3 110.5L185.7 109.6L186.0 108.6L186.4 107.6L186.8 106.6L187.2 105.6L187.6 104.6L188.0 103.6L188.4 102.6L188.8 101.6L189.2 100.7L189.7 99.7L190.1 98.7L190.5 97.8L191.0 96.8L191.4 95.9L191.9 95.0L192.3 94.0L192.8 93.1L193.2 92.3L193.7 91.4L194.2 90.5L194.6 89.7L195.1 88.9L195.5 88.1L196.0 87.3L196.5 86.5L196.9 85.8L197.4 85.1L197.8 84.4L198.3 83.7L198.7 83.0L199.1 82.4L199.6 81.8L200.0 81.2L200.4 80.6L200.8 80.1L201.2 79.6L201.6 79.1L202.0 78.6L202.4 78.1L202.8 77.7L203.2 77.3L203.5 76.9L203.9 76.6L204.3 76.2L204.6 75.9L204.9 75.6L205.3 75.3L205.6 75.0L205.9 74.8"/><path class="a-core" pathLength="1000" d="M179.9 129.7L180.1 129.0L180.2 128.2L180.4 127.5L180.5 126.7L180.7 125.9L180.9 125.1L181.1 124.3L181.3 123.5L181.5 122.6L181.8 121.7L182.0 120.9L182.3 120.0L182.5 119.1L182.8 118.2L183.1 117.2L183.4 116.3L183.7 115.4L184.0 114.4L184.3 113.5L184.6 112.5L184.9 111.5L185.3 110.5L185.7 109.6L186.0 108.6L186.4 107.6L186.8 106.6L187.2 105.6L187.6 104.6L188.0 103.6L188.4 102.6L188.8 101.6L189.2 100.7L189.7 99.7L190.1 98.7L190.5 97.8L191.0 96.8L191.4 95.9L191.9 95.0L192.3 94.0L192.8 93.1L193.2 92.3L193.7 91.4L194.2 90.5L194.6 89.7L195.1 88.9L195.5 88.1L196.0 87.3L196.5 86.5L196.9 85.8L197.4 85.1L197.8 84.4L198.3 83.7L198.7 83.0L199.1 82.4L199.6 81.8L200.0 81.2L200.4 80.6L200.8 80.1L201.2 79.6L201.6 79.1L202.0 78.6L202.4 78.1L202.8 77.7L203.2 77.3L203.5 76.9L203.9 76.6L204.3 76.2L204.6 75.9L204.9 75.6L205.3 75.3L205.6 75.0L205.9 74.8"/></g>
              <g class="tr-arc" style="--w:1.21;--d:6.31s;--t:0.83s"><path class="a-base" pathLength="1000" d="M179.9 129.7L178.0 127.7L176.1 125.7L174.2 123.7L172.2 121.5L170.2 119.4L168.2 117.1L166.1 114.8L164.1 112.5L162.0 110.1L159.9 107.7L157.9 105.2L155.8 102.7L153.7 100.1L151.7 97.6L149.6 95.0L147.6 92.4L145.6 89.7L143.6 87.1L141.6 84.5L139.7 81.8L137.8 79.2L136.0 76.6L134.2 73.9L132.5 71.4L130.8 68.8L129.2 66.3L127.6 63.8L126.1 61.3L124.7 58.9L123.4 56.6L122.1 54.3L120.9 52.1L119.8 49.9L118.7 47.8L117.8 45.8L116.9 43.9L116.2 42.0L115.5 40.3L114.9 38.6L114.4 37.0L114.0 35.6L113.7 34.2L113.5 32.9L113.4 31.8L113.4 30.7L113.5 29.8L113.7 28.9L114.0 28.2L114.3 27.6L114.8 27.1L115.3 26.7L115.9 26.4L116.6 26.2L117.4 26.2L118.3 26.2L119.2 26.3L120.2 26.6L121.3 26.9L122.5 27.4L123.7 27.9L124.9 28.6L126.3 29.3L127.6 30.1L129.1 31.0L130.5 31.9L132.0 33.0L133.6 34.1L135.1 35.3L136.7 36.5L138.3 37.8"/><path class="a-glow" pathLength="1000" d="M179.9 129.7L178.0 127.7L176.1 125.7L174.2 123.7L172.2 121.5L170.2 119.4L168.2 117.1L166.1 114.8L164.1 112.5L162.0 110.1L159.9 107.7L157.9 105.2L155.8 102.7L153.7 100.1L151.7 97.6L149.6 95.0L147.6 92.4L145.6 89.7L143.6 87.1L141.6 84.5L139.7 81.8L137.8 79.2L136.0 76.6L134.2 73.9L132.5 71.4L130.8 68.8L129.2 66.3L127.6 63.8L126.1 61.3L124.7 58.9L123.4 56.6L122.1 54.3L120.9 52.1L119.8 49.9L118.7 47.8L117.8 45.8L116.9 43.9L116.2 42.0L115.5 40.3L114.9 38.6L114.4 37.0L114.0 35.6L113.7 34.2L113.5 32.9L113.4 31.8L113.4 30.7L113.5 29.8L113.7 28.9L114.0 28.2L114.3 27.6L114.8 27.1L115.3 26.7L115.9 26.4L116.6 26.2L117.4 26.2L118.3 26.2L119.2 26.3L120.2 26.6L121.3 26.9L122.5 27.4L123.7 27.9L124.9 28.6L126.3 29.3L127.6 30.1L129.1 31.0L130.5 31.9L132.0 33.0L133.6 34.1L135.1 35.3L136.7 36.5L138.3 37.8"/><path class="a-core" pathLength="1000" d="M179.9 129.7L178.0 127.7L176.1 125.7L174.2 123.7L172.2 121.5L170.2 119.4L168.2 117.1L166.1 114.8L164.1 112.5L162.0 110.1L159.9 107.7L157.9 105.2L155.8 102.7L153.7 100.1L151.7 97.6L149.6 95.0L147.6 92.4L145.6 89.7L143.6 87.1L141.6 84.5L139.7 81.8L137.8 79.2L136.0 76.6L134.2 73.9L132.5 71.4L130.8 68.8L129.2 66.3L127.6 63.8L126.1 61.3L124.7 58.9L123.4 56.6L122.1 54.3L120.9 52.1L119.8 49.9L118.7 47.8L117.8 45.8L116.9 43.9L116.2 42.0L115.5 40.3L114.9 38.6L114.4 37.0L114.0 35.6L113.7 34.2L113.5 32.9L113.4 31.8L113.4 30.7L113.5 29.8L113.7 28.9L114.0 28.2L114.3 27.6L114.8 27.1L115.3 26.7L115.9 26.4L116.6 26.2L117.4 26.2L118.3 26.2L119.2 26.3L120.2 26.6L121.3 26.9L122.5 27.4L123.7 27.9L124.9 28.6L126.3 29.3L127.6 30.1L129.1 31.0L130.5 31.9L132.0 33.0L133.6 34.1L135.1 35.3L136.7 36.5L138.3 37.8"/></g>
              <g class="tr-arc" style="--w:1.19;--d:6.72s;--t:0.36s"><path class="a-base" pathLength="1000" d="M179.9 129.7L179.3 129.0L178.7 128.3L178.1 127.6L177.5 126.8L176.9 126.1L176.3 125.3L175.6 124.5L175.0 123.8L174.4 122.9L173.7 122.1L173.1 121.3L172.5 120.4L171.9 119.6L171.2 118.7L170.6 117.8L170.0 116.9L169.3 116.0L168.7 115.1L168.1 114.2L167.5 113.3L166.9 112.4L166.3 111.4L165.7 110.5L165.2 109.6L164.6 108.6L164.0 107.7L163.5 106.7L163.0 105.8L162.4 104.8L161.9 103.9L161.4 102.9L161.0 102.0L160.5 101.1L160.0 100.2L159.6 99.2L159.2 98.3L158.8 97.4L158.4 96.6L158.0 95.7L157.7 94.8L157.3 94.0L157.0 93.1L156.7 92.3L156.5 91.5L156.2 90.7L156.0 90.0L155.7 89.2L155.5 88.5L155.4 87.8L155.2 87.1L155.1 86.4L154.9 85.7L154.8 85.1L154.7 84.5L154.7 83.9L154.6 83.3L154.6 82.8L154.6 82.3L154.6 81.8L154.6 81.3L154.6 80.8L154.7 80.4L154.8 80.0L154.8 79.6L154.9 79.2L155.0 78.8L155.2 78.5L155.3 78.2L155.4 77.9L155.6 77.6L155.7 77.4L155.9 77.1"/><path class="a-glow" pathLength="1000" d="M179.9 129.7L179.3 129.0L178.7 128.3L178.1 127.6L177.5 126.8L176.9 126.1L176.3 125.3L175.6 124.5L175.0 123.8L174.4 122.9L173.7 122.1L173.1 121.3L172.5 120.4L171.9 119.6L171.2 118.7L170.6 117.8L170.0 116.9L169.3 116.0L168.7 115.1L168.1 114.2L167.5 113.3L166.9 112.4L166.3 111.4L165.7 110.5L165.2 109.6L164.6 108.6L164.0 107.7L163.5 106.7L163.0 105.8L162.4 104.8L161.9 103.9L161.4 102.9L161.0 102.0L160.5 101.1L160.0 100.2L159.6 99.2L159.2 98.3L158.8 97.4L158.4 96.6L158.0 95.7L157.7 94.8L157.3 94.0L157.0 93.1L156.7 92.3L156.5 91.5L156.2 90.7L156.0 90.0L155.7 89.2L155.5 88.5L155.4 87.8L155.2 87.1L155.1 86.4L154.9 85.7L154.8 85.1L154.7 84.5L154.7 83.9L154.6 83.3L154.6 82.8L154.6 82.3L154.6 81.8L154.6 81.3L154.6 80.8L154.7 80.4L154.8 80.0L154.8 79.6L154.9 79.2L155.0 78.8L155.2 78.5L155.3 78.2L155.4 77.9L155.6 77.6L155.7 77.4L155.9 77.1"/><path class="a-core" pathLength="1000" d="M179.9 129.7L179.3 129.0L178.7 128.3L178.1 127.6L177.5 126.8L176.9 126.1L176.3 125.3L175.6 124.5L175.0 123.8L174.4 122.9L173.7 122.1L173.1 121.3L172.5 120.4L171.9 119.6L171.2 118.7L170.6 117.8L170.0 116.9L169.3 116.0L168.7 115.1L168.1 114.2L167.5 113.3L166.9 112.4L166.3 111.4L165.7 110.5L165.2 109.6L164.6 108.6L164.0 107.7L163.5 106.7L163.0 105.8L162.4 104.8L161.9 103.9L161.4 102.9L161.0 102.0L160.5 101.1L160.0 100.2L159.6 99.2L159.2 98.3L158.8 97.4L158.4 96.6L158.0 95.7L157.7 94.8L157.3 94.0L157.0 93.1L156.7 92.3L156.5 91.5L156.2 90.7L156.0 90.0L155.7 89.2L155.5 88.5L155.4 87.8L155.2 87.1L155.1 86.4L154.9 85.7L154.8 85.1L154.7 84.5L154.7 83.9L154.6 83.3L154.6 82.8L154.6 82.3L154.6 81.8L154.6 81.3L154.6 80.8L154.7 80.4L154.8 80.0L154.8 79.6L154.9 79.2L155.0 78.8L155.2 78.5L155.3 78.2L155.4 77.9L155.6 77.6L155.7 77.4L155.9 77.1"/></g>
              <g class="tr-arc" style="--w:1.16;--d:7.14s;--t:5.89s"><path class="a-base" pathLength="1000" d="M179.9 129.7L180.7 130.6L181.4 131.5L182.2 132.4L183.1 133.3L183.9 134.3L184.8 135.2L185.7 136.2L186.6 137.2L187.5 138.2L188.5 139.2L189.5 140.2L190.5 141.2L191.5 142.2L192.6 143.3L193.6 144.3L194.7 145.4L195.8 146.4L196.9 147.5L198.1 148.5L199.2 149.6L200.4 150.6L201.6 151.6L202.8 152.7L204.0 153.7L205.2 154.7L206.4 155.8L207.6 156.8L208.8 157.8L210.1 158.8L211.3 159.7L212.5 160.7L213.7 161.6L215.0 162.5L216.2 163.4L217.4 164.3L218.6 165.2L219.8 166.0L221.0 166.8L222.1 167.6L223.3 168.4L224.4 169.1L225.6 169.8L226.7 170.5L227.8 171.2L228.8 171.8L229.9 172.4L230.9 173.0L231.9 173.5L232.9 174.0L233.8 174.5L234.7 174.9L235.6 175.4L236.5 175.7L237.3 176.1L238.1 176.4L238.9 176.7L239.6 176.9L240.4 177.2L241.0 177.4L241.7 177.5L242.3 177.7L242.9 177.8L243.5 177.9L244.0 177.9L244.5 177.9L245.0 177.9L245.4 177.9L245.9 177.9L246.3 177.8L246.6 177.7L247.0 177.6L247.3 177.4"/><path class="a-glow" pathLength="1000" d="M179.9 129.7L180.7 130.6L181.4 131.5L182.2 132.4L183.1 133.3L183.9 134.3L184.8 135.2L185.7 136.2L186.6 137.2L187.5 138.2L188.5 139.2L189.5 140.2L190.5 141.2L191.5 142.2L192.6 143.3L193.6 144.3L194.7 145.4L195.8 146.4L196.9 147.5L198.1 148.5L199.2 149.6L200.4 150.6L201.6 151.6L202.8 152.7L204.0 153.7L205.2 154.7L206.4 155.8L207.6 156.8L208.8 157.8L210.1 158.8L211.3 159.7L212.5 160.7L213.7 161.6L215.0 162.5L216.2 163.4L217.4 164.3L218.6 165.2L219.8 166.0L221.0 166.8L222.1 167.6L223.3 168.4L224.4 169.1L225.6 169.8L226.7 170.5L227.8 171.2L228.8 171.8L229.9 172.4L230.9 173.0L231.9 173.5L232.9 174.0L233.8 174.5L234.7 174.9L235.6 175.4L236.5 175.7L237.3 176.1L238.1 176.4L238.9 176.7L239.6 176.9L240.4 177.2L241.0 177.4L241.7 177.5L242.3 177.7L242.9 177.8L243.5 177.9L244.0 177.9L244.5 177.9L245.0 177.9L245.4 177.9L245.9 177.9L246.3 177.8L246.6 177.7L247.0 177.6L247.3 177.4"/><path class="a-core" pathLength="1000" d="M179.9 129.7L180.7 130.6L181.4 131.5L182.2 132.4L183.1 133.3L183.9 134.3L184.8 135.2L185.7 136.2L186.6 137.2L187.5 138.2L188.5 139.2L189.5 140.2L190.5 141.2L191.5 142.2L192.6 143.3L193.6 144.3L194.7 145.4L195.8 146.4L196.9 147.5L198.1 148.5L199.2 149.6L200.4 150.6L201.6 151.6L202.8 152.7L204.0 153.7L205.2 154.7L206.4 155.8L207.6 156.8L208.8 157.8L210.1 158.8L211.3 159.7L212.5 160.7L213.7 161.6L215.0 162.5L216.2 163.4L217.4 164.3L218.6 165.2L219.8 166.0L221.0 166.8L222.1 167.6L223.3 168.4L224.4 169.1L225.6 169.8L226.7 170.5L227.8 171.2L228.8 171.8L229.9 172.4L230.9 173.0L231.9 173.5L232.9 174.0L233.8 174.5L234.7 174.9L235.6 175.4L236.5 175.7L237.3 176.1L238.1 176.4L238.9 176.7L239.6 176.9L240.4 177.2L241.0 177.4L241.7 177.5L242.3 177.7L242.9 177.8L243.5 177.9L244.0 177.9L244.5 177.9L245.0 177.9L245.4 177.9L245.9 177.9L246.3 177.8L246.6 177.7L247.0 177.6L247.3 177.4"/></g>
              <g class="tr-arc" style="--w:1.14;--d:7.55s;--t:5.42s"><path class="a-base" pathLength="1000" d="M179.9 129.7L178.7 129.0L177.6 128.2L176.3 127.4L175.1 126.7L173.9 125.9L172.6 125.0L171.4 124.2L170.1 123.3L168.8 122.5L167.5 121.6L166.2 120.7L164.9 119.8L163.6 118.8L162.3 117.9L161.0 116.9L159.7 116.0L158.4 115.0L157.1 114.0L155.8 113.0L154.5 112.0L153.2 111.0L151.9 110.0L150.7 109.0L149.4 107.9L148.2 106.9L147.0 105.9L145.8 104.9L144.6 103.8L143.4 102.8L142.3 101.8L141.2 100.8L140.1 99.8L139.0 98.8L138.0 97.8L137.0 96.8L136.1 95.9L135.1 94.9L134.2 94.0L133.4 93.1L132.5 92.2L131.8 91.3L131.0 90.4L130.3 89.6L129.6 88.8L129.0 88.0L128.4 87.2L127.8 86.5L127.3 85.7L126.9 85.0L126.4 84.3L126.1 83.7L125.7 83.1L125.4 82.5L125.2 81.9L124.9 81.4L124.8 80.8L124.6 80.4L124.5 79.9L124.5 79.5L124.4 79.1L124.5 78.7L124.5 78.3L124.6 78.0L124.7 77.7L124.9 77.4L125.0 77.2L125.3 76.9L125.5 76.7L125.8 76.6L126.0 76.4L126.4 76.3L126.7 76.2"/><path class="a-glow" pathLength="1000" d="M179.9 129.7L178.7 129.0L177.6 128.2L176.3 127.4L175.1 126.7L173.9 125.9L172.6 125.0L171.4 124.2L170.1 123.3L168.8 122.5L167.5 121.6L166.2 120.7L164.9 119.8L163.6 118.8L162.3 117.9L161.0 116.9L159.7 116.0L158.4 115.0L157.1 114.0L155.8 113.0L154.5 112.0L153.2 111.0L151.9 110.0L150.7 109.0L149.4 107.9L148.2 106.9L147.0 105.9L145.8 104.9L144.6 103.8L143.4 102.8L142.3 101.8L141.2 100.8L140.1 99.8L139.0 98.8L138.0 97.8L137.0 96.8L136.1 95.9L135.1 94.9L134.2 94.0L133.4 93.1L132.5 92.2L131.8 91.3L131.0 90.4L130.3 89.6L129.6 88.8L129.0 88.0L128.4 87.2L127.8 86.5L127.3 85.7L126.9 85.0L126.4 84.3L126.1 83.7L125.7 83.1L125.4 82.5L125.2 81.9L124.9 81.4L124.8 80.8L124.6 80.4L124.5 79.9L124.5 79.5L124.4 79.1L124.5 78.7L124.5 78.3L124.6 78.0L124.7 77.7L124.9 77.4L125.0 77.2L125.3 76.9L125.5 76.7L125.8 76.6L126.0 76.4L126.4 76.3L126.7 76.2"/><path class="a-core" pathLength="1000" d="M179.9 129.7L178.7 129.0L177.6 128.2L176.3 127.4L175.1 126.7L173.9 125.9L172.6 125.0L171.4 124.2L170.1 123.3L168.8 122.5L167.5 121.6L166.2 120.7L164.9 119.8L163.6 118.8L162.3 117.9L161.0 116.9L159.7 116.0L158.4 115.0L157.1 114.0L155.8 113.0L154.5 112.0L153.2 111.0L151.9 110.0L150.7 109.0L149.4 107.9L148.2 106.9L147.0 105.9L145.8 104.9L144.6 103.8L143.4 102.8L142.3 101.8L141.2 100.8L140.1 99.8L139.0 98.8L138.0 97.8L137.0 96.8L136.1 95.9L135.1 94.9L134.2 94.0L133.4 93.1L132.5 92.2L131.8 91.3L131.0 90.4L130.3 89.6L129.6 88.8L129.0 88.0L128.4 87.2L127.8 86.5L127.3 85.7L126.9 85.0L126.4 84.3L126.1 83.7L125.7 83.1L125.4 82.5L125.2 81.9L124.9 81.4L124.8 80.8L124.6 80.4L124.5 79.9L124.5 79.5L124.4 79.1L124.5 78.7L124.5 78.3L124.6 78.0L124.7 77.7L124.9 77.4L125.0 77.2L125.3 76.9L125.5 76.7L125.8 76.6L126.0 76.4L126.4 76.3L126.7 76.2"/></g>
              <g class="tr-arc" style="--w:1.11;--d:5.97s;--t:4.95s"><path class="a-base" pathLength="1000" d="M179.9 129.7L179.9 129.0L179.9 128.4L179.9 127.7L179.9 127.0L179.9 126.3L179.9 125.6L179.9 124.8L179.9 124.1L179.9 123.3L180.0 122.5L180.0 121.7L180.0 120.9L180.1 120.1L180.1 119.3L180.2 118.5L180.3 117.7L180.4 116.8L180.5 115.9L180.6 115.1L180.7 114.2L180.8 113.3L180.9 112.5L181.0 111.6L181.2 110.7L181.3 109.8L181.5 108.9L181.6 108.0L181.8 107.1L182.0 106.2L182.2 105.3L182.4 104.4L182.6 103.5L182.8 102.7L183.0 101.8L183.2 100.9L183.5 100.1L183.7 99.2L183.9 98.4L184.2 97.5L184.4 96.7L184.7 95.9L185.0 95.1L185.2 94.3L185.5 93.5L185.8 92.8L186.1 92.0L186.3 91.3L186.6 90.6L186.9 89.9L187.2 89.2L187.5 88.6L187.8 88.0L188.1 87.3L188.4 86.7L188.7 86.2L189.0 85.6L189.3 85.1L189.6 84.5L189.9 84.0L190.2 83.6L190.5 83.1L190.8 82.6L191.1 82.2L191.4 81.8L191.7 81.4L192.0 81.1L192.2 80.7L192.5 80.4L192.8 80.1L193.1 79.8L193.4 79.5L193.6 79.2"/><path class="a-glow" pathLength="1000" d="M179.9 129.7L179.9 129.0L179.9 128.4L179.9 127.7L179.9 127.0L179.9 126.3L179.9 125.6L179.9 124.8L179.9 124.1L179.9 123.3L180.0 122.5L180.0 121.7L180.0 120.9L180.1 120.1L180.1 119.3L180.2 118.5L180.3 117.7L180.4 116.8L180.5 115.9L180.6 115.1L180.7 114.2L180.8 113.3L180.9 112.5L181.0 111.6L181.2 110.7L181.3 109.8L181.5 108.9L181.6 108.0L181.8 107.1L182.0 106.2L182.2 105.3L182.4 104.4L182.6 103.5L182.8 102.7L183.0 101.8L183.2 100.9L183.5 100.1L183.7 99.2L183.9 98.4L184.2 97.5L184.4 96.7L184.7 95.9L185.0 95.1L185.2 94.3L185.5 93.5L185.8 92.8L186.1 92.0L186.3 91.3L186.6 90.6L186.9 89.9L187.2 89.2L187.5 88.6L187.8 88.0L188.1 87.3L188.4 86.7L188.7 86.2L189.0 85.6L189.3 85.1L189.6 84.5L189.9 84.0L190.2 83.6L190.5 83.1L190.8 82.6L191.1 82.2L191.4 81.8L191.7 81.4L192.0 81.1L192.2 80.7L192.5 80.4L192.8 80.1L193.1 79.8L193.4 79.5L193.6 79.2"/><path class="a-core" pathLength="1000" d="M179.9 129.7L179.9 129.0L179.9 128.4L179.9 127.7L179.9 127.0L179.9 126.3L179.9 125.6L179.9 124.8L179.9 124.1L179.9 123.3L180.0 122.5L180.0 121.7L180.0 120.9L180.1 120.1L180.1 119.3L180.2 118.5L180.3 117.7L180.4 116.8L180.5 115.9L180.6 115.1L180.7 114.2L180.8 113.3L180.9 112.5L181.0 111.6L181.2 110.7L181.3 109.8L181.5 108.9L181.6 108.0L181.8 107.1L182.0 106.2L182.2 105.3L182.4 104.4L182.6 103.5L182.8 102.7L183.0 101.8L183.2 100.9L183.5 100.1L183.7 99.2L183.9 98.4L184.2 97.5L184.4 96.7L184.7 95.9L185.0 95.1L185.2 94.3L185.5 93.5L185.8 92.8L186.1 92.0L186.3 91.3L186.6 90.6L186.9 89.9L187.2 89.2L187.5 88.6L187.8 88.0L188.1 87.3L188.4 86.7L188.7 86.2L189.0 85.6L189.3 85.1L189.6 84.5L189.9 84.0L190.2 83.6L190.5 83.1L190.8 82.6L191.1 82.2L191.4 81.8L191.7 81.4L192.0 81.1L192.2 80.7L192.5 80.4L192.8 80.1L193.1 79.8L193.4 79.5L193.6 79.2"/></g>
              <g class="tr-arc" style="--w:1.11;--d:6.37s;--t:4.48s"><path class="a-base" pathLength="1000" d="M179.9 129.7L178.5 128.9L177.0 128.2L175.5 127.4L173.9 126.5L172.4 125.7L170.8 124.8L169.3 124.0L167.7 123.1L166.1 122.2L164.4 121.2L162.8 120.3L161.2 119.3L159.5 118.3L157.9 117.4L156.2 116.3L154.6 115.3L152.9 114.3L151.3 113.3L149.6 112.2L148.0 111.2L146.4 110.1L144.8 109.0L143.2 108.0L141.6 106.9L140.1 105.8L138.6 104.7L137.1 103.7L135.6 102.6L134.1 101.5L132.7 100.5L131.4 99.4L130.0 98.4L128.7 97.3L127.4 96.3L126.2 95.3L125.0 94.3L123.9 93.4L122.8 92.4L121.8 91.5L120.8 90.6L119.8 89.7L118.9 88.8L118.1 88.0L117.3 87.1L116.6 86.3L115.9 85.6L115.3 84.8L114.7 84.1L114.2 83.4L113.7 82.8L113.3 82.2L113.0 81.6L112.7 81.0L112.5 80.5L112.3 80.0L112.2 79.5L112.1 79.1L112.1 78.7L112.1 78.3L112.2 77.9L112.3 77.6L112.5 77.4L112.7 77.1L113.0 76.9L113.3 76.7L113.6 76.5L114.0 76.4L114.4 76.3L114.9 76.2L115.4 76.1L115.9 76.1L116.4 76.1"/><path class="a-glow" pathLength="1000" d="M179.9 129.7L178.5 128.9L177.0 128.2L175.5 127.4L173.9 126.5L172.4 125.7L170.8 124.8L169.3 124.0L167.7 123.1L166.1 122.2L164.4 121.2L162.8 120.3L161.2 119.3L159.5 118.3L157.9 117.4L156.2 116.3L154.6 115.3L152.9 114.3L151.3 113.3L149.6 112.2L148.0 111.2L146.4 110.1L144.8 109.0L143.2 108.0L141.6 106.9L140.1 105.8L138.6 104.7L137.1 103.7L135.6 102.6L134.1 101.5L132.7 100.5L131.4 99.4L130.0 98.4L128.7 97.3L127.4 96.3L126.2 95.3L125.0 94.3L123.9 93.4L122.8 92.4L121.8 91.5L120.8 90.6L119.8 89.7L118.9 88.8L118.1 88.0L117.3 87.1L116.6 86.3L115.9 85.6L115.3 84.8L114.7 84.1L114.2 83.4L113.7 82.8L113.3 82.2L113.0 81.6L112.7 81.0L112.5 80.5L112.3 80.0L112.2 79.5L112.1 79.1L112.1 78.7L112.1 78.3L112.2 77.9L112.3 77.6L112.5 77.4L112.7 77.1L113.0 76.9L113.3 76.7L113.6 76.5L114.0 76.4L114.4 76.3L114.9 76.2L115.4 76.1L115.9 76.1L116.4 76.1"/><path class="a-core" pathLength="1000" d="M179.9 129.7L178.5 128.9L177.0 128.2L175.5 127.4L173.9 126.5L172.4 125.7L170.8 124.8L169.3 124.0L167.7 123.1L166.1 122.2L164.4 121.2L162.8 120.3L161.2 119.3L159.5 118.3L157.9 117.4L156.2 116.3L154.6 115.3L152.9 114.3L151.3 113.3L149.6 112.2L148.0 111.2L146.4 110.1L144.8 109.0L143.2 108.0L141.6 106.9L140.1 105.8L138.6 104.7L137.1 103.7L135.6 102.6L134.1 101.5L132.7 100.5L131.4 99.4L130.0 98.4L128.7 97.3L127.4 96.3L126.2 95.3L125.0 94.3L123.9 93.4L122.8 92.4L121.8 91.5L120.8 90.6L119.8 89.7L118.9 88.8L118.1 88.0L117.3 87.1L116.6 86.3L115.9 85.6L115.3 84.8L114.7 84.1L114.2 83.4L113.7 82.8L113.3 82.2L113.0 81.6L112.7 81.0L112.5 80.5L112.3 80.0L112.2 79.5L112.1 79.1L112.1 78.7L112.1 78.3L112.2 77.9L112.3 77.6L112.5 77.4L112.7 77.1L113.0 76.9L113.3 76.7L113.6 76.5L114.0 76.4L114.4 76.3L114.9 76.2L115.4 76.1L115.9 76.1L116.4 76.1"/></g>
              <g class="tr-arc" style="--w:1.1;--d:6.78s;--t:4.01s"><path class="a-base" pathLength="1000" d="M179.9 129.7L178.1 127.8L176.3 125.8L174.4 123.8L172.5 121.7L170.6 119.6L168.7 117.4L166.7 115.1L164.8 112.8L162.8 110.5L160.8 108.1L158.9 105.7L156.9 103.3L154.9 100.8L153.0 98.3L151.0 95.7L149.1 93.2L147.1 90.6L145.3 88.0L143.4 85.4L141.5 82.8L139.8 80.2L138.0 77.6L136.3 75.1L134.6 72.5L133.0 70.0L131.4 67.5L129.9 65.1L128.5 62.6L127.1 60.3L125.8 57.9L124.5 55.7L123.4 53.4L122.3 51.3L121.3 49.2L120.3 47.2L119.5 45.3L118.7 43.4L118.0 41.6L117.4 40.0L116.9 38.4L116.5 36.9L116.2 35.5L115.9 34.2L115.8 33.0L115.7 31.9L115.7 30.9L115.9 30.0L116.1 29.2L116.3 28.5L116.7 27.9L117.2 27.4L117.7 27.1L118.3 26.8L119.0 26.7L119.8 26.6L120.6 26.7L121.5 26.8L122.5 27.1L123.5 27.4L124.6 27.8L125.8 28.4L127.0 29.0L128.2 29.7L129.5 30.5L130.9 31.3L132.3 32.2L133.7 33.2L135.1 34.3L136.6 35.4L138.1 36.6"/><path class="a-glow" pathLength="1000" d="M179.9 129.7L178.1 127.8L176.3 125.8L174.4 123.8L172.5 121.7L170.6 119.6L168.7 117.4L166.7 115.1L164.8 112.8L162.8 110.5L160.8 108.1L158.9 105.7L156.9 103.3L154.9 100.8L153.0 98.3L151.0 95.7L149.1 93.2L147.1 90.6L145.3 88.0L143.4 85.4L141.5 82.8L139.8 80.2L138.0 77.6L136.3 75.1L134.6 72.5L133.0 70.0L131.4 67.5L129.9 65.1L128.5 62.6L127.1 60.3L125.8 57.9L124.5 55.7L123.4 53.4L122.3 51.3L121.3 49.2L120.3 47.2L119.5 45.3L118.7 43.4L118.0 41.6L117.4 40.0L116.9 38.4L116.5 36.9L116.2 35.5L115.9 34.2L115.8 33.0L115.7 31.9L115.7 30.9L115.9 30.0L116.1 29.2L116.3 28.5L116.7 27.9L117.2 27.4L117.7 27.1L118.3 26.8L119.0 26.7L119.8 26.6L120.6 26.7L121.5 26.8L122.5 27.1L123.5 27.4L124.6 27.8L125.8 28.4L127.0 29.0L128.2 29.7L129.5 30.5L130.9 31.3L132.3 32.2L133.7 33.2L135.1 34.3L136.6 35.4L138.1 36.6"/><path class="a-core" pathLength="1000" d="M179.9 129.7L178.1 127.8L176.3 125.8L174.4 123.8L172.5 121.7L170.6 119.6L168.7 117.4L166.7 115.1L164.8 112.8L162.8 110.5L160.8 108.1L158.9 105.7L156.9 103.3L154.9 100.8L153.0 98.3L151.0 95.7L149.1 93.2L147.1 90.6L145.3 88.0L143.4 85.4L141.5 82.8L139.8 80.2L138.0 77.6L136.3 75.1L134.6 72.5L133.0 70.0L131.4 67.5L129.9 65.1L128.5 62.6L127.1 60.3L125.8 57.9L124.5 55.7L123.4 53.4L122.3 51.3L121.3 49.2L120.3 47.2L119.5 45.3L118.7 43.4L118.0 41.6L117.4 40.0L116.9 38.4L116.5 36.9L116.2 35.5L115.9 34.2L115.8 33.0L115.7 31.9L115.7 30.9L115.9 30.0L116.1 29.2L116.3 28.5L116.7 27.9L117.2 27.4L117.7 27.1L118.3 26.8L119.0 26.7L119.8 26.6L120.6 26.7L121.5 26.8L122.5 27.1L123.5 27.4L124.6 27.8L125.8 28.4L127.0 29.0L128.2 29.7L129.5 30.5L130.9 31.3L132.3 32.2L133.7 33.2L135.1 34.3L136.6 35.4L138.1 36.6"/></g>
              <g class="tr-arc" style="--w:1.08;--d:7.19s;--t:3.54s"><path class="a-base" pathLength="1000" d="M179.9 129.7L177.9 127.9L175.8 126.1L173.7 124.3L171.6 122.3L169.4 120.4L167.3 118.4L165.1 116.3L162.8 114.2L160.6 112.0L158.4 109.8L156.1 107.6L153.9 105.3L151.6 103.0L149.4 100.7L147.2 98.4L144.9 96.0L142.8 93.6L140.6 91.2L138.4 88.8L136.3 86.4L134.3 84.0L132.2 81.6L130.3 79.3L128.3 76.9L126.5 74.6L124.6 72.3L122.9 70.0L121.2 67.7L119.6 65.5L118.1 63.4L116.6 61.3L115.2 59.2L113.9 57.3L112.7 55.3L111.6 53.5L110.6 51.7L109.7 50.0L108.9 48.3L108.1 46.8L107.5 45.3L107.0 43.9L106.5 42.6L106.2 41.4L106.0 40.3L105.9 39.3L105.8 38.4L105.9 37.6L106.1 36.8L106.4 36.2L106.7 35.7L107.2 35.3L107.8 34.9L108.4 34.7L109.1 34.6L110.0 34.5L110.9 34.6L111.9 34.7L112.9 35.0L114.0 35.3L115.2 35.7L116.5 36.2L117.8 36.8L119.2 37.5L120.7 38.2L122.2 39.0L123.7 39.9L125.3 40.8L126.9 41.8L128.5 42.9L130.2 44.0"/><path class="a-glow" pathLength="1000" d="M179.9 129.7L177.9 127.9L175.8 126.1L173.7 124.3L171.6 122.3L169.4 120.4L167.3 118.4L165.1 116.3L162.8 114.2L160.6 112.0L158.4 109.8L156.1 107.6L153.9 105.3L151.6 103.0L149.4 100.7L147.2 98.4L144.9 96.0L142.8 93.6L140.6 91.2L138.4 88.8L136.3 86.4L134.3 84.0L132.2 81.6L130.3 79.3L128.3 76.9L126.5 74.6L124.6 72.3L122.9 70.0L121.2 67.7L119.6 65.5L118.1 63.4L116.6 61.3L115.2 59.2L113.9 57.3L112.7 55.3L111.6 53.5L110.6 51.7L109.7 50.0L108.9 48.3L108.1 46.8L107.5 45.3L107.0 43.9L106.5 42.6L106.2 41.4L106.0 40.3L105.9 39.3L105.8 38.4L105.9 37.6L106.1 36.8L106.4 36.2L106.7 35.7L107.2 35.3L107.8 34.9L108.4 34.7L109.1 34.6L110.0 34.5L110.9 34.6L111.9 34.7L112.9 35.0L114.0 35.3L115.2 35.7L116.5 36.2L117.8 36.8L119.2 37.5L120.7 38.2L122.2 39.0L123.7 39.9L125.3 40.8L126.9 41.8L128.5 42.9L130.2 44.0"/><path class="a-core" pathLength="1000" d="M179.9 129.7L177.9 127.9L175.8 126.1L173.7 124.3L171.6 122.3L169.4 120.4L167.3 118.4L165.1 116.3L162.8 114.2L160.6 112.0L158.4 109.8L156.1 107.6L153.9 105.3L151.6 103.0L149.4 100.7L147.2 98.4L144.9 96.0L142.8 93.6L140.6 91.2L138.4 88.8L136.3 86.4L134.3 84.0L132.2 81.6L130.3 79.3L128.3 76.9L126.5 74.6L124.6 72.3L122.9 70.0L121.2 67.7L119.6 65.5L118.1 63.4L116.6 61.3L115.2 59.2L113.9 57.3L112.7 55.3L111.6 53.5L110.6 51.7L109.7 50.0L108.9 48.3L108.1 46.8L107.5 45.3L107.0 43.9L106.5 42.6L106.2 41.4L106.0 40.3L105.9 39.3L105.8 38.4L105.9 37.6L106.1 36.8L106.4 36.2L106.7 35.7L107.2 35.3L107.8 34.9L108.4 34.7L109.1 34.6L110.0 34.5L110.9 34.6L111.9 34.7L112.9 35.0L114.0 35.3L115.2 35.7L116.5 36.2L117.8 36.8L119.2 37.5L120.7 38.2L122.2 39.0L123.7 39.9L125.3 40.8L126.9 41.8L128.5 42.9L130.2 44.0"/></g>
              <g class="tr-arc" style="--w:1.07;--d:7.59s;--t:3.07s"><path class="a-base" pathLength="1000" d="M179.9 129.7L177.5 128.0L175.0 126.2L172.5 124.4L170.0 122.5L167.4 120.6L164.8 118.6L162.2 116.6L159.5 114.6L156.9 112.4L154.2 110.3L151.5 108.1L148.8 105.9L146.1 103.6L143.4 101.3L140.7 99.0L138.1 96.7L135.5 94.4L132.9 92.1L130.3 89.7L127.8 87.4L125.4 85.0L123.0 82.7L120.6 80.4L118.4 78.1L116.2 75.9L114.0 73.6L112.0 71.5L110.1 69.3L108.2 67.2L106.4 65.2L104.8 63.2L103.2 61.2L101.8 59.4L100.5 57.6L99.3 55.9L98.2 54.2L97.2 52.6L96.3 51.2L95.6 49.8L95.0 48.5L94.6 47.3L94.2 46.1L94.0 45.1L93.9 44.2L94.0 43.4L94.1 42.7L94.4 42.0L94.8 41.5L95.4 41.1L96.0 40.8L96.8 40.6L97.7 40.5L98.7 40.5L99.8 40.6L101.0 40.8L102.3 41.0L103.7 41.4L105.2 41.9L106.8 42.4L108.4 43.1L110.2 43.8L112.0 44.6L113.8 45.5L115.7 46.4L117.7 47.4L119.7 48.5L121.8 49.7L123.9 50.8"/><path class="a-glow" pathLength="1000" d="M179.9 129.7L177.5 128.0L175.0 126.2L172.5 124.4L170.0 122.5L167.4 120.6L164.8 118.6L162.2 116.6L159.5 114.6L156.9 112.4L154.2 110.3L151.5 108.1L148.8 105.9L146.1 103.6L143.4 101.3L140.7 99.0L138.1 96.7L135.5 94.4L132.9 92.1L130.3 89.7L127.8 87.4L125.4 85.0L123.0 82.7L120.6 80.4L118.4 78.1L116.2 75.9L114.0 73.6L112.0 71.5L110.1 69.3L108.2 67.2L106.4 65.2L104.8 63.2L103.2 61.2L101.8 59.4L100.5 57.6L99.3 55.9L98.2 54.2L97.2 52.6L96.3 51.2L95.6 49.8L95.0 48.5L94.6 47.3L94.2 46.1L94.0 45.1L93.9 44.2L94.0 43.4L94.1 42.7L94.4 42.0L94.8 41.5L95.4 41.1L96.0 40.8L96.8 40.6L97.7 40.5L98.7 40.5L99.8 40.6L101.0 40.8L102.3 41.0L103.7 41.4L105.2 41.9L106.8 42.4L108.4 43.1L110.2 43.8L112.0 44.6L113.8 45.5L115.7 46.4L117.7 47.4L119.7 48.5L121.8 49.7L123.9 50.8"/><path class="a-core" pathLength="1000" d="M179.9 129.7L177.5 128.0L175.0 126.2L172.5 124.4L170.0 122.5L167.4 120.6L164.8 118.6L162.2 116.6L159.5 114.6L156.9 112.4L154.2 110.3L151.5 108.1L148.8 105.9L146.1 103.6L143.4 101.3L140.7 99.0L138.1 96.7L135.5 94.4L132.9 92.1L130.3 89.7L127.8 87.4L125.4 85.0L123.0 82.7L120.6 80.4L118.4 78.1L116.2 75.9L114.0 73.6L112.0 71.5L110.1 69.3L108.2 67.2L106.4 65.2L104.8 63.2L103.2 61.2L101.8 59.4L100.5 57.6L99.3 55.9L98.2 54.2L97.2 52.6L96.3 51.2L95.6 49.8L95.0 48.5L94.6 47.3L94.2 46.1L94.0 45.1L93.9 44.2L94.0 43.4L94.1 42.7L94.4 42.0L94.8 41.5L95.4 41.1L96.0 40.8L96.8 40.6L97.7 40.5L98.7 40.5L99.8 40.6L101.0 40.8L102.3 41.0L103.7 41.4L105.2 41.9L106.8 42.4L108.4 43.1L110.2 43.8L112.0 44.6L113.8 45.5L115.7 46.4L117.7 47.4L119.7 48.5L121.8 49.7L123.9 50.8"/></g>
            </g>
            <g class="tg-origin">
              <circle class="o-ring" cx="179.9" cy="129.7" r="5" fill="none" stroke="#D9722C" stroke-width="1.4"/>
              <circle cx="179.9" cy="129.7" r="2.6" fill="#F2A05A"/>
            </g>
          </svg>